<?xml version="1.0" encoding="UTF-8"?>
<svg width="270px" height="270px" viewBox="0 0 270 270" version="1.1" xmlns="http://www.w3.org/2000/svg" xmlns:xlink="http://www.w3.org/1999/xlink">
    <title>ODS1</title>
    <g id="Page-1" stroke="none" stroke-width="1" fill="none" fill-rule="evenodd">
        <g id="ODS_1_detalhe_img1" transform="translate(-576.000000, -304.000000)">
            <g id="ODS1" transform="translate(576.000000, 304.000000)">
                <polygon id="Fill-1" fill="#E3253E" points="-8.52651283e-14 269.841 269.834 269.841 269.834 -5.68434189e-14 -8.52651283e-14 -5.68434189e-14"></polygon>
                <g id="Group-22" transform="translate(28.000000, 21.000000)">
                    <path d="M179.8009,107.7404 C179.8009,103.6144 183.1529,100.2694 187.2789,100.2694 C191.4049,100.2694 194.7349,103.6144 194.7349,107.7404 C194.7349,111.8664 191.4049,115.2114 187.2789,115.2114 C183.1529,115.2114 179.8009,111.8664 179.8009,107.7404" id="Fill-3" fill="#FFFFFF"></path>
                    <path d="M195.9963,118.0934 C201.0633,118.5504 205.0383,122.8134 205.0383,128.0184 L205.0383,130.4934 L205.0383,131.5794 L205.0383,148.7204 C205.0383,150.3134 203.7423,151.6164 202.1493,151.6164 C200.5423,151.6164 199.2463,150.3134 199.2463,148.7204 L199.2463,130.9354 C199.2463,130.2694 199.0583,129.3644 197.8353,129.3644 C196.9953,129.3644 196.8143,130.2624 196.7853,130.8264 L196.7853,184.1404 C196.7853,186.4274 194.9323,188.2964 192.6233,188.2964 C190.3283,188.2964 188.4603,186.4274 188.4603,184.1404 L188.4603,153.4194 C188.4463,153.0784 188.3303,152.1964 187.2813,152.1964 L187.2733,152.1964 C186.2093,152.1964 186.0863,153.0784 186.0723,153.4194 L186.0723,184.1404 C186.0723,186.4274 184.2193,188.2964 181.9173,188.2964 C179.6073,188.2964 177.7473,186.4274 177.7473,184.1404 L177.7473,130.8264 C177.7253,130.2624 177.5443,129.3644 176.7053,129.3644 C175.4813,129.3644 175.3003,130.2694 175.3003,130.9354 L175.3003,148.7204 C175.3003,150.3134 173.9973,151.6164 172.3983,151.6164 C170.7983,151.6164 169.5023,150.3134 169.5023,148.7204 L169.5023,131.5794 L169.5023,130.4934 L169.5023,128.0184 C169.5023,122.8134 173.4833,118.5504 178.5583,118.0934 C178.7173,118.0724 178.9053,118.0504 179.1013,118.0504 L187.2813,118.0504 L195.4323,118.0504 C195.6423,118.0504 195.8233,118.0724 195.9963,118.0934" id="Fill-5" fill="#FFFFFF"></path>
                    <path d="M135.3781,111.6642 C135.3781,107.7552 132.2141,104.5842 128.3131,104.5842 C124.3971,104.5842 121.2331,107.7552 121.2331,111.6642 C121.2331,115.5732 124.3971,118.7442 128.3131,118.7442 C132.2141,118.7442 135.3781,115.5732 135.3781,111.6642" id="Fill-7" fill="#FFFFFF"></path>
                    <path d="M114.0573,127.6891 L108.1793,146.8351 C108.1793,146.8351 107.1303,150.3391 110.1053,151.2151 C113.0653,152.0911 113.9633,148.6671 113.9633,148.6671 L118.7123,132.6911 C118.7123,132.6911 118.9723,131.4601 119.8913,131.7291 C120.8183,131.9891 120.4713,133.3061 120.4713,133.3061 L112.2193,163.2461 L119.8913,163.2461 L119.8913,184.6941 C119.8913,186.7221 121.5423,188.3721 123.5763,188.3721 C125.6183,188.3721 127.2613,186.7221 127.2613,184.6941 L127.2613,163.2461 L128.3183,163.2461 L129.3533,163.2461 L129.3533,184.6941 C129.3533,186.7221 130.9963,188.3721 133.0373,188.3721 C135.0783,188.3721 136.7293,186.7221 136.7293,184.6941 L136.7293,163.2461 L144.3953,163.2461 L136.1573,133.3061 C136.1573,133.3061 135.8103,131.9891 136.7293,131.7291 C137.6563,131.4601 137.9093,132.6911 137.9093,132.6911 L142.6503,148.6671 C142.6503,148.6671 143.5483,152.0911 146.5093,151.2151 C149.4983,150.3391 148.4413,146.8351 148.4413,146.8351 L142.5633,127.6891 C142.5633,127.6891 140.4573,122.1511 135.8103,122.1511 L128.3183,122.1511 L120.8183,122.1511 C116.1633,122.1511 114.0573,127.6891 114.0573,127.6891" id="Fill-9" fill="#FFFFFF"></path>
                    <path d="M93.0129,111.6642 C93.0129,107.7552 89.8489,104.5842 85.9409,104.5842 C82.0319,104.5842 78.8679,107.7552 78.8679,111.6642 C78.8679,115.5732 82.0319,118.7442 85.9409,118.7442 C89.8489,118.7442 93.0129,115.5732 93.0129,111.6642" id="Fill-11" fill="#FFFFFF"></path>
                    <path d="M71.6852,127.6891 L65.8072,146.8351 C65.8072,146.8351 64.7572,150.3391 67.7402,151.2151 C70.7002,152.0911 71.5982,148.6671 71.5982,148.6671 L76.3472,132.6911 C76.3472,132.6911 76.6002,131.4601 77.5262,131.7291 C78.4532,131.9891 78.0992,133.3061 78.0992,133.3061 L69.8462,163.2461 L77.5262,163.2461 L77.5262,184.6941 C77.5262,186.7221 79.1772,188.3721 81.2042,188.3721 C83.2522,188.3721 84.8882,186.7221 84.8882,184.6941 L84.8882,163.2461 L85.9532,163.2461 L86.9882,163.2461 L86.9882,184.6941 C86.9882,186.7221 88.6312,188.3721 90.6722,188.3721 C92.7132,188.3721 94.3572,186.7221 94.3572,184.6941 L94.3572,163.2461 L102.0302,163.2461 L93.7922,133.3061 C93.7922,133.3061 93.4372,131.9891 94.3572,131.7291 C95.2832,131.4601 95.5442,132.6911 95.5442,132.6911 L100.2782,148.6671 C100.2782,148.6671 101.1832,152.0911 104.1362,151.2151 C107.1262,150.3391 106.0692,146.8351 106.0692,146.8351 L100.1912,127.6891 C100.1912,127.6891 98.0922,122.1511 93.4372,122.1511 L85.9532,122.1511 L78.4532,122.1511 C73.7982,122.1511 71.6852,127.6891 71.6852,127.6891" id="Fill-13" fill="#FFFFFF"></path>
                    <path d="M159.1379,151.2545 C162.3949,151.2545 165.0159,148.6195 165.0159,145.3625 C165.0159,142.1045 162.3949,139.4835 159.1379,139.4835 C155.8809,139.4835 153.2529,142.1045 153.2529,145.3625 C153.2529,148.6195 155.8809,151.2545 159.1379,151.2545" id="Fill-15" fill="#FFFFFF"></path>
                    <path d="M145.0207,169.5465 C144.7307,170.2335 144.4997,171.6965 145.8747,172.3335 C147.5037,173.0795 148.4007,171.5085 148.4007,171.5085 L151.6007,161.3015 C151.6007,161.3015 152.1587,160.6215 152.1587,161.3225 L152.1587,185.3565 L152.1727,185.3565 C152.1727,187.0285 153.5197,188.3815 155.1907,188.3815 C156.8637,188.3815 158.2097,187.0285 158.2097,185.3565 L158.2097,175.8735 C158.2097,175.8735 158.0427,174.5335 159.1147,174.5335 C160.2007,174.5335 160.0337,175.8735 160.0337,175.8735 L160.0337,185.3565 C160.0337,187.0285 161.3877,188.3815 163.0597,188.3815 C164.7317,188.3815 166.0857,187.0285 166.0857,185.3565 L166.0857,161.3225 C166.0857,160.6215 166.4617,161.1205 166.4617,161.1205 L168.9737,168.1125 C168.9737,168.1125 170.0597,171.2335 170.3927,171.3705 C171.5217,171.8485 172.8327,171.3125 173.3107,170.1695 C173.6217,169.4235 173.5057,168.6275 173.0707,168.0185 L173.0927,167.9975 C173.0207,167.7725 169.3427,158.7535 168.9167,157.4865 C167.5837,153.6065 165.1667,153.6425 162.8427,153.5775 C160.5117,153.5265 159.1147,153.5775 159.1147,153.5775 C159.1147,153.5775 157.6307,153.5195 154.5547,153.6065 C151.4927,153.7075 150.5217,155.2785 147.1347,163.9875 C146.6567,165.2395 145.0207,169.3005 144.9997,169.5465 L145.0207,169.5465 Z" id="Fill-17" fill="#FFFFFF"></path>
                    <path d="M29.8361,107.7404 C29.8361,103.6144 26.4841,100.2694 22.3651,100.2694 C18.2391,100.2694 14.9021,103.6144 14.9021,107.7404 C14.9021,111.8664 18.2391,115.2114 22.3651,115.2114 C26.4841,115.2114 29.8361,111.8664 29.8361,107.7404" id="Fill-19" fill="#FFFFFF"></path>
                    <path d="M13.6408,118.0934 C8.5738,118.5504 4.5988,122.8134 4.5988,128.0184 L4.5988,130.4934 L4.5988,131.5794 L4.5988,148.7204 C4.5988,150.3134 5.8948,151.6164 7.4948,151.6164 C9.0948,151.6164 10.3908,150.3134 10.3908,148.7204 L10.3908,130.9354 C10.3908,130.2694 10.5858,129.3644 11.8018,129.3644 C12.6418,129.3644 12.8228,130.2624 12.8588,130.8264 L12.8588,184.1404 C12.8588,186.4274 14.7048,188.2964 17.0138,188.2964 C19.3158,188.2964 21.1758,186.4274 21.1758,184.1404 L21.1758,153.4194 C21.1908,153.0784 21.3068,152.1964 22.3638,152.1964 C23.4278,152.1964 23.5578,153.0784 23.5648,153.4194 L23.5648,184.1404 C23.5648,186.4274 25.4258,188.2964 27.7198,188.2964 C30.0298,188.2964 31.8898,186.4274 31.8898,184.1404 L31.8898,130.8264 C31.9038,130.2624 32.0998,129.3644 32.9318,129.3644 C34.1628,129.3644 34.3438,130.2694 34.3438,130.9354 L34.3438,148.7204 C34.3438,150.3134 35.6398,151.6164 37.2458,151.6164 C38.8388,151.6164 40.1348,150.3134 40.1348,148.7204 L40.1348,131.5794 L40.1348,130.4934 L40.1348,128.0184 C40.1348,122.8134 36.1608,118.5504 31.0858,118.0934 C30.9198,118.0724 30.7388,118.0504 30.5358,118.0504 L22.3638,118.0504 L14.2128,118.0504 C13.9948,118.0504 13.8138,118.0724 13.6408,118.0934" id="Fill-21" fill="#FFFFFF"></path>
                    <line x1="7.1291" y1="151.7316" x2="0.4911" y2="186.8906" id="Stroke-23" stroke="#FFFFFF" stroke-width="1.304" stroke-linecap="round"></line>
                    <path d="M43.6838,148.1681 C43.2928,147.5681 42.6268,147.1621 41.8668,147.1621 C40.6798,147.1621 39.7168,148.1251 39.7168,149.3051 C39.7168,149.6451 39.9268,150.2461 39.9268,150.2461 L45.8628,160.9881 C45.8628,160.9881 46.2318,161.7271 46.2318,162.4071 L46.2318,185.4701 L46.2388,185.4701 C46.2388,187.0771 47.5348,188.3731 49.1418,188.3731 C50.7488,188.3731 52.0378,187.0771 52.0378,185.4701 L52.0378,176.3711 C52.0378,176.3711 51.8708,175.0821 52.9058,175.0821 C53.9488,175.0821 53.7888,176.3711 53.7888,176.3711 L53.7888,185.4701 C53.7888,187.0771 55.0848,188.3731 56.6918,188.3731 C58.2988,188.3731 59.5948,187.0771 59.5948,185.4701 L59.5948,162.4071 C59.5948,161.7271 59.9568,160.9881 59.9568,160.9881 L65.4438,151.0711 C65.4438,151.0711 66.1168,149.6451 66.1168,149.3051 C66.1168,148.1251 65.1538,147.1621 63.9668,147.1621 C63.1928,147.1621 62.5338,147.5681 62.1578,148.1681 L62.1278,148.1611 C61.9548,148.3061 59.2108,153.1991 58.3068,154.1041 C57.3438,155.0741 56.4898,154.9661 56.4898,154.9661 L52.9058,154.9661 L49.3448,154.9661 C49.3448,154.9661 48.4828,155.0741 47.5278,154.1041 C46.6078,153.1991 43.8718,148.3061 43.6988,148.1611 L43.6838,148.1681 Z" id="Fill-25" fill="#FFFFFF"></path>
                    <path d="M52.9098,151.2545 C56.1668,151.2545 58.7948,148.6195 58.7948,145.3625 C58.7948,142.1045 56.1668,139.4835 52.9098,139.4835 C49.6598,139.4835 47.0318,142.1045 47.0318,145.3625 C47.0318,148.6195 49.6598,151.2545 52.9098,151.2545" id="Fill-27" fill="#FFFFFF"></path>
                    <polygon id="Fill-29" fill="#FFFFFF" points="52.9235 159.5182 59.5755 164.3752 62.7325 176.0162 52.9235 176.0162 43.1005 176.0162 46.2635 164.3752"></polygon>
                    <polygon id="Fill-31" fill="#FFFFFF" points="49.3249 0.9718 58.4679 0.9718 58.4679 4.0988 53.1549 4.0988 53.1549 10.6208 56.9549 10.6208 56.9549 13.7118 53.1549 13.7118 53.1549 20.6398 58.4679 20.6398 58.4679 23.7668 49.3249 23.7668"></polygon>
                    <path d="M64.1847,4.0993 L64.1847,11.1933 L65.4657,11.1933 C66.7687,11.1933 67.3487,10.5203 67.3487,9.3113 L67.3487,5.9453 C67.3487,4.7003 66.7687,4.0993 65.4657,4.0993 L64.1847,4.0993 Z M64.1847,13.3073 L64.1847,23.7673 L60.3557,23.7673 L60.3557,0.9733 L65.9297,0.9733 C69.7947,0.9733 71.2137,2.8903 71.2137,6.0833 L71.2137,9.0073 C71.2137,11.4613 70.3377,12.9093 68.1517,13.4083 L71.8147,23.7673 L67.7827,23.7673 L64.1847,13.3073 Z" id="Fill-33" fill="#FFFFFF"></path>
                    <path d="M76.9587,4.0993 L76.9587,11.1933 L78.2397,11.1933 C79.5427,11.1933 80.1217,10.5203 80.1217,9.3113 L80.1217,5.9453 C80.1217,4.7003 79.5427,4.0993 78.2397,4.0993 L76.9587,4.0993 Z M76.9587,13.3073 L76.9587,23.7673 L73.1287,23.7673 L73.1287,0.9733 L78.7027,0.9733 C82.5687,0.9733 83.9877,2.8903 83.9877,6.0833 L83.9877,9.0073 C83.9877,11.4613 83.1117,12.9093 80.9257,13.4083 L84.5877,23.7673 L80.5567,23.7673 L76.9587,13.3073 Z" id="Fill-35" fill="#FFFFFF"></path>
                    <path d="M90.1008,16.5377 L93.1628,16.5377 L91.6498,7.3957 L91.6138,7.3957 L90.1008,16.5377 Z M85.2938,23.7697 L89.6008,0.9747 L93.9658,0.9747 L98.3018,23.7697 L94.3718,23.7697 L93.6618,19.5927 L89.6008,19.5927 L88.9278,23.7697 L85.2938,23.7697 Z" id="Fill-37" fill="#FFFFFF"></path>
                    <path d="M105.1574,20.6378 C106.7424,20.6378 107.3504,19.6978 107.3504,18.3218 L107.3504,6.3848 C107.3504,5.0388 106.7424,4.0978 105.1574,4.0978 L103.5434,4.0978 L103.5434,20.6378 L105.1574,20.6378 Z M111.1724,7.0878 L111.1724,17.6488 C111.1724,21.1448 109.7324,23.7648 105.6274,23.7648 L99.7134,23.7648 L99.7134,0.9708 L105.6274,0.9708 C109.7324,0.9708 111.1724,3.5618 111.1724,7.0878 L111.1724,7.0878 Z" id="Fill-39" fill="#FFFFFF"></path>
                    <polygon id="Fill-41" fill="#FFFFFF" points="113.193 23.764 117.023 23.764 117.023 0.969 113.193 0.969"></polygon>
                    <path d="M119.0768,17.8805 L119.0768,6.8565 C119.0768,3.2945 120.7558,0.7035 124.7878,0.7035 C129.0298,0.7035 130.2028,3.0555 130.2028,6.4225 L130.2028,9.1075 L126.7068,9.1075 L126.7068,6.1175 C126.7068,4.7065 126.2358,3.8955 124.8608,3.8955 C123.4778,3.8955 122.9058,4.8725 122.9058,6.2555 L122.9058,18.4815 C122.9058,19.8645 123.4778,20.8415 124.8608,20.8415 C126.2358,20.8415 126.7068,19.9655 126.7068,18.6265 L126.7068,14.4205 L130.2028,14.4205 L130.2028,18.3515 C130.2028,21.6165 128.8638,24.0335 124.7878,24.0335 C120.7558,24.0335 119.0768,21.4135 119.0768,17.8805" id="Fill-43" fill="#FFFFFF"></path>
                    <path d="M135.986,16.5377 L139.048,16.5377 L137.535,7.3957 L137.499,7.3957 L135.986,16.5377 Z M131.179,23.7697 L135.479,0.9747 L139.851,0.9747 L144.188,23.7697 L140.257,23.7697 L139.548,19.5927 L135.479,19.5927 L134.813,23.7697 L131.179,23.7697 Z" id="Fill-44" fill="#FFFFFF"></path>
                    <path d="M149.4313,4.0993 L149.4313,11.1933 L150.7123,11.1933 C152.0153,11.1933 152.5953,10.5203 152.5953,9.3113 L152.5953,5.9453 C152.5953,4.7003 152.0153,4.0993 150.7123,4.0993 L149.4313,4.0993 Z M149.4313,13.3073 L149.4313,23.7673 L145.6023,23.7673 L145.6023,0.9733 L151.1763,0.9733 C155.0413,0.9733 156.4603,2.8903 156.4603,6.0833 L156.4603,9.0073 C156.4603,11.4613 155.5843,12.9093 153.3983,13.4083 L157.0613,23.7673 L153.0293,23.7673 L149.4313,13.3073 Z" id="Fill-45" fill="#FFFFFF"></path>
                    <path d="M53.5314,48.2496 L56.5864,48.2496 L55.0734,39.1076 L55.0374,39.1076 L53.5314,48.2496 Z M48.7244,55.4816 L53.0244,32.6866 L57.3894,32.6866 L61.7334,55.4816 L57.7954,55.4816 L57.0854,51.3126 L53.0244,51.3126 L52.3514,55.4816 L48.7244,55.4816 Z" id="Fill-46" fill="#FFFFFF"></path>
                    <path d="M70.3351,35.8121 L70.3351,44.7891 L71.7471,44.7891 C73.0641,44.7891 73.6281,44.1511 73.6281,42.9061 L73.6281,37.6661 C73.6281,36.4201 73.0641,35.8121 71.7471,35.8121 L70.3351,35.8121 Z M66.5051,32.6851 L72.1881,32.6851 C76.0531,32.6851 77.4581,34.6031 77.4581,37.7951 L77.4581,42.6021 C77.4581,45.7941 76.0531,47.7491 72.1881,47.7491 L70.3351,47.7491 L70.3351,55.4801 L66.5051,55.4801 L66.5051,32.6851 Z" id="Fill-47" fill="#FFFFFF"></path>
                    <path d="M87.0392,50.2003 L87.0392,37.9673 C87.0392,36.5843 86.4382,35.6073 85.0632,35.6073 C83.7162,35.6073 83.1082,36.5843 83.1082,37.9673 L83.1082,50.2003 C83.1082,51.5753 83.7162,52.5533 85.0632,52.5533 C86.4382,52.5533 87.0392,51.5753 87.0392,50.2003 M79.2792,49.5993 L79.2792,38.5673 C79.2792,35.0063 81.0232,32.4143 85.0632,32.4143 C89.1242,32.4143 90.8752,35.0063 90.8752,38.5673 L90.8752,49.5993 C90.8752,53.1253 89.1242,55.7453 85.0632,55.7453 C81.0232,55.7453 79.2792,53.1253 79.2792,49.5993" id="Fill-48" fill="#FFFFFF"></path>
                    <path d="M96.7243,45.2238 L96.7243,52.3538 L98.4033,52.3538 C99.6773,52.3538 100.2853,51.7098 100.2853,50.5008 L100.2853,47.0698 C100.2853,45.8608 99.7133,45.2238 98.3743,45.2238 L96.7243,45.2238 Z M96.7243,42.2998 L98.0703,42.2998 C99.3083,42.2998 99.8873,41.6628 99.8873,40.4528 L99.8873,37.6668 C99.8873,36.4218 99.3083,35.8128 98.0343,35.8128 L96.7243,35.8128 L96.7243,42.2998 Z M92.8943,32.6858 L98.4323,32.6858 C102.2693,32.6858 103.5433,34.4668 103.5433,37.6958 L103.5433,40.0118 C103.5433,41.9308 102.8413,43.1398 101.2633,43.6458 C103.1813,44.0798 104.1153,45.3618 104.1153,47.4458 L104.1153,50.4728 C104.1153,53.6938 102.6673,55.4818 98.8453,55.4818 L92.8943,55.4818 L92.8943,32.6858 Z" id="Fill-49" fill="#FFFFFF"></path>
                    <path d="M109.696,35.8121 L109.696,42.9061 L110.977,42.9061 C112.287,42.9061 112.86,42.2331 112.86,41.0241 L112.86,37.6661 C112.86,36.4201 112.287,35.8121 110.977,35.8121 L109.696,35.8121 Z M109.696,45.0201 L109.696,55.4801 L105.867,55.4801 L105.867,32.6851 L111.448,32.6851 C115.306,32.6851 116.725,34.6031 116.725,37.7951 L116.725,40.7201 C116.725,43.1741 115.849,44.6221 113.663,45.1281 L117.333,55.4801 L113.294,55.4801 L109.696,45.0201 Z" id="Fill-50" fill="#FFFFFF"></path>
                    <polygon id="Fill-51" fill="#FFFFFF" points="118.6384 32.6871 127.7874 32.6871 127.7874 35.8141 122.4674 35.8141 122.4674 42.3361 126.2754 42.3361 126.2754 45.4271 122.4674 45.4271 122.4674 52.3551 127.7874 52.3551 127.7874 55.4751 118.6384 55.4751"></polygon>
                    <polygon id="Fill-52" fill="#FFFFFF" points="133.3986 52.3532 139.2186 52.3532 139.2186 55.4802 129.3956 55.4802 129.3956 52.3532 135.4116 35.8132 129.9966 35.8132 129.9966 32.6862 139.4506 32.6862 139.4506 35.8132"></polygon>
                    <path d="M145.3312,48.2496 L148.3932,48.2496 L146.8802,39.1076 L146.8442,39.1076 L145.3312,48.2496 Z M140.5242,55.4816 L144.8312,32.6866 L149.1972,32.6866 L153.5332,55.4816 L149.6022,55.4816 L148.8932,51.3126 L144.8312,51.3126 L144.1582,55.4816 L140.5242,55.4816 Z" id="Fill-53" fill="#FFFFFF"></path>
                    <polygon id="Fill-2" fill="#FFFFFF" points="9.6672 14.4904 9.7542 14.4904 9.7542 56.1364 18.8892 56.1364 18.8892 1.7294 11.5922 1.7294 3.1742 11.6024 3.1742 21.1434 3.2462 21.1434"></polygon>
                </g>
            </g>
        </g>
    </g>
</svg>