<?xml version="1.0" encoding="UTF-8"?>
<svg width="270px" height="270px" viewBox="0 0 270 270" version="1.1" xmlns="http://www.w3.org/2000/svg" xmlns:xlink="http://www.w3.org/1999/xlink">
    <title>ODS10</title>
    <g id="Page-1" stroke="none" stroke-width="1" fill="none" fill-rule="evenodd">
        <g id="ODS_10_detalhe_img1" transform="translate(-576.000000, -304.000000)">
            <g id="ODS10" transform="translate(576.000000, 304.000000)">
                <polygon id="Fill-1" fill="#DD1367" points="0 270 270 270 270 0 0 0"></polygon>
                <polygon id="Fill-2" fill="#FFFFFF" points="26.9294 36.0558 26.9294 77.5988 36.0584 77.5988 36.0584 23.3298 28.7684 23.3298 20.3644 33.1748 20.3644 42.7008 20.4444 42.7008 26.8424 36.0558"></polygon>
                <path d="M51.5017,65.0348 L51.5017,35.8988 C51.5017,32.6128 52.7037,30.2968 55.8227,30.2968 C59.0227,30.2968 60.2247,32.6128 60.2247,35.8988 L60.2247,65.0348 C60.2247,68.3218 59.0227,70.6388 55.8227,70.6388 C52.7037,70.6388 51.5017,68.3218 51.5017,65.0348 M69.3537,63.5948 L69.3537,37.3328 C69.3537,28.8488 65.1107,22.6878 55.8227,22.6878 C46.6157,22.6878 42.3737,28.8488 42.3737,37.3328 L42.3737,63.5948 C42.3737,71.9988 46.6157,78.2458 55.8227,78.2458 C65.1107,78.2458 69.3537,71.9988 69.3537,63.5948" id="Fill-3" fill="#FFFFFF"></path>
                <path d="M159.4265,179.1882 L109.3775,179.1882 C109.0805,179.1882 108.8345,179.4632 108.8345,179.7962 L108.8345,194.8382 C108.8345,195.1782 109.0805,195.4472 109.3775,195.4472 L159.4265,195.4472 C159.7315,195.4472 159.9775,195.1782 159.9775,194.8382 L159.9775,179.7962 C159.9775,179.4632 159.7315,179.1882 159.4265,179.1882" id="Fill-5" fill="#FFFFFF"></path>
                <path d="M159.4265,147.1823 L109.3775,147.1823 C109.0805,147.1823 108.8345,147.4573 108.8345,147.7903 L108.8345,162.8323 C108.8345,163.1733 109.0805,163.4413 109.3775,163.4413 L159.4265,163.4413 C159.7315,163.4413 159.9775,163.1733 159.9775,162.8323 L159.9775,147.7903 C159.9775,147.4573 159.7315,147.1823 159.4265,147.1823" id="Fill-7" fill="#FFFFFF"></path>
                <path d="M158.7205,124.4479 L134.7015,100.4229 C134.5355,100.2629 134.2755,100.2629 134.1165,100.4229 L110.0895,124.4479 C109.8295,124.7089 110.0105,125.1579 110.3795,125.1579 L158.4305,125.1579 C158.7995,125.1579 158.9815,124.7089 158.7205,124.4479" id="Fill-9" fill="#FFFFFF"></path>
                <path d="M181.2781,195.6305 L205.2971,171.6115 C205.4631,171.4455 205.4631,171.1855 205.2971,171.0265 L181.2781,147.0005 C181.0171,146.7395 180.5611,146.9215 180.5611,147.2895 L180.5611,195.3345 C180.5611,195.7105 181.0171,195.8915 181.2781,195.6305" id="Fill-11" fill="#FFFFFF"></path>
                <path d="M110.0916,218.1852 L134.1106,242.2042 C134.2766,242.3702 134.5366,242.3702 134.6956,242.2042 L158.7216,218.1852 C158.9826,217.9242 158.8016,217.4762 158.4326,217.4762 L110.3806,217.4762 C110.0116,217.4762 109.8306,217.9242 110.0916,218.1852" id="Fill-13" fill="#FFFFFF"></path>
                <path d="M87.5408,146.9977 L63.5158,171.0237 C63.3558,171.1837 63.3558,171.4437 63.5158,171.6097 L87.5408,195.6287 C87.8018,195.8897 88.2508,195.7077 88.2508,195.3397 L88.2508,147.2947 C88.2508,146.9187 87.8018,146.7377 87.5408,146.9977" id="Fill-15" fill="#FFFFFF"></path>
                <path d="M91.6902,26.5402 L91.6902,33.6052 L92.9712,33.6052 C94.2672,33.6052 94.8462,32.9392 94.8462,31.7302 L94.8462,28.3792 C94.8462,27.1412 94.2672,26.5402 92.9712,26.5402 L91.6902,26.5402 Z M91.6902,35.7192 L91.6902,46.1282 L87.8822,46.1282 L87.8822,23.4272 L93.4352,23.4272 C97.2862,23.4272 98.6982,25.3312 98.6982,28.5162 L98.6982,31.4262 C98.6982,33.8732 97.8292,35.3132 95.6422,35.8132 L99.2982,46.1282 L95.2732,46.1282 L91.6902,35.7192 Z" id="Fill-17" fill="#FFFFFF"></path>
                <polygon id="Fill-19" fill="#FFFFFF" points="100.6052 23.4255 109.7182 23.4255 109.7182 26.5385 104.4192 26.5385 104.4192 33.0385 108.2122 33.0385 108.2122 36.1155 104.4192 36.1155 104.4192 43.0145 109.7182 43.0145 109.7182 46.1265 100.6052 46.1265"></polygon>
                <path d="M117.0193,43.0143 C118.5893,43.0143 119.1983,42.0803 119.1983,40.7053 L119.1983,28.8193 C119.1983,27.4803 118.5893,26.5393 117.0193,26.5393 L115.4053,26.5393 L115.4053,43.0143 L117.0193,43.0143 Z M123.0123,29.5223 L123.0123,40.0333 C123.0123,43.5143 121.5723,46.1273 117.4823,46.1273 L111.5893,46.1273 L111.5893,23.4263 L117.4823,23.4263 C121.5723,23.4263 123.0123,26.0033 123.0123,29.5223 L123.0123,29.5223 Z" id="Fill-21" fill="#FFFFFF"></path>
                <path d="M136.113,23.4255 L136.113,40.6045 C136.113,44.1215 134.599,46.3955 130.719,46.3955 C126.702,46.3955 125.03,44.1215 125.03,40.6045 L125.03,23.4255 L128.844,23.4255 L128.844,40.9725 C128.844,42.3125 129.381,43.2165 130.719,43.2165 C132.051,43.2165 132.594,42.3125 132.594,40.9725 L132.594,23.4255 L136.113,23.4255 Z" id="Fill-23" fill="#FFFFFF"></path>
                <polygon id="Fill-25" fill="#FFFFFF" points="141.6765 43.0143 147.4745 43.0143 147.4745 46.1273 137.6885 46.1273 137.6885 43.0143 143.6815 26.5393 138.2955 26.5393 138.2955 23.4263 147.7065 23.4263 147.7065 26.5393"></polygon>
                <polygon id="Fill-27" fill="#FFFFFF" points="149.553 46.125 153.368 46.125 153.368 23.425 149.553 23.425"></polygon>
                <path d="M159.2292,26.5402 L159.2292,33.6052 L160.5032,33.6052 C161.8062,33.6052 162.3772,32.9392 162.3772,31.7302 L162.3772,28.3792 C162.3772,27.1412 161.8062,26.5402 160.5032,26.5402 L159.2292,26.5402 Z M159.2292,35.7192 L159.2292,46.1282 L155.4152,46.1282 L155.4152,23.4272 L160.9732,23.4272 C164.8172,23.4272 166.2292,25.3312 166.2292,28.5162 L166.2292,31.4262 C166.2292,33.8732 165.3602,35.3132 163.1812,35.8132 L166.8372,46.1282 L162.8122,46.1282 L159.2292,35.7192 Z" id="Fill-29" fill="#FFFFFF"></path>
                <path d="M175.6785,38.9284 L178.7265,38.9284 L177.2205,29.8224 L177.1845,29.8224 L175.6785,38.9284 Z M170.8865,46.1314 L175.1795,23.4234 L179.5305,23.4234 L183.8515,46.1314 L179.9275,46.1314 L179.2255,41.9764 L175.1795,41.9764 L174.5055,46.1314 L170.8865,46.1314 Z" id="Fill-30" fill="#FFFFFF"></path>
                <path d="M184.7273,41.2409 L184.7273,38.1929 L188.2743,38.1929 L188.2743,41.3049 C188.2743,42.5799 188.8383,43.3179 190.1493,43.3179 C191.3503,43.3179 191.8863,42.5139 191.8863,41.3049 L191.8863,40.4369 C191.8863,39.1269 191.3503,38.3309 190.1853,37.2229 L187.9343,34.9789 C185.7623,32.8369 184.7563,31.5329 184.7563,28.9199 L184.7563,28.1459 C184.7563,25.3369 186.3923,23.1579 190.1133,23.1579 C193.9273,23.1579 195.4333,25.0329 195.4333,28.3119 L195.4333,30.1579 L191.9583,30.1579 L191.9583,28.1819 C191.9583,26.8789 191.3503,26.2419 190.1493,26.2419 C189.0783,26.2419 188.3393,26.8429 188.3393,28.1159 L188.3393,28.5799 C188.3393,29.8539 189.0483,30.5929 190.1493,31.6629 L192.5953,34.0739 C194.6653,36.1879 195.6793,37.4619 195.6793,39.9669 L195.6793,41.0739 C195.6793,44.1869 193.9993,46.3949 190.1133,46.3949 C186.2333,46.3949 184.7273,44.2229 184.7273,41.2409" id="Fill-31" fill="#FFFFFF"></path>
                <path d="M93.3025,74.6208 C94.8805,74.6208 95.4815,73.6808 95.4815,72.3118 L95.4815,60.4258 C95.4815,59.0798 94.8805,58.1458 93.3025,58.1458 L91.6885,58.1458 L91.6885,74.6208 L93.3025,74.6208 Z M99.2955,61.1288 L99.2955,71.6388 C99.2955,75.1208 97.8555,77.7338 93.7655,77.7338 L87.8805,77.7338 L87.8805,55.0258 L93.7655,55.0258 C97.8555,55.0258 99.2955,57.6098 99.2955,61.1288 L99.2955,61.1288 Z" id="Fill-32" fill="#FFFFFF"></path>
                <polygon id="Fill-33" fill="#FFFFFF" points="101.3113 55.029 110.4173 55.029 110.4173 58.142 105.1263 58.142 105.1263 64.642 108.9123 64.642 108.9123 67.719 105.1263 67.719 105.1263 74.625 110.4173 74.625 110.4173 77.738 101.3113 77.738"></polygon>
                <path d="M111.9294,72.8434 L111.9294,69.7954 L115.4764,69.7954 L115.4764,72.9084 C115.4764,74.1904 116.0484,74.9204 117.3514,74.9204 C118.5604,74.9204 119.0954,74.1164 119.0954,72.9084 L119.0954,72.0394 C119.0954,70.7374 118.5604,69.9334 117.3874,68.8254 L115.1434,66.5814 C112.9714,64.4394 111.9654,63.1364 111.9654,60.5234 L111.9654,59.7484 C111.9654,56.9404 113.6014,54.7604 117.3224,54.7604 C121.1374,54.7604 122.6434,56.6354 122.6434,59.9214 L122.6434,61.7604 L119.1604,61.7604 L119.1604,59.7844 C119.1604,58.4824 118.5604,57.8444 117.3514,57.8444 C116.2864,57.8444 115.5484,58.4454 115.5484,59.7194 L115.5484,60.1824 C115.5484,61.4564 116.2504,62.1954 117.3514,63.2664 L119.7974,65.6764 C121.8754,67.7904 122.8814,69.0644 122.8814,71.5764 L122.8814,72.6774 C122.8814,75.7894 121.2014,78.0044 117.3224,78.0044 C113.4354,78.0044 111.9294,75.8254 111.9294,72.8434" id="Fill-34" fill="#FFFFFF"></path>
                <polygon id="Fill-35" fill="#FFFFFF" points="124.724 77.738 128.539 77.738 128.539 55.03 124.724 55.03"></polygon>
                <path d="M136.3464,65.612 L141.7764,65.612 L141.7764,77.737 L139.0254,77.737 L139.0254,75.261 C138.5254,76.963 137.4474,78.005 135.3764,78.005 C132.0974,78.005 130.5844,75.391 130.5844,71.874 L130.5844,60.892 C130.5844,57.339 132.2924,54.761 136.3174,54.761 C140.5314,54.761 141.7764,57.106 141.7764,60.458 L141.7764,62.463 L138.2934,62.463 L138.2934,60.154 C138.2934,58.75 137.7504,57.946 136.3824,57.946 C135.0074,57.946 134.3994,58.916 134.3994,60.292 L134.3994,72.474 C134.3994,73.849 134.9784,74.82 136.2824,74.82 C137.5194,74.82 138.1564,74.118 138.1564,72.648 L138.1564,68.631 L136.3464,68.631 L136.3464,65.612 Z" id="Fill-36" fill="#FFFFFF"></path>
                <path d="M154.8748,55.029 L154.8748,72.215 C154.8748,75.725 153.3608,78.006 149.4808,78.006 C145.4568,78.006 143.7918,75.725 143.7918,72.215 L143.7918,55.029 L147.6058,55.029 L147.6058,72.576 C147.6058,73.916 148.1358,74.82 149.4808,74.82 C150.8128,74.82 151.3558,73.916 151.3558,72.576 L151.3558,55.029 L154.8748,55.029 Z" id="Fill-37" fill="#FFFFFF"></path>
                <path d="M160.572,70.5348 L163.62,70.5348 L162.114,61.4288 L162.078,61.4288 L160.572,70.5348 Z M155.78,77.7378 L160.073,55.0288 L164.416,55.0288 L168.737,77.7378 L164.821,77.7378 L164.119,73.5828 L160.073,73.5828 L159.399,77.7378 L155.78,77.7378 Z" id="Fill-38" fill="#FFFFFF"></path>
                <polygon id="Fill-39" fill="#FFFFFF" points="170.1511 55.029 173.9651 55.029 173.9651 74.625 178.5261 74.625 178.5261 77.738 170.1511 77.738"></polygon>
                <path d="M185.5261,74.6208 C187.1041,74.6208 187.7051,73.6808 187.7051,72.3118 L187.7051,60.4258 C187.7051,59.0798 187.1041,58.1458 185.5261,58.1458 L183.9201,58.1458 L183.9201,74.6208 L185.5261,74.6208 Z M191.5201,61.1288 L191.5201,71.6388 C191.5201,75.1208 190.0801,77.7338 185.9901,77.7338 L180.1041,77.7338 L180.1041,55.0258 L185.9901,55.0258 C190.0801,55.0258 191.5201,57.6098 191.5201,61.1288 L191.5201,61.1288 Z" id="Fill-40" fill="#FFFFFF"></path>
                <path d="M197.2185,70.5348 L200.2665,70.5348 L198.7605,61.4288 L198.7245,61.4288 L197.2185,70.5348 Z M192.4335,77.7378 L196.7195,55.0288 L201.0705,55.0288 L205.3915,77.7378 L201.4755,77.7378 L200.7655,73.5828 L196.7195,73.5828 L196.0455,77.7378 L192.4335,77.7378 Z" id="Fill-41" fill="#FFFFFF"></path>
                <path d="M212.2273,74.6208 C213.8043,74.6208 214.4063,73.6808 214.4063,72.3118 L214.4063,60.4258 C214.4063,59.0798 213.8043,58.1458 212.2273,58.1458 L210.6203,58.1458 L210.6203,74.6208 L212.2273,74.6208 Z M218.2203,61.1288 L218.2203,71.6388 C218.2203,75.1208 216.7803,77.7338 212.6903,77.7338 L206.8053,77.7338 L206.8053,55.0258 L212.6903,55.0258 C216.7803,55.0258 218.2203,57.6098 218.2203,61.1288 L218.2203,61.1288 Z" id="Fill-42" fill="#FFFFFF"></path>
                <polygon id="Fill-43" fill="#FFFFFF" points="220.2361 55.029 229.3491 55.029 229.3491 58.142 224.0501 58.142 224.0501 64.642 227.8371 64.642 227.8371 67.719 224.0501 67.719 224.0501 74.625 229.3491 74.625 229.3491 77.738 220.2361 77.738"></polygon>
                <path d="M230.8542,72.8434 L230.8542,69.7954 L234.4012,69.7954 L234.4012,72.9084 C234.4012,74.1904 234.9722,74.9204 236.2832,74.9204 C237.4842,74.9204 238.0202,74.1164 238.0202,72.9084 L238.0202,72.0394 C238.0202,70.7374 237.4842,69.9334 236.3122,68.8254 L234.0682,66.5814 C231.8962,64.4394 230.8892,63.1364 230.8892,60.5234 L230.8892,59.7484 C230.8892,56.9404 232.5262,54.7604 236.2472,54.7604 C240.0612,54.7604 241.5672,56.6354 241.5672,59.9214 L241.5672,61.7604 L238.0852,61.7604 L238.0852,59.7844 C238.0852,58.4824 237.4842,57.8444 236.2832,57.8444 C235.2112,57.8444 234.4732,58.4454 234.4732,59.7194 L234.4732,60.1824 C234.4732,61.4564 235.1752,62.1954 236.2832,63.2664 L238.7222,65.6764 C240.7992,67.7904 241.8062,69.0644 241.8062,71.5764 L241.8062,72.6774 C241.8062,75.7894 240.1262,78.0044 236.2472,78.0044 C232.3592,78.0044 230.8542,75.8254 230.8542,72.8434" id="Fill-44" fill="#FFFFFF"></path>
            </g>
        </g>
    </g>
</svg>