<?xml version="1.0" encoding="UTF-8"?>
<svg width="270px" height="270px" viewBox="0 0 270 270" version="1.1" xmlns="http://www.w3.org/2000/svg" xmlns:xlink="http://www.w3.org/1999/xlink">
    <title>ODS11</title>
    <g id="Page-1" stroke="none" stroke-width="1" fill="none" fill-rule="evenodd">
        <g id="ODS_11_detalhe_img1" transform="translate(-576.000000, -304.000000)">
            <g id="ODS11" transform="translate(576.000000, 304.000000)">
                <polygon id="Fill-1" fill="#FD9D24" points="0 269.841 269.834 269.841 269.834 0 0 0"></polygon>
                <g id="Group-43" transform="translate(19.000000, 20.841000)" fill="#FFFFFF">
                    <path d="M55.2149,18.049 L55.2149,7.025 C55.2149,3.464 56.8939,0.872 60.9329,0.872 C65.1679,0.872 66.3399,3.224 66.3399,6.591 L66.3399,9.276 L62.8519,9.276 L62.8519,6.286 C62.8519,4.875 62.3739,4.065 60.9979,4.065 C59.6149,4.065 59.0439,5.041 59.0439,6.424 L59.0439,18.657 C59.0439,20.033 59.6149,21.011 60.9979,21.011 C62.3739,21.011 62.8519,20.134 62.8519,18.795 L62.8519,14.59 L66.3399,14.59 L66.3399,18.52 C66.3399,21.785 65.0009,24.202 60.9329,24.202 C56.8939,24.202 55.2149,21.582 55.2149,18.049" id="Fill-4"></path>
                    <polygon id="Fill-6" points="68.257 23.931 72.086 23.931 72.086 1.143 68.257 1.143"></polygon>
                    <path d="M79.5889,20.8058 C81.1669,20.8058 81.7759,19.8658 81.7759,18.4898 L81.7759,6.5528 C81.7759,5.2068 81.1669,4.2648 79.5889,4.2648 L77.9749,4.2648 L77.9749,20.8058 L79.5889,20.8058 Z M85.6049,7.2628 L85.6049,17.8168 C85.6049,21.3128 84.1639,23.9328 80.0519,23.9328 L74.1459,23.9328 L74.1459,1.1458 L80.0519,1.1458 C84.1639,1.1458 85.6049,3.7298 85.6049,7.2628 L85.6049,7.2628 Z" id="Fill-8"></path>
                    <path d="M91.3233,16.7062 L94.3783,16.7062 L92.8653,7.5632 L92.8293,7.5632 L91.3233,16.7062 Z M86.5163,23.9372 L90.8163,1.1432 L95.1813,1.1432 L99.5243,23.9372 L95.5873,23.9372 L94.8853,19.7682 L90.8163,19.7682 L90.1423,23.9372 L86.5163,23.9372 Z" id="Fill-9"></path>
                    <path d="M106.3809,20.8058 C107.9579,20.8058 108.5669,19.8658 108.5669,18.4898 L108.5669,6.5528 C108.5669,5.2068 107.9579,4.2648 106.3809,4.2648 L104.7589,4.2648 L104.7589,20.8058 L106.3809,20.8058 Z M112.3959,7.2628 L112.3959,17.8168 C112.3959,21.3128 110.9479,23.9328 106.8439,23.9328 L100.9299,23.9328 L100.9299,1.1458 L106.8439,1.1458 C110.9479,1.1458 112.3959,3.7298 112.3959,7.2628 L112.3959,7.2628 Z" id="Fill-10"></path>
                    <polygon id="Fill-11" points="114.4112 1.1432 123.5612 1.1432 123.5612 4.2702 118.2402 4.2702 118.2402 10.7922 122.0482 10.7922 122.0482 13.8832 118.2402 13.8832 118.2402 20.8042 123.5612 20.8042 123.5612 23.9312 114.4112 23.9312"></polygon>
                    <path d="M125.0723,19.0246 L125.0723,15.9696 L128.6333,15.9696 L128.6333,19.0896 C128.6333,20.3716 129.2053,21.1096 130.5153,21.1096 C131.7243,21.1096 132.2593,20.3056 132.2593,19.0896 L132.2593,18.2206 C132.2593,16.9106 131.7243,16.1006 130.5513,14.9926 L128.2933,12.7416 C126.1143,10.5846 125.1083,9.2746 125.1083,6.6536 L125.1083,5.8866 C125.1083,3.0556 126.7443,0.8776 130.4793,0.8776 C134.3083,0.8776 135.8213,2.7516 135.8213,6.0526 L135.8213,7.8986 L132.3323,7.8986 L132.3323,5.9156 C132.3323,4.6056 131.7243,3.9676 130.5153,3.9676 C129.4443,3.9676 128.6983,4.5686 128.6983,5.8506 L128.6983,6.3206 C128.6983,7.5946 129.4083,8.3326 130.5153,9.4116 L132.9693,11.8296 C135.0533,13.9506 136.0673,15.2316 136.0673,17.7516 L136.0673,18.8586 C136.0673,21.9856 134.3813,24.2006 130.4793,24.2006 C126.5853,24.2006 125.0723,22.0216 125.0723,19.0246" id="Fill-12"></path>
                    <polygon id="Fill-13" points="141.2735 1.1432 150.4165 1.1432 150.4165 4.2702 145.1035 4.2702 145.1035 10.7922 148.9035 10.7922 148.9035 13.8832 145.1035 13.8832 145.1035 20.8042 150.4165 20.8042 150.4165 23.9312 141.2735 23.9312"></polygon>
                    <path d="M55.2149,49.7648 L55.2149,38.7408 C55.2149,35.1708 56.8939,32.5868 60.9329,32.5868 C65.1679,32.5868 66.3399,34.9398 66.3399,38.3058 L66.3399,40.9918 L62.8519,40.9918 L62.8519,38.0008 C62.8519,36.5898 62.3739,35.7798 60.9979,35.7798 C59.6149,35.7798 59.0439,36.7568 59.0439,38.1318 L59.0439,50.3658 C59.0439,51.7478 59.6149,52.7258 60.9979,52.7258 C62.3739,52.7258 62.8519,51.8498 62.8519,50.5028 L62.8519,46.3048 L66.3399,46.3048 L66.3399,50.2358 C66.3399,53.4998 65.0009,55.9178 60.9329,55.9178 C56.8939,55.9178 55.2149,53.2968 55.2149,49.7648" id="Fill-14"></path>
                    <path d="M76.0264,50.3693 L76.0264,38.1363 C76.0264,36.7613 75.4184,35.7833 74.0434,35.7833 C72.6964,35.7833 72.0884,36.7613 72.0884,38.1363 L72.0884,50.3693 C72.0884,51.7443 72.6964,52.7223 74.0434,52.7223 C75.4184,52.7223 76.0264,51.7443 76.0264,50.3693 M68.2584,49.7683 L68.2584,38.7443 C68.2584,35.1753 70.0104,32.5833 74.0434,32.5833 C78.1104,32.5833 79.8554,35.1753 79.8554,38.7443 L79.8554,49.7683 C79.8554,53.2943 78.1104,55.9213 74.0434,55.9213 C70.0104,55.9213 68.2584,53.2943 68.2584,49.7683" id="Fill-15"></path>
                    <polygon id="Fill-16" points="92.4268 40.8576 92.3248 40.8576 89.7398 55.6466 87.9598 55.6466 85.1008 40.8576 85.0348 40.8576 85.0348 55.6466 81.8718 55.6466 81.8718 32.8586 86.3458 32.8586 88.8358 45.6926 88.8648 45.6926 91.0798 32.8586 95.9228 32.8586 95.9228 55.6466 92.4268 55.6466"></polygon>
                    <path d="M109.0665,32.8556 L109.0665,50.0976 C109.0665,53.6306 107.5535,55.9176 103.6595,55.9176 C99.6205,55.9176 97.9405,53.6306 97.9405,50.0976 L97.9405,32.8556 L101.7705,32.8556 L101.7705,50.4746 C101.7705,51.8136 102.3125,52.7256 103.6595,52.7256 C104.9995,52.7256 105.5415,51.8136 105.5415,50.4746 L105.5415,32.8556 L109.0665,32.8556 Z" id="Fill-17"></path>
                    <polygon id="Fill-18" points="114.3126 41.3273 114.3126 55.6463 111.0906 55.6463 111.0906 32.8583 114.8476 32.8583 118.9886 45.9313 118.9886 32.8583 122.1806 32.8583 122.1806 55.6463 118.8146 55.6463"></polygon>
                    <polygon id="Fill-19" points="124.198 55.644 128.027 55.644 128.027 32.857 124.198 32.857"></polygon>
                    <path d="M135.5274,52.5216 C137.1044,52.5216 137.7134,51.5816 137.7134,50.2056 L137.7134,38.2686 C137.7134,36.9216 137.1044,35.9816 135.5274,35.9816 L133.9054,35.9816 L133.9054,52.5216 L135.5274,52.5216 Z M141.5424,38.9706 L141.5424,49.5326 C141.5424,53.0216 140.0944,55.6486 135.9904,55.6486 L130.0764,55.6486 L130.0764,32.8536 L135.9904,32.8536 C140.0944,32.8536 141.5424,35.4456 141.5424,38.9706 L141.5424,38.9706 Z" id="Fill-20"></path>
                    <path d="M147.2549,48.422 L150.3169,48.422 L148.8039,39.279 L148.7679,39.279 L147.2549,48.422 Z M142.4479,55.647 L146.7549,32.859 L151.1199,32.859 L155.4629,55.647 L151.5259,55.647 L150.8159,51.477 L146.7549,51.477 L146.0819,55.647 L142.4479,55.647 Z" id="Fill-21"></path>
                    <path d="M162.3194,52.5216 C163.8974,52.5216 164.5054,51.5816 164.5054,50.2056 L164.5054,38.2686 C164.5054,36.9216 163.8974,35.9816 162.3194,35.9816 L160.6974,35.9816 L160.6974,52.5216 L162.3194,52.5216 Z M168.3354,38.9706 L168.3354,49.5326 C168.3354,53.0216 166.8864,55.6486 162.7824,55.6486 L156.8684,55.6486 L156.8684,32.8536 L162.7824,32.8536 C166.8864,32.8536 168.3354,35.4456 168.3354,38.9706 L168.3354,38.9706 Z" id="Fill-22"></path>
                    <polygon id="Fill-23" points="170.3497 32.8556 179.4987 32.8556 179.4987 35.9826 174.1787 35.9826 174.1787 42.5046 177.9867 42.5046 177.9867 45.5956 174.1787 45.5956 174.1787 52.5236 179.4987 52.5236 179.4987 55.6426 170.3497 55.6426"></polygon>
                    <path d="M181.003,50.7404 L181.003,47.6784 L184.571,47.6784 L184.571,50.8054 C184.571,52.0874 185.136,52.8254 186.453,52.8254 C187.662,52.8254 188.198,52.0144 188.198,50.8054 L188.198,49.9364 C188.198,48.6264 187.662,47.8154 186.489,46.7084 L184.232,44.4504 C182.052,42.3004 181.039,40.9894 181.039,38.3694 L181.039,37.5944 C181.039,34.7714 182.682,32.5854 186.417,32.5854 C190.246,32.5854 191.76,34.4684 191.76,37.7684 L191.76,39.6144 L188.271,39.6144 L188.271,37.6314 C188.271,36.3204 187.662,35.6764 186.453,35.6764 C185.375,35.6764 184.637,36.2844 184.637,37.5654 L184.637,38.0364 C184.637,39.3104 185.346,40.0494 186.453,41.1274 L188.907,43.5454 C190.992,45.6664 192.006,46.9404 192.006,49.4664 L192.006,50.5744 C192.006,53.7014 190.319,55.9164 186.417,55.9164 C182.516,55.9164 181.003,53.7294 181.003,50.7404" id="Fill-24"></path>
                    <path d="M55.0157,82.4523 L55.0157,79.3973 L58.5777,79.3973 L58.5777,82.5173 C58.5777,83.7993 59.1497,84.5373 60.4597,84.5373 C61.6687,84.5373 62.2037,83.7333 62.2037,82.5173 L62.2037,81.6483 C62.2037,80.3383 61.6687,79.5273 60.4957,78.4203 L58.2377,76.1693 C56.0587,74.0123 55.0517,72.7013 55.0517,70.0813 L55.0517,69.3133 C55.0517,66.4833 56.6887,64.3053 60.4237,64.3053 C64.2527,64.3053 65.7657,66.1793 65.7657,69.4793 L65.7657,71.3263 L62.2767,71.3263 L62.2767,69.3433 C62.2767,68.0323 61.6687,67.3953 60.4597,67.3953 C59.3887,67.3953 58.6507,67.9963 58.6507,69.2773 L58.6507,69.7483 C58.6507,71.0213 59.3527,71.7603 60.4597,72.8393 L62.9127,75.2573 C64.9977,77.3783 66.0117,78.6593 66.0117,81.1783 L66.0117,82.2863 C66.0117,85.4133 64.3257,87.6283 60.4237,87.6283 C56.5297,87.6283 55.0157,85.4493 55.0157,82.4523" id="Fill-25"></path>
                    <path d="M78.9805,64.5714 L78.9805,81.8134 C78.9805,85.3464 77.4675,87.6334 73.5735,87.6334 C69.5345,87.6334 67.8545,85.3464 67.8545,81.8134 L67.8545,64.5714 L71.6835,64.5714 L71.6835,82.1834 C71.6835,83.5294 72.2195,84.4414 73.5735,84.4414 C74.9125,84.4414 75.4555,83.5294 75.4555,82.1834 L75.4555,64.5714 L78.9805,64.5714 Z" id="Fill-26"></path>
                    <path d="M80.7969,82.4523 L80.7969,79.3973 L84.3589,79.3973 L84.3589,82.5173 C84.3589,83.7993 84.9309,84.5373 86.2479,84.5373 C87.4569,84.5373 87.9919,83.7333 87.9919,82.5173 L87.9919,81.6483 C87.9919,80.3383 87.4569,79.5273 86.2759,78.4203 L84.0259,76.1693 C81.8469,74.0123 80.8329,72.7013 80.8329,70.0813 L80.8329,69.3133 C80.8329,66.4833 82.4769,64.3053 86.2119,64.3053 C90.0409,64.3053 91.5539,66.1793 91.5539,69.4793 L91.5539,71.3263 L88.0579,71.3263 L88.0579,69.3433 C88.0579,68.0323 87.4569,67.3953 86.2479,67.3953 C85.1689,67.3953 84.4309,67.9963 84.4309,69.2773 L84.4309,69.7483 C84.4309,71.0213 85.1409,71.7603 86.2479,72.8393 L88.7019,75.2573 C90.7859,77.3783 91.7929,78.6593 91.7929,81.1783 L91.7929,82.2863 C91.7929,85.4133 90.1069,87.6283 86.2119,87.6283 C82.3099,87.6283 80.7969,85.4493 80.7969,82.4523" id="Fill-27"></path>
                    <polygon id="Fill-28" points="92.7022 64.5714 102.8872 64.5714 102.8872 67.6984 99.7232 67.6984 99.7232 87.3584 95.8652 87.3584 95.8652 67.6984 92.7022 67.6984"></polygon>
                    <polygon id="Fill-29" points="104.501 64.5714 113.644 64.5714 113.644 67.6984 108.33 67.6984 108.33 74.2204 112.13 74.2204 112.13 77.3114 108.33 77.3114 108.33 84.2314 113.644 84.2314 113.644 87.3584 104.501 87.3584"></polygon>
                    <polygon id="Fill-30" points="118.752 73.0392 118.752 87.3652 115.523 87.3652 115.523 64.5702 119.287 64.5702 123.428 77.6432 123.428 64.5702 126.62 64.5702 126.62 87.3652 123.254 87.3652"></polygon>
                    <polygon id="Fill-31" points="128.1964 64.5714 138.3814 64.5714 138.3814 67.6984 135.2244 67.6984 135.2244 87.3584 131.3594 87.3584 131.3594 67.6984 128.1964 67.6984"></polygon>
                    <path d="M142.5186,80.1339 L145.5806,80.1339 L144.0676,70.9909 L144.0316,70.9909 L142.5186,80.1339 Z M147.3246,62.9559 L141.3096,63.7309 L141.3096,61.5809 L147.3246,60.2999 L147.3246,62.9559 Z M137.7116,87.3649 L142.0186,64.5709 L146.3836,64.5709 L150.7196,87.3649 L146.7896,87.3649 L146.0796,83.1969 L142.0186,83.1969 L141.3456,87.3649 L137.7116,87.3649 Z" id="Fill-32"></path>
                    <polygon id="Fill-33" points="162.3829 64.5714 158.0469 87.3584 153.8769 87.3584 149.5489 64.5714 153.4439 64.5714 156.0639 80.4674 156.0999 80.4674 158.7849 64.5714"></polygon>
                    <polygon id="Fill-34" points="163.7969 64.5714 172.9399 64.5714 172.9399 67.6984 167.6259 67.6984 167.6259 74.2204 171.4259 74.2204 171.4259 77.3114 167.6259 77.3114 167.6259 84.2314 172.9399 84.2314 172.9399 87.3584 163.7969 87.3584"></polygon>
                    <polygon id="Fill-35" points="174.819 87.357 178.655 87.357 178.655 64.569 174.819 64.569"></polygon>
                    <path d="M180.501,82.4523 L180.501,79.3973 L184.063,79.3973 L184.063,82.5173 C184.063,83.7993 184.634,84.5373 185.951,84.5373 C187.16,84.5373 187.696,83.7333 187.696,82.5173 L187.696,81.6483 C187.696,80.3383 187.16,79.5273 185.98,78.4203 L183.73,76.1693 C181.551,74.0123 180.537,72.7013 180.537,70.0813 L180.537,69.3133 C180.537,66.4833 182.181,64.3053 185.915,64.3053 C189.745,64.3053 191.258,66.1793 191.258,69.4793 L191.258,71.3263 L187.762,71.3263 L187.762,69.3433 C187.762,68.0323 187.16,67.3953 185.951,67.3953 C184.873,67.3953 184.135,67.9963 184.135,69.2773 L184.135,69.7483 C184.135,71.0213 184.844,71.7603 185.951,72.8393 L188.405,75.2573 C190.49,77.3783 191.497,78.6593 191.497,81.1783 L191.497,82.2863 C191.497,85.4133 189.81,87.6283 185.915,87.6283 C182.014,87.6283 180.501,85.4493 180.501,82.4523" id="Fill-36"></path>
                    <path d="M35.9864,191.1369 L36.3554,191.1369 L71.8684,191.1369 C72.3534,191.1369 72.7524,190.7399 72.7524,190.2539 C72.7524,190.0309 72.6584,189.8269 72.5204,189.6679 L72.4694,189.6169 L54.6184,166.5189 L54.4444,166.3229 C54.2784,166.1489 54.0534,166.0399 53.7934,166.0399 C53.5764,166.0399 53.3734,166.1269 53.2144,166.2649 L53.1054,166.3879 L52.9464,166.5759 L35.5304,189.4359 L35.2554,189.7619 C35.1604,189.8999 35.1024,190.0739 35.1024,190.2539 C35.1024,190.7399 35.5014,191.1369 35.9864,191.1369" id="Fill-37"></path>
                    <path d="M71.7628,194.3957 L35.8078,194.3957 C35.3238,194.3957 34.9248,194.7877 34.9248,195.2797 L34.9248,223.4097 C34.9248,223.9017 35.3238,224.2917 35.8078,224.2917 L47.3828,224.2917 L47.3828,206.5937 C47.3828,206.1017 47.7738,205.7107 48.2588,205.7107 L59.0008,205.7107 C59.4928,205.7107 59.8838,206.1017 59.8838,206.5937 L59.8838,224.2917 L71.7628,224.2917 C72.2478,224.2917 72.6468,223.9017 72.6468,223.4097 L72.6468,195.2797 C72.6468,194.7877 72.2478,194.3957 71.7628,194.3957" id="Fill-38"></path>
                    <path d="M192.8087,198.5451 C192.8087,199.0161 192.4177,199.3921 191.9397,199.3921 L181.3057,199.3921 C180.8287,199.3921 180.4377,199.0161 180.4377,198.5451 L180.4377,192.0811 C180.4377,191.6101 180.8287,191.2341 181.3057,191.2341 L191.9397,191.2341 C192.4177,191.2341 192.8087,191.6101 192.8087,192.0811 L192.8087,198.5451 Z M192.8087,210.4891 C192.8087,210.9601 192.4177,211.3361 191.9397,211.3361 L181.3057,211.3361 C180.8287,211.3361 180.4377,210.9601 180.4377,210.4891 L180.4377,204.0251 C180.4377,203.5551 180.8287,203.1781 181.3057,203.1781 L191.9397,203.1781 C192.4177,203.1781 192.8087,203.5551 192.8087,204.0251 L192.8087,210.4891 Z M176.5647,198.5451 C176.5647,199.0161 176.1737,199.3921 175.6957,199.3921 L165.0617,199.3921 C164.5777,199.3921 164.1867,199.0161 164.1867,198.5451 L164.1867,192.0811 C164.1867,191.6101 164.5777,191.2341 165.0617,191.2341 L175.6957,191.2341 C176.1737,191.2341 176.5647,191.6101 176.5647,192.0811 L176.5647,198.5451 Z M176.5647,210.4891 C176.5647,210.9601 176.1737,211.3361 175.6957,211.3361 L165.0617,211.3361 C164.5777,211.3361 164.1867,210.9601 164.1867,210.4891 L164.1867,204.0251 C164.1867,203.5551 164.5777,203.1781 165.0617,203.1781 L175.6957,203.1781 C176.1737,203.1781 176.5647,203.5551 176.5647,204.0251 L176.5647,210.4891 Z M196.0297,187.0281 L160.4437,187.0281 C159.9657,187.0281 159.5757,187.3981 159.5757,187.8751 L159.5757,223.8091 C159.5757,224.2791 159.9657,224.6561 160.4437,224.6561 L196.0297,224.6561 C196.5217,224.6561 196.9057,224.2791 196.9057,223.8091 L196.9057,187.8751 C196.9057,187.3981 196.5217,187.0281 196.0297,187.0281 L196.0297,187.0281 Z" id="Fill-39"></path>
                    <path d="M108.2256,129.1544 C108.2256,129.4014 108.0226,129.6034 107.7696,129.6034 L99.7996,129.6034 C99.5456,129.6034 99.3356,129.4014 99.3356,129.1544 L99.3356,120.2654 C99.3356,120.0124 99.5456,119.8014 99.7996,119.8014 L107.7696,119.8014 C108.0226,119.8014 108.2256,120.0124 108.2256,120.2654 L108.2256,129.1544 Z M108.2256,149.5534 C108.2256,149.8144 108.0226,150.0174 107.7696,150.0174 L99.7996,150.0174 C99.5456,150.0174 99.3356,149.8144 99.3356,149.5534 L99.3356,140.6724 C99.3356,140.4194 99.5456,140.2164 99.7996,140.2164 L107.7696,140.2164 C108.0226,140.2164 108.2256,140.4194 108.2256,140.6724 L108.2256,149.5534 Z M108.2256,169.9674 C108.2256,170.2204 108.0226,170.4244 107.7696,170.4244 L99.7996,170.4244 C99.5456,170.4244 99.3356,170.2204 99.3356,169.9674 L99.3356,161.0784 C99.3356,160.8244 99.5456,160.6224 99.7996,160.6224 L107.7696,160.6224 C108.0226,160.6224 108.2256,160.8244 108.2256,161.0784 L108.2256,169.9674 Z M108.2256,190.3744 C108.2256,190.6334 108.0226,190.8294 107.7696,190.8294 L99.7996,190.8294 C99.5456,190.8294 99.3356,190.6334 99.3356,190.3744 L99.3356,181.4844 C99.3356,181.2304 99.5456,181.0364 99.7996,181.0364 L107.7696,181.0364 C108.0226,181.0364 108.2256,181.2304 108.2256,181.4844 L108.2256,190.3744 Z M108.2256,210.7794 C108.2256,211.0334 108.0226,211.2434 107.7696,211.2434 L99.7996,211.2434 C99.5456,211.2434 99.3356,211.0334 99.3356,210.7794 L99.3356,201.8974 C99.3356,201.6444 99.5456,201.4414 99.7996,201.4414 L107.7696,201.4414 C108.0226,201.4414 108.2256,201.6444 108.2256,201.8974 L108.2256,210.7794 Z M92.5896,129.1544 C92.5896,129.4014 92.3866,129.6034 92.1266,129.6034 L84.1566,129.6034 C83.9106,129.6034 83.7006,129.4014 83.7006,129.1544 L83.7006,120.2654 C83.7006,120.0124 83.9106,119.8014 84.1566,119.8014 L92.1266,119.8014 C92.3866,119.8014 92.5896,120.0124 92.5896,120.2654 L92.5896,129.1544 Z M92.5896,149.5534 C92.5896,149.8144 92.3866,150.0174 92.1266,150.0174 L84.1566,150.0174 C83.9106,150.0174 83.7006,149.8144 83.7006,149.5534 L83.7006,140.6724 C83.7006,140.4194 83.9106,140.2164 84.1566,140.2164 L92.1266,140.2164 C92.3866,140.2164 92.5896,140.4194 92.5896,140.6724 L92.5896,149.5534 Z M92.5896,169.9674 C92.5896,170.2204 92.3866,170.4244 92.1266,170.4244 L84.1566,170.4244 C83.9106,170.4244 83.7006,170.2204 83.7006,169.9674 L83.7006,161.0784 C83.7006,160.8244 83.9106,160.6224 84.1566,160.6224 L92.1266,160.6224 C92.3866,160.6224 92.5896,160.8244 92.5896,161.0784 L92.5896,169.9674 Z M92.5896,190.3744 C92.5896,190.6334 92.3866,190.8294 92.1266,190.8294 L84.1566,190.8294 C83.9106,190.8294 83.7006,190.6334 83.7006,190.3744 L83.7006,181.4844 C83.7006,181.2304 83.9106,181.0364 84.1566,181.0364 L92.1266,181.0364 C92.3866,181.0364 92.5896,181.2304 92.5896,181.4844 L92.5896,190.3744 Z M92.5896,210.7794 C92.5896,211.0334 92.3866,211.2434 92.1266,211.2434 L84.1566,211.2434 C83.9106,211.2434 83.7006,211.0334 83.7006,210.7794 L83.7006,201.8974 C83.7006,201.6444 83.9106,201.4414 84.1566,201.4414 L92.1266,201.4414 C92.3866,201.4414 92.5896,201.6444 92.5896,201.8974 L92.5896,210.7794 Z M113.3076,103.6164 L78.4816,103.6164 C78.0106,103.6164 77.6266,103.9934 77.6266,104.4704 L77.6266,223.4914 C77.6266,223.9624 78.0106,224.3384 78.4816,224.3384 L113.3076,224.3384 C113.7786,224.3384 114.1616,223.9624 114.1616,223.4914 L114.1616,104.4704 C114.1616,103.9934 113.7786,103.6164 113.3076,103.6164 L113.3076,103.6164 Z" id="Fill-40"></path>
                    <path d="M196.8653,183.4103 C196.8653,183.8083 196.5473,184.1353 196.1483,184.1353 L160.3313,184.1353 C159.9333,184.1353 159.6143,183.8083 159.6143,183.4103 L159.6143,176.2523 C159.6143,175.8533 159.9333,175.5353 160.3313,175.5353 L196.1483,175.5353 C196.5473,175.5353 196.8653,175.8533 196.8653,176.2523 L196.8653,183.4103 Z" id="Fill-41"></path>
                    <path d="M151.4112,162.4572 C151.4112,162.9282 151.0272,163.3112 150.5642,163.3112 L140.1832,163.3112 C139.7132,163.3112 139.3292,162.9282 139.3292,162.4572 L139.3292,155.9652 C139.3292,155.4872 139.7132,155.1032 140.1832,155.1032 L150.5642,155.1032 C151.0272,155.1032 151.4112,155.4872 151.4112,155.9652 L151.4112,162.4572 Z M151.4112,174.4672 C151.4112,174.9372 151.0272,175.3132 150.5642,175.3132 L140.1832,175.3132 C139.7132,175.3132 139.3292,174.9372 139.3292,174.4672 L139.3292,167.9672 C139.3292,167.4962 139.7132,167.1192 140.1832,167.1192 L150.5642,167.1192 C151.0272,167.1192 151.4112,167.4962 151.4112,167.9672 L151.4112,174.4672 Z M151.4112,186.4692 C151.4112,186.9392 151.0272,187.3232 150.5642,187.3232 L140.1832,187.3232 C139.7132,187.3232 139.3292,186.9392 139.3292,186.4692 L139.3292,179.9682 C139.3292,179.4982 139.7132,179.1212 140.1832,179.1212 L150.5642,179.1212 C151.0272,179.1212 151.4112,179.4982 151.4112,179.9682 L151.4112,186.4692 Z M151.4112,198.4782 C151.4112,198.9482 151.0272,199.3252 150.5642,199.3252 L140.1832,199.3252 C139.7132,199.3252 139.3292,198.9482 139.3292,198.4782 L139.3292,191.9782 C139.3292,191.5072 139.7132,191.1312 140.1832,191.1312 L150.5642,191.1312 C151.0272,191.1312 151.4112,191.5072 151.4112,191.9782 L151.4112,198.4782 Z M151.4112,210.4802 C151.4112,210.9582 151.0272,211.3342 150.5642,211.3342 L140.1832,211.3342 C139.7132,211.3342 139.3292,210.9582 139.3292,210.4802 L139.3292,203.9872 C139.3292,203.5172 139.7132,203.1402 140.1832,203.1402 L150.5642,203.1402 C151.0272,203.1402 151.4112,203.5172 151.4112,203.9872 L151.4112,210.4802 Z M135.5722,160.1632 L135.5722,160.4812 L135.5722,174.4752 C135.5722,174.9522 135.1882,175.3282 134.7252,175.3282 L124.3522,175.3282 C123.8672,175.3282 123.4912,174.9522 123.4912,174.4752 L123.4912,172.7442 L123.4912,172.6792 C123.4982,172.5632 123.5132,172.4552 123.5562,172.3602 C123.5702,172.3242 123.5702,172.3102 123.6062,172.2592 C123.6282,172.2162 123.6572,172.1802 123.6862,172.1442 C123.7082,172.1062 123.7512,172.0572 123.7802,172.0062 C125.1052,170.1092 131.0922,162.7322 133.6102,159.6492 L133.8562,159.3452 C134.0452,159.1282 134.3202,158.9832 134.6322,158.9832 C135.1012,158.9832 135.4852,159.3312 135.5722,159.7792 L135.5722,160.1632 Z M135.5512,186.4692 C135.5512,186.9392 135.1672,187.3232 134.6892,187.3232 L124.3162,187.3232 C123.8382,187.3232 123.4692,186.9392 123.4692,186.4692 L123.4692,179.9682 C123.4692,179.4982 123.8382,179.1212 124.3162,179.1212 L134.6892,179.1212 C135.1672,179.1212 135.5512,179.4982 135.5512,179.9682 L135.5512,186.4692 Z M135.5512,198.4782 C135.5512,198.9482 135.1672,199.3252 134.6892,199.3252 L124.3162,199.3252 C123.8382,199.3252 123.4692,198.9482 123.4692,198.4782 L123.4692,191.9782 C123.4692,191.5072 123.8382,191.1312 124.3162,191.1312 L134.6892,191.1312 C135.1672,191.1312 135.5512,191.5072 135.5512,191.9782 L135.5512,198.4782 Z M135.5512,210.4802 C135.5512,210.9582 135.1672,211.3342 134.6892,211.3342 L124.3162,211.3342 C123.8382,211.3342 123.4692,210.9582 123.4692,210.4802 L123.4692,203.9872 C123.4692,203.5172 123.8382,203.1402 124.3162,203.1402 L134.6892,203.1402 C135.1672,203.1402 135.5512,203.5172 135.5512,203.9872 L135.5512,210.4802 Z M140.9652,149.6672 L141.2112,149.3622 C143.5502,146.3582 147.4952,141.5012 149.4202,139.1422 L149.6742,138.8382 C149.8542,138.6202 150.1302,138.4762 150.4332,138.4762 C150.9192,138.4762 151.2952,138.8232 151.3902,139.2722 L151.3902,139.6622 L151.3902,139.9742 L151.3902,150.2602 C151.3902,150.7882 150.9622,151.2162 150.4412,151.2372 C150.4272,151.2372 150.4122,151.2452 150.3972,151.2452 C150.3832,151.2452 150.3682,151.2372 150.3542,151.2372 L142.2242,151.2372 L141.8052,151.2372 C141.7912,151.2372 141.7762,151.2452 141.7622,151.2452 C141.7472,151.2452 141.7322,151.2372 141.7112,151.2372 C141.1892,151.2162 140.7692,150.7882 140.7692,150.2602 C140.7692,150.0362 140.8422,149.8332 140.9652,149.6672 L140.9652,149.6672 Z M155.3782,126.0902 C155.2552,125.7062 154.9142,125.4242 154.5022,125.4242 C154.3072,125.4242 154.1472,125.4962 153.9952,125.5912 C153.9742,125.6052 153.9592,125.6192 153.9372,125.6342 L153.6472,126.0032 L119.4152,169.4222 L119.2562,169.6392 C119.0752,169.8122 118.9672,170.0442 118.9592,170.3112 L118.9592,170.3702 L118.9592,223.6692 C118.9592,224.1402 119.3362,224.5172 119.8132,224.5172 L154.6032,224.5172 C155.0812,224.5172 155.4572,224.1402 155.4572,223.6692 L155.4572,126.4442 C155.4572,126.3212 155.4292,126.1982 155.3782,126.0902 L155.3782,126.0902 Z" id="Fill-42"></path>
                    <polygon id="Fill-2" points="0.3292 11.6442 0.3292 21.1922 0.4082 21.1922 6.8222 14.5332 6.9092 14.5332 6.9092 56.1782 16.0582 56.1782 16.0582 1.7702 8.7552 1.7702"></polygon>
                    <polygon id="Fill-3" points="21.1905 11.6442 21.1905 21.1922 21.2775 21.1922 27.6915 14.5332 27.7705 14.5332 27.7705 56.1782 36.9275 56.1782 36.9275 1.7702 29.6245 1.7702"></polygon>
                </g>
            </g>
        </g>
    </g>
</svg>