<?xml version="1.0" encoding="UTF-8"?>
<svg width="270px" height="270px" viewBox="0 0 270 270" version="1.1" xmlns="http://www.w3.org/2000/svg" xmlns:xlink="http://www.w3.org/1999/xlink">
    <title>ODS12</title>
    <g id="Page-1" stroke="none" stroke-width="1" fill="none" fill-rule="evenodd">
        <g id="ODS_12_detalhe_img1" transform="translate(-576.000000, -304.000000)">
            <g id="ODS12" transform="translate(576.000000, 304.000000)">
                <polygon id="Fill-1" fill="#BF8B2E" points="0 270 270 270 270 0 0 0"></polygon>
                <g id="Group-64" transform="translate(20.000000, 20.841000)">
                    <path d="M22.1281,16.0209 L22.1281,22.6019 L30.4671,22.6019 L30.4671,15.7749 C30.4671,12.4889 32.0821,11.5259 34.0071,11.5259 C35.7741,11.5259 37.2931,12.2499 37.2931,15.6159 L37.2931,20.1109 C37.2931,24.6069 36.8961,26.3729 33.9201,29.4999 L28.7881,34.9579 C23.8081,40.2569 21.9691,43.7819 21.9691,49.1609 L21.9691,59.1939 L45.7201,59.1939 L45.7201,51.7309 L30.7131,51.7309 L30.7131,49.1609 C30.7131,44.9119 32.2331,43.3039 34.5651,40.8139 L40.4211,34.6389 C45.1621,29.5859 46.1971,26.3729 46.1971,20.9149 L46.1971,15.6159 C46.1971,7.8339 42.4331,4.1419 34.2461,4.1419 C26.2181,4.1419 22.1281,8.3989 22.1281,16.0209" id="Fill-3" fill="#FFFFFF"></path>
                    <g id="Group-8" transform="translate(29.000000, 113.000000)">
                        <path d="M154.8996,9.0941 C142.9846,-0.3169 127.1966,-0.5119 121.4126,0.8641 L120.7396,1.0151 C114.0646,2.6011 103.4606,5.2061 91.0456,20.6111 C90.9726,20.6981 90.9006,20.7841 90.8366,20.8711 L90.6766,21.0671 C90.5536,21.2401 90.4736,21.4361 90.4736,21.6601 C90.4736,21.8491 90.5176,22.0221 90.6036,22.1821 L90.8936,22.6591 C92.4576,25.2581 94.4196,28.6161 96.0766,31.7081 C96.0986,31.7441 96.1126,31.7661 96.1276,31.8021 C96.3006,32.1501 96.6556,32.3881 97.0756,32.3881 C97.3656,32.3881 97.6186,32.2731 97.8066,32.0911 C97.8866,31.9901 97.9656,31.8811 98.0316,31.7731 C109.0486,16.5351 117.7126,14.4291 123.5846,13.0461 L124.2866,12.8791 C127.3196,12.1561 138.8866,12.1991 147.2406,18.7861 C153.7626,23.9341 157.0706,32.1201 157.0706,43.1231 C157.0706,61.5751 148.0946,68.7921 140.5666,71.5941 C128.8896,75.9591 117.7066,70.1311 117.6266,70.0811 L117.1206,69.8421 C110.7136,67.0551 101.1506,61.2711 92.1386,43.1671 C73.9686,6.6841 58.7826,3.2441 48.7196,0.9641 L48.1846,0.8491 C43.6096,-0.1859 27.7066,-0.9249 15.2126,9.0501 C8.6826,14.2621 0.9006,24.3901 0.9006,43.0431 C0.9006,54.4161 3.2386,61.9231 9.2396,69.8211 C10.5576,71.6221 24.0066,88.9021 50.0236,83.9211 C54.1856,83.1251 59.8176,81.1341 66.0286,76.4881 L71.7536,81.6491 C72.1166,81.9891 72.7166,81.9601 73.0576,81.5831 C73.2306,81.4091 73.2956,81.1851 73.2956,80.9681 L73.2956,80.8881 L77.4216,55.4881 L77.4216,55.2051 C77.4216,54.9511 77.3206,54.7051 77.1186,54.5251 C76.9376,54.3591 76.7276,54.3001 76.5096,54.3001 L76.3296,54.3151 L76.0616,54.3361 L51.7316,61.1561 L51.2906,61.2281 C51.1166,61.2641 50.9506,61.3511 50.8276,61.4951 C50.4716,61.8791 50.5016,62.4731 50.8916,62.8131 L51.1816,63.0801 L56.6316,68.0031 C53.1066,70.2831 50.0456,71.3331 47.6996,71.7811 C28.8856,75.3721 19.5906,63.0441 19.2366,62.5671 L19.1066,62.3861 C14.7346,56.6461 13.2566,51.7671 13.2566,43.0431 C13.2566,32.0191 16.5076,23.8241 22.9206,18.7061 C31.0576,12.2141 42.2776,12.1771 45.4486,12.8941 L45.9916,13.0181 C54.2366,14.8851 65.5216,17.4401 81.0776,48.6751 C89.1496,64.8911 99.2616,75.4891 111.9956,81.0831 C113.6166,81.9161 121.3476,85.5721 131.3796,85.5721 C135.5716,85.5721 140.1686,84.9351 144.8806,83.1831 C152.2646,80.4251 169.4276,71.0221 169.4276,43.1231 C169.4276,24.4761 161.5306,14.3271 154.8996,9.0941" id="Fill-5" fill="#FFFFFF"></path>
                        <path d="M154.8996,9.0941 C142.9846,-0.3169 127.1966,-0.5119 121.4126,0.8641 L120.7396,1.0151 C114.0646,2.6011 103.4606,5.2061 91.0456,20.6111 C90.9726,20.6981 90.9006,20.7841 90.8366,20.8711 L90.6766,21.0671 C90.5536,21.2401 90.4736,21.4361 90.4736,21.6601 C90.4736,21.8491 90.5176,22.0221 90.6036,22.1821 L90.8936,22.6591 C92.4576,25.2581 94.4196,28.6161 96.0766,31.7081 C96.0986,31.7441 96.1126,31.7661 96.1276,31.8021 C96.3006,32.1501 96.6556,32.3881 97.0756,32.3881 C97.3656,32.3881 97.6186,32.2731 97.8066,32.0911 C97.8866,31.9901 97.9656,31.8811 98.0316,31.7731 C109.0486,16.5351 117.7126,14.4291 123.5846,13.0461 L124.2866,12.8791 C127.3196,12.1561 138.8866,12.1991 147.2406,18.7861 C153.7626,23.9341 157.0706,32.1201 157.0706,43.1231 C157.0706,61.5751 148.0946,68.7921 140.5666,71.5941 C128.8896,75.9591 117.7066,70.1311 117.6266,70.0811 L117.1206,69.8421 C110.7136,67.0551 101.1506,61.2711 92.1386,43.1671 C73.9686,6.6841 58.7826,3.2441 48.7196,0.9641 L48.1846,0.8491 C43.6096,-0.1859 27.7066,-0.9249 15.2126,9.0501 C8.6826,14.2621 0.9006,24.3901 0.9006,43.0431 C0.9006,54.4161 3.2386,61.9231 9.2396,69.8211 C10.5576,71.6221 24.0066,88.9021 50.0236,83.9211 C54.1856,83.1251 59.8176,81.1341 66.0286,76.4881 L71.7536,81.6491 C72.1166,81.9891 72.7166,81.9601 73.0576,81.5831 C73.2306,81.4091 73.2956,81.1851 73.2956,80.9681 L73.2956,80.8881 L77.4216,55.4881 L77.4216,55.2051 C77.4216,54.9511 77.3206,54.7051 77.1186,54.5251 C76.9376,54.3591 76.7276,54.3001 76.5096,54.3001 L76.3296,54.3151 L76.0616,54.3361 L51.7316,61.1561 L51.2906,61.2281 C51.1166,61.2641 50.9506,61.3511 50.8276,61.4951 C50.4716,61.8791 50.5016,62.4731 50.8916,62.8131 L51.1816,63.0801 L56.6316,68.0031 C53.1066,70.2831 50.0456,71.3331 47.6996,71.7811 C28.8856,75.3721 19.5906,63.0441 19.2366,62.5671 L19.1066,62.3861 C14.7346,56.6461 13.2566,51.7671 13.2566,43.0431 C13.2566,32.0191 16.5076,23.8241 22.9206,18.7061 C31.0576,12.2141 42.2776,12.1771 45.4486,12.8941 L45.9916,13.0181 C54.2366,14.8851 65.5216,17.4401 81.0776,48.6751 C89.1496,64.8911 99.2616,75.4891 111.9956,81.0831 C113.6166,81.9161 121.3476,85.5721 131.3796,85.5721 C135.5716,85.5721 140.1686,84.9351 144.8806,83.1831 C152.2646,80.4251 169.4276,71.0221 169.4276,43.1231 C169.4276,24.4761 161.5306,14.3271 154.8996,9.0941" id="Stroke-7" stroke="#FFFFFF" stroke-width="0.728"></path>
                    </g>
                    <path d="M71.0334,7.2694 L71.0334,16.2464 L72.4444,16.2464 C73.7624,16.2464 74.3264,15.6084 74.3264,14.3634 L74.3264,9.1154 C74.3264,7.8774 73.7624,7.2694 72.4444,7.2694 L71.0334,7.2694 Z M67.2034,4.1424 L72.8864,4.1424 C76.7524,4.1424 78.1634,6.0604 78.1634,9.2534 L78.1634,14.0604 C78.1634,17.2514 76.7524,19.1994 72.8864,19.1994 L71.0334,19.1994 L71.0334,26.9374 L67.2034,26.9374 L67.2034,4.1424 Z" id="Fill-9" fill="#FFFFFF"></path>
                    <path d="M83.8068,7.2694 L83.8068,14.3634 L85.0878,14.3634 C86.3978,14.3634 86.9698,13.6904 86.9698,12.4814 L86.9698,9.1154 C86.9698,7.8774 86.3978,7.2694 85.0878,7.2694 L83.8068,7.2694 Z M83.8068,16.4774 L83.8068,26.9374 L79.9778,26.9374 L79.9778,4.1424 L85.5588,4.1424 C89.4168,4.1424 90.8348,6.0604 90.8348,9.2534 L90.8348,12.1774 C90.8348,14.6314 89.9668,16.0794 87.7738,16.5864 L91.4438,26.9374 L87.4048,26.9374 L83.8068,16.4774 Z" id="Fill-11" fill="#FFFFFF"></path>
                    <path d="M100.5188,21.6586 L100.5188,9.4256 C100.5188,8.0426 99.9108,7.0656 98.5348,7.0656 C97.1888,7.0656 96.5808,8.0426 96.5808,9.4256 L96.5808,21.6586 C96.5808,23.0336 97.1888,24.0116 98.5348,24.0116 C99.9108,24.0116 100.5188,23.0336 100.5188,21.6586 M92.7508,21.0576 L92.7508,10.0256 C92.7508,6.4646 94.4958,3.8726 98.5348,3.8726 C102.6028,3.8726 104.3478,6.4646 104.3478,10.0256 L104.3478,21.0576 C104.3478,24.5836 102.6028,27.2036 98.5348,27.2036 C94.4958,27.2036 92.7508,24.5836 92.7508,21.0576" id="Fill-13" fill="#FFFFFF"></path>
                    <path d="M111.8147,23.808 C113.3927,23.808 114.0007,22.868 114.0007,21.493 L114.0007,9.555 C114.0007,8.209 113.3927,7.267 111.8147,7.267 L110.1927,7.267 L110.1927,23.808 L111.8147,23.808 Z M117.8307,10.265 L117.8307,20.819 C117.8307,24.315 116.3817,26.935 112.2777,26.935 L106.3637,26.935 L106.3637,4.148 L112.2777,4.148 C116.3817,4.148 117.8307,6.732 117.8307,10.265 L117.8307,10.265 Z" id="Fill-15" fill="#FFFFFF"></path>
                    <path d="M130.9719,4.1444 L130.9719,21.3874 C130.9719,24.9204 129.4589,27.2074 125.5569,27.2074 C121.5179,27.2074 119.8459,24.9204 119.8459,21.3874 L119.8459,4.1444 L123.6749,4.1444 L123.6749,21.7574 C123.6749,23.1024 124.2109,24.0154 125.5569,24.0154 C126.9039,24.0154 127.4399,23.1024 127.4399,21.7574 L127.4399,4.1444 L130.9719,4.1444 Z" id="Fill-17" fill="#FFFFFF"></path>
                    <path d="M137.0578,29.2543 C138.1288,29.2263 138.3028,28.9863 138.3028,28.7193 C138.3028,28.4873 138.1008,28.3503 137.7598,28.3503 L137.5938,28.3503 L137.5938,27.1053 C134.3288,26.6993 132.9908,24.2453 132.9908,21.0533 L132.9908,10.0283 C132.9908,6.4673 134.6688,3.8753 138.7018,3.8753 C142.9358,3.8753 144.1168,6.2283 144.1168,9.5873 L144.1168,12.2793 L140.6198,12.2793 L140.6198,9.2903 C140.6198,7.8793 140.1488,7.0673 138.7668,7.0673 C137.3908,7.0673 136.8198,8.0453 136.8198,9.4203 L136.8198,21.6613 C136.8198,23.0363 137.3908,24.0143 138.7668,24.0143 C140.1488,24.0143 140.6198,23.1383 140.6198,21.7913 L140.6198,17.5933 L144.1168,17.5933 L144.1168,21.5243 C144.1168,24.7163 142.8348,27.0683 139.0348,27.2063 L139.0348,27.5103 C139.9398,27.6403 140.4538,27.9813 140.4538,28.7193 C140.4538,29.7613 139.4758,30.3333 137.0578,30.3333 L137.0578,29.2543 Z" id="Fill-19" fill="#FFFFFF"></path>
                    <path d="M149.8967,19.7084 L152.9587,19.7084 L151.4457,10.5654 L151.4097,10.5654 L149.8967,19.7084 Z M148.0797,3.2404 C148.1517,1.6544 148.7517,0.3804 150.4317,0.3804 C151.4097,0.3804 152.2117,0.9524 152.7187,0.9524 C152.9877,0.9524 153.1897,0.7864 153.1897,0.4454 L155.0727,0.4454 C155.0067,2.0314 154.3987,3.3054 152.7187,3.3054 C151.7497,3.3054 150.9457,2.7334 150.4317,2.7334 C150.1647,2.7334 149.9687,2.8994 149.9687,3.2404 L148.0797,3.2404 Z M145.0897,26.9394 L149.3967,4.1454 L153.7617,4.1454 L158.0977,26.9394 L154.1677,26.9394 L153.4577,22.7704 L149.3967,22.7704 L148.7237,26.9394 L145.0897,26.9394 Z" id="Fill-21" fill="#FFFFFF"></path>
                    <path d="M166.7697,21.6586 L166.7697,9.4256 C166.7697,8.0426 166.1687,7.0656 164.7937,7.0656 C163.4407,7.0656 162.8387,8.0426 162.8387,9.4256 L162.8387,21.6586 C162.8387,23.0336 163.4407,24.0116 164.7937,24.0116 C166.1687,24.0116 166.7697,23.0336 166.7697,21.6586 M159.0097,21.0576 L159.0097,10.0256 C159.0097,6.4646 160.7537,3.8726 164.7937,3.8726 C168.8547,3.8726 170.5997,6.4646 170.5997,10.0256 L170.5997,21.0576 C170.5997,24.5836 168.8547,27.2036 164.7937,27.2036 C160.7537,27.2036 159.0097,24.5836 159.0097,21.0576" id="Fill-23" fill="#FFFFFF"></path>
                    <polygon id="Fill-25" fill="#FFFFFF" points="67.2014 35.8568 76.3514 35.8568 76.3514 38.9848 71.0304 38.9848 71.0304 45.5058 74.8384 45.5058 74.8384 48.5968 71.0304 48.5968 71.0304 55.5248 76.3514 55.5248 76.3514 58.6448 67.2014 58.6448"></polygon>
                    <path d="M81.5939,52.766 L81.5939,41.742 C81.5939,38.18 83.2659,35.588 87.3049,35.588 C91.5399,35.588 92.7199,37.941 92.7199,41.307 L92.7199,43.993 L89.2229,43.993 L89.2229,41.003 C89.2229,39.592 88.7529,38.781 87.3769,38.781 C85.9949,38.781 85.4229,39.758 85.4229,41.133 L85.4229,53.367 C85.4229,54.749 85.9949,55.727 87.3769,55.727 C88.7529,55.727 89.2229,54.851 89.2229,53.505 L89.2229,49.306 L92.7199,49.306 L92.7199,53.237 C92.7199,56.501 91.3729,58.919 87.3049,58.919 C83.2659,58.919 81.5939,56.299 81.5939,52.766" id="Fill-27" fill="#FFFFFF"></path>
                    <path d="M102.3986,53.3705 L102.3986,41.1375 C102.3986,39.7625 101.7976,38.7845 100.4226,38.7845 C99.0686,38.7845 98.4676,39.7625 98.4676,41.1375 L98.4676,53.3705 C98.4676,54.7455 99.0686,55.7235 100.4226,55.7235 C101.7976,55.7235 102.3986,54.7455 102.3986,53.3705 M94.6386,52.7695 L94.6386,41.7455 C94.6386,38.1765 96.3826,35.5855 100.4226,35.5855 C104.4836,35.5855 106.2276,38.1765 106.2276,41.7455 L106.2276,52.7695 C106.2276,56.2955 104.4836,58.9235 100.4226,58.9235 C96.3826,58.9235 94.6386,56.2955 94.6386,52.7695" id="Fill-29" fill="#FFFFFF"></path>
                    <polygon id="Fill-31" fill="#FFFFFF" points="111.4758 44.3295 111.4758 58.6475 108.2468 58.6475 108.2468 35.8595 112.0108 35.8595 116.1518 48.9335 116.1518 35.8595 119.3438 35.8595 119.3438 58.6475 115.9778 58.6475"></polygon>
                    <path d="M121.1535,53.7416 L121.1535,50.6796 L124.7215,50.6796 L124.7215,53.8066 C124.7215,55.0886 125.2865,55.8266 126.6035,55.8266 C127.8125,55.8266 128.3485,55.0156 128.3485,53.8066 L128.3485,52.9386 C128.3485,51.6286 127.8125,50.8176 126.6405,49.7106 L124.3825,47.4516 C122.2035,45.3026 121.1895,43.9916 121.1895,41.3716 L121.1895,40.5956 C121.1895,37.7726 122.8335,35.5876 126.5675,35.5876 C130.3965,35.5876 131.9105,37.4696 131.9105,40.7696 L131.9105,42.6156 L128.4215,42.6156 L128.4215,40.6336 C128.4215,39.3226 127.8125,38.6786 126.6035,38.6786 C125.5255,38.6786 124.7875,39.2866 124.7875,40.5676 L124.7875,41.0386 C124.7875,42.3116 125.4965,43.0506 126.6035,44.1296 L129.0575,46.5476 C131.1425,48.6676 132.1565,49.9416 132.1565,52.4686 L132.1565,53.5756 C132.1565,56.7036 130.4695,58.9186 126.5675,58.9186 C122.6665,58.9186 121.1535,56.7316 121.1535,53.7416" id="Fill-33" fill="#FFFFFF"></path>
                    <path d="M145.1242,35.8568 L145.1242,53.0998 C145.1242,56.6328 143.6112,58.9198 139.7102,58.9198 C135.6782,58.9198 133.9982,56.6328 133.9982,53.0998 L133.9982,35.8568 L137.8272,35.8568 L137.8272,53.4768 C137.8272,54.8158 138.3632,55.7278 139.7102,55.7278 C141.0562,55.7278 141.5992,54.8158 141.5992,53.4768 L141.5992,35.8568 L145.1242,35.8568 Z" id="Fill-35" fill="#FFFFFF"></path>
                    <polygon id="Fill-37" fill="#FFFFFF" points="157.6936 43.8597 157.5916 43.8597 155.0076 58.6487 153.2266 58.6487 150.3676 43.8597 150.3016 43.8597 150.3016 58.6487 147.1386 58.6487 147.1386 35.8607 151.6126 35.8607 154.1026 48.6947 154.1316 48.6947 156.3466 35.8607 161.1896 35.8607 161.1896 58.6487 157.6936 58.6487"></polygon>
                    <path d="M170.9768,53.3705 L170.9768,41.1375 C170.9768,39.7625 170.3688,38.7845 168.9938,38.7845 C167.6468,38.7845 167.0458,39.7625 167.0458,41.1375 L167.0458,53.3705 C167.0458,54.7455 167.6468,55.7235 168.9938,55.7235 C170.3688,55.7235 170.9768,54.7455 170.9768,53.3705 M163.2088,52.7695 L163.2088,41.7455 C163.2088,38.1765 164.9608,35.5855 168.9938,35.5855 C173.0618,35.5855 174.8058,38.1765 174.8058,41.7455 L174.8058,52.7695 C174.8058,56.2955 173.0618,58.9235 168.9938,58.9235 C164.9608,58.9235 163.2088,56.2955 163.2088,52.7695" id="Fill-39" fill="#FFFFFF"></path>
                    <path d="M67.0031,85.4545 L67.0031,82.3995 L70.5651,82.3995 L70.5651,85.5195 C70.5651,86.8015 71.1371,87.5395 72.4461,87.5395 C73.6551,87.5395 74.1911,86.7355 74.1911,85.5195 L74.1911,84.6505 C74.1911,83.3405 73.6551,82.5295 72.4821,81.4225 L70.2251,79.1715 C68.0461,77.0145 67.0391,75.7035 67.0391,73.0915 L67.0391,72.3155 C67.0391,69.4855 68.6751,67.3075 72.4101,67.3075 C76.2391,67.3075 77.7531,69.1815 77.7531,72.4825 L77.7531,74.3285 L74.2641,74.3285 L74.2641,72.3455 C74.2641,71.0345 73.6551,70.3975 72.4461,70.3975 C71.3751,70.3975 70.6301,70.9985 70.6301,72.2795 L70.6301,72.7505 C70.6301,74.0245 71.3391,74.7635 72.4461,75.8415 L74.9001,78.2595 C76.9851,80.3805 77.9991,81.6615 77.9991,84.1805 L77.9991,85.2885 C77.9991,88.4155 76.3131,90.6305 72.4101,90.6305 C68.5161,90.6305 67.0031,88.4515 67.0031,85.4545" id="Fill-41" fill="#FFFFFF"></path>
                    <path d="M90.968,67.5736 L90.968,84.8156 C90.968,88.3486 89.455,90.6356 85.561,90.6356 C81.522,90.6356 79.842,88.3486 79.842,84.8156 L79.842,67.5736 L83.671,67.5736 L83.671,85.1856 C83.671,86.5316 84.207,87.4446 85.561,87.4446 C86.9,87.4446 87.443,86.5316 87.443,85.1856 L87.443,67.5736 L90.968,67.5736 Z" id="Fill-43" fill="#FFFFFF"></path>
                    <path d="M92.7844,85.4545 L92.7844,82.3995 L96.3464,82.3995 L96.3464,85.5195 C96.3464,86.8015 96.9174,87.5395 98.2354,87.5395 C99.4434,87.5395 99.9794,86.7355 99.9794,85.5195 L99.9794,84.6505 C99.9794,83.3405 99.4434,82.5295 98.2634,81.4225 L96.0134,79.1715 C93.8344,77.0145 92.8204,75.7035 92.8204,73.0915 L92.8204,72.3155 C92.8204,69.4855 94.4644,67.3075 98.1994,67.3075 C102.0284,67.3075 103.5414,69.1815 103.5414,72.4825 L103.5414,74.3285 L100.0454,74.3285 L100.0454,72.3455 C100.0454,71.0345 99.4434,70.3975 98.2354,70.3975 C97.1564,70.3975 96.4184,70.9985 96.4184,72.2795 L96.4184,72.7505 C96.4184,74.0245 97.1274,74.7635 98.2354,75.8415 L100.6884,78.2595 C102.7664,80.3805 103.7804,81.6615 103.7804,84.1805 L103.7804,85.2885 C103.7804,88.4155 102.0934,90.6305 98.1994,90.6305 C94.2974,90.6305 92.7844,88.4515 92.7844,85.4545" id="Fill-45" fill="#FFFFFF"></path>
                    <polygon id="Fill-47" fill="#FFFFFF" points="104.6897 67.5736 114.8747 67.5736 114.8747 70.7006 111.7107 70.7006 111.7107 90.3606 107.8447 90.3606 107.8447 70.7006 104.6897 70.7006"></polygon>
                    <polygon id="Fill-49" fill="#FFFFFF" points="116.4807 67.5736 125.6297 67.5736 125.6297 70.7006 120.3177 70.7006 120.3177 77.2226 124.1177 77.2226 124.1177 80.3136 120.3177 80.3136 120.3177 87.2336 125.6297 87.2336 125.6297 90.3606 116.4807 90.3606"></polygon>
                    <polygon id="Fill-51" fill="#FFFFFF" points="130.7385 76.0414 130.7385 90.3674 127.5095 90.3674 127.5095 67.5724 131.2745 67.5724 135.4155 80.6454 135.4155 67.5724 138.6075 67.5724 138.6075 90.3674 135.2415 90.3674"></polygon>
                    <polygon id="Fill-53" fill="#FFFFFF" points="140.1838 67.5736 150.3688 67.5736 150.3688 70.7006 147.2118 70.7006 147.2118 90.3606 143.3468 90.3606 143.3468 70.7006 140.1838 70.7006"></polygon>
                    <path d="M154.5051,83.1361 L157.5681,83.1361 L156.0551,73.9931 L156.0181,73.9931 L154.5051,83.1361 Z M159.3121,65.9581 L153.2961,66.7331 L153.2961,64.5831 L159.3121,63.3021 L159.3121,65.9581 Z M149.6981,90.3671 L153.9981,67.5731 L158.3711,67.5731 L162.7071,90.3671 L158.7761,90.3671 L158.0671,86.1991 L153.9981,86.1991 L153.3321,90.3671 L149.6981,90.3671 Z" id="Fill-55" fill="#FFFFFF"></path>
                    <polygon id="Fill-57" fill="#FFFFFF" points="174.3693 67.5736 170.0333 90.3606 165.8633 90.3606 161.5353 67.5736 165.4303 67.5736 168.0503 83.4696 168.0863 83.4696 170.7713 67.5736"></polygon>
                    <polygon id="Fill-59" fill="#FFFFFF" points="175.7834 67.5736 184.9264 67.5736 184.9264 70.7006 179.6134 70.7006 179.6134 77.2226 183.4134 77.2226 183.4134 80.3136 179.6134 80.3136 179.6134 87.2336 184.9264 87.2336 184.9264 90.3606 175.7834 90.3606"></polygon>
                    <polygon id="Fill-61" fill="#FFFFFF" points="186.806 90.358 190.635 90.358 190.635 67.57 186.806 67.57"></polygon>
                    <path d="M192.4885,85.4545 L192.4885,82.3995 L196.0505,82.3995 L196.0505,85.5195 C196.0505,86.8015 196.6215,87.5395 197.9385,87.5395 C199.1475,87.5395 199.6835,86.7355 199.6835,85.5195 L199.6835,84.6505 C199.6835,83.3405 199.1475,82.5295 197.9675,81.4225 L195.7175,79.1715 C193.5375,77.0145 192.5245,75.7035 192.5245,73.0915 L192.5245,72.3155 C192.5245,69.4855 194.1675,67.3075 197.9025,67.3075 C201.7315,67.3075 203.2455,69.1815 203.2455,72.4825 L203.2455,74.3285 L199.7485,74.3285 L199.7485,72.3455 C199.7485,71.0345 199.1475,70.3975 197.9385,70.3975 C196.8605,70.3975 196.1225,70.9985 196.1225,72.2795 L196.1225,72.7505 C196.1225,74.0245 196.8315,74.7635 197.9385,75.8415 L200.3925,78.2595 C202.4705,80.3805 203.4835,81.6615 203.4835,84.1805 L203.4835,85.2885 C203.4835,88.4155 201.7975,90.6305 197.9025,90.6305 C194.0015,90.6305 192.4885,88.4515 192.4885,85.4545" id="Fill-63" fill="#FFFFFF"></path>
                    <polygon id="Fill-2" fill="#FFFFFF" points="7.4455 17.5404 7.5325 17.5404 7.5325 59.1864 16.6745 59.1864 16.6745 4.7864 9.3645 4.7864 0.9455 14.6524 0.9455 24.2004 1.0175 24.2004"></polygon>
                </g>
            </g>
        </g>
    </g>
</svg>