<?xml version="1.0" encoding="UTF-8"?>
<svg width="270px" height="270px" viewBox="0 0 270 270" version="1.1" xmlns="http://www.w3.org/2000/svg" xmlns:xlink="http://www.w3.org/1999/xlink">
    <title>ODS13</title>
    <g id="Page-1" stroke="none" stroke-width="1" fill="none" fill-rule="evenodd">
        <g id="ODS_13_detalhe_img1" transform="translate(-576.000000, -304.000000)">
            <g id="ODS13" transform="translate(576.000000, 304.000000)">
                <polygon id="Fill-1" fill="#3F7E44" points="1.79056769e-12 270 270 270 270 -2.84217094e-14 1.79056769e-12 -2.84217094e-14"></polygon>
                <g id="Group-26" transform="translate(18.000000, 17.982000)" fill="#FFFFFF">
                    <path d="M46.3115,16.4596 L46.3115,21.1966 C46.3115,25.7666 43.8175,28.8156 40.0475,30.0246 C44.6295,31.0676 46.7905,34.2756 46.7905,39.2516 L46.7905,47.2766 C46.7905,54.8156 42.7805,59.7126 33.5375,59.7126 C24.2215,59.7126 20.9225,54.4176 20.9225,46.1536 L20.9225,39.0056 L29.2815,39.0056 L29.2815,46.7916 C29.2815,50.0076 30.4055,52.0856 33.5375,52.0856 C36.3505,52.0856 37.6335,50.0866 37.6335,47.1966 L37.6335,38.2096 C37.6335,35.3186 36.3505,33.7986 33.1385,33.7986 L29.2815,33.7986 L29.2815,26.8096 L32.7395,26.8096 C35.7055,26.8096 37.6335,25.2886 37.6335,22.3976 L37.6335,16.5396 C37.6335,13.5696 36.5895,11.6436 33.7045,11.6436 C30.8115,11.6436 29.7675,13.5696 29.7675,16.9386 L29.7675,22.4786 L21.4005,22.4786 L21.4005,17.6616 C21.4005,9.6376 24.7075,4.0176 34.1755,4.0176 C42.6145,4.0176 46.3115,8.7536 46.3115,16.4596" id="Fill-3"></path>
                    <path d="M69.5767,19.6559 L72.6427,19.6559 L71.1277,10.5099 L71.0917,10.5099 L69.5767,19.6559 Z M64.7627,26.8919 L69.0687,4.0849 L73.4477,4.0849 L77.7907,26.8919 L73.8537,26.8919 L73.1437,22.7199 L69.0687,22.7199 L68.4017,26.8919 L64.7627,26.8919 Z" id="Fill-5"></path>
                    <path d="M82.7734,29.2086 C83.8464,29.1806 84.0204,28.9406 84.0204,28.6726 C84.0204,28.4406 83.8174,28.3036 83.4834,28.3036 L83.3104,28.3036 L83.3104,27.0576 C80.0474,26.6516 78.6984,24.1966 78.6984,21.0026 L78.6984,9.9726 C78.6984,6.4096 80.3804,3.8156 84.4264,3.8156 C88.6604,3.8156 89.8414,6.1706 89.8414,9.5376 L89.8414,12.2256 L86.3404,12.2256 L86.3404,9.2336 C86.3404,7.8216 85.8694,7.0106 84.4844,7.0106 C83.1144,7.0106 82.5414,7.9876 82.5414,9.3636 L82.5414,21.6116 C82.5414,22.9876 83.1144,23.9656 84.4844,23.9656 C85.8694,23.9656 86.3404,23.0886 86.3404,21.7416 L86.3404,17.5406 L89.8414,17.5406 L89.8414,21.4736 C89.8414,24.6676 88.5654,27.0216 84.7524,27.1586 L84.7524,27.4636 C85.6664,27.5936 86.1734,27.9346 86.1734,28.6726 C86.1734,29.7156 85.1944,30.2876 82.7734,30.2876 L82.7734,29.2086 Z" id="Fill-7"></path>
                    <path d="M95.6377,19.6559 L98.6977,19.6559 L97.1817,10.5099 L97.1457,10.5099 L95.6377,19.6559 Z M93.8177,3.1789 C93.8837,1.5939 94.4917,0.3189 96.1667,0.3189 C97.1457,0.3189 97.9577,0.8909 98.4647,0.8909 C98.7337,0.8909 98.9297,0.7239 98.9297,0.3849 L100.8217,0.3849 C100.7487,1.9699 100.1467,3.2449 98.4647,3.2449 C97.4867,3.2449 96.6817,2.6729 96.1667,2.6729 C95.9057,2.6729 95.7027,2.8399 95.7027,3.1789 L93.8177,3.1789 Z M90.8167,26.8919 L95.1297,4.0849 L99.5017,4.0849 L103.8517,26.8919 L99.9077,26.8919 L99.2047,22.7199 L95.1297,22.7199 L94.4557,26.8919 L90.8167,26.8919 Z" id="Fill-9"></path>
                    <path d="M112.5376,21.609 L112.5376,9.37 C112.5376,7.986 111.9286,7.007 110.5516,7.007 C109.2026,7.007 108.5936,7.986 108.5936,9.37 L108.5936,21.609 C108.5936,22.985 109.2026,23.963 110.5516,23.963 C111.9286,23.963 112.5376,22.985 112.5376,21.609 M104.7586,21.008 L104.7586,9.97 C104.7586,6.407 106.5056,3.814 110.5516,3.814 C114.6186,3.814 116.3726,6.407 116.3726,9.97 L116.3726,21.008 C116.3726,24.535 114.6186,27.157 110.5516,27.157 C106.5056,27.157 104.7586,24.535 104.7586,21.008" id="Fill-11"></path>
                    <path d="M65.3638,52.732 L65.3638,41.703 C65.3638,38.139 67.0458,35.545 71.0908,35.545 C75.3318,35.545 76.5068,37.9 76.5068,41.268 L76.5068,43.955 L73.0118,43.955 L73.0118,40.963 C73.0118,39.551 72.5338,38.74 71.1558,38.74 C69.7788,38.74 69.1988,39.717 69.1988,41.093 L69.1988,53.334 C69.1988,54.717 69.7788,55.695 71.1558,55.695 C72.5338,55.695 73.0118,54.819 73.0118,53.471 L73.0118,49.271 L76.5068,49.271 L76.5068,53.203 C76.5068,56.47 75.1658,58.889 71.0908,58.889 C67.0458,58.889 65.3638,56.267 65.3638,52.732" id="Fill-13"></path>
                    <polygon id="Fill-15" points="78.4336 35.8141 82.2686 35.8141 82.2686 55.4931 86.8436 55.4931 86.8436 58.6221 78.4336 58.6221"></polygon>
                    <polygon id="Fill-17" points="88.428 58.623 92.263 58.623 92.263 35.816 88.428 35.816"></polygon>
                    <polygon id="Fill-19" points="104.8911 43.8199 104.7901 43.8199 102.2021 58.6169 100.4181 58.6169 97.5551 43.8199 97.4891 43.8199 97.4891 58.6169 94.3211 58.6169 94.3211 35.8169 98.8011 35.8169 101.2881 48.6589 101.3241 48.6589 103.5431 35.8169 108.3931 35.8169 108.3931 58.6169 104.8911 58.6169"></polygon>
                    <path d="M114.6191,51.3893 L117.6861,51.3893 L116.1711,42.2423 L116.1341,42.2423 L114.6191,51.3893 Z M119.4331,34.2023 L113.4091,34.9773 L113.4091,32.8273 L119.4331,31.5443 L119.4331,34.2023 Z M109.8051,58.6243 L114.1191,35.8183 L118.4911,35.8183 L122.8411,58.6243 L118.8961,58.6243 L118.1861,54.4463 L114.1191,54.4463 L113.4451,58.6243 L109.8051,58.6243 Z" id="Fill-20"></path>
                    <polygon id="Fill-21" points="122.1309 35.8141 132.3319 35.8141 132.3319 38.9431 129.1709 38.9431 129.1709 58.6221 125.2989 58.6221 125.2989 38.9431 122.1309 38.9431"></polygon>
                    <polygon id="Fill-22" points="133.95 58.623 137.785 58.623 137.785 35.816 133.95 35.816"></polygon>
                    <path d="M139.8379,52.732 L139.8379,41.703 C139.8379,38.139 141.5199,35.545 145.5659,35.545 C149.8069,35.545 150.9809,37.9 150.9809,41.268 L150.9809,43.955 L147.4869,43.955 L147.4869,40.963 C147.4869,39.551 147.0079,38.74 145.6309,38.74 C144.2459,38.74 143.6729,39.717 143.6729,41.093 L143.6729,53.334 C143.6729,54.717 144.2459,55.695 145.6309,55.695 C147.0079,55.695 147.4869,54.819 147.4869,53.471 L147.4869,49.271 L150.9809,49.271 L150.9809,53.203 C150.9809,56.47 149.6399,58.889 145.5659,58.889 C141.5199,58.889 139.8379,56.267 139.8379,52.732" id="Fill-23"></path>
                    <path d="M156.7729,51.3893 L159.8399,51.3893 L158.3239,42.2423 L158.2879,42.2423 L156.7729,51.3893 Z M151.9589,58.6243 L156.2729,35.8183 L160.6449,35.8183 L164.9869,58.6243 L161.0499,58.6243 L160.3399,54.4463 L156.2729,54.4463 L155.5989,58.6243 L151.9589,58.6243 Z" id="Fill-24"></path>
                    <path d="M158.897,171.6764 C157.781,171.3724 153.097,164.9054 156.802,160.6474 C157.411,159.9444 155.555,157.8874 156.063,157.8514 C158.092,157.6924 159.166,158.9444 159.695,160.7554 C159.738,161.5594 159.767,162.3564 159.767,163.1744 C159.767,166.0854 159.463,168.9324 158.897,171.6764 M147.479,192.7094 C147.051,192.5934 146.63,192.4634 146.159,192.2314 C143.89,191.0724 144.158,192.9194 143.034,192.5144 C141.911,192.0944 144.303,189.5014 140.939,191.6964 C137.597,193.8824 138.496,191.3554 137.032,187.6544 C135.56,183.9394 138.721,179.7014 141.353,178.7454 C144.97,177.4354 147.225,177.1674 148.921,176.7464 C153.931,175.5004 154.997,172.5314 155.903,174.3344 C156.07,174.6754 156.244,174.9934 156.389,175.2984 C156.679,175.8414 157.02,176.9354 157.034,178.0144 C154.91,183.5834 151.626,188.5814 147.479,192.7094 M118.059,204.8414 C113.984,204.8414 110.055,204.2464 106.335,203.1604 C105.806,202.7264 105.495,202.0014 105.835,201.1254 C107.119,197.7654 110.968,196.4474 113.999,196.1564 C120.763,195.4974 129.651,200.5454 131.065,199.7284 C132.479,198.9164 135.342,195.2004 139.533,195.3604 C142.404,195.4694 142.382,195.9474 143.339,196.3094 C136.328,201.6544 127.57,204.8414 118.059,204.8414 M112.389,177.6884 C111.816,178.6224 110.243,185.6264 109.199,184.8084 C108.133,183.9964 109.62,176.6824 109.924,176.1314 C111.57,173.1114 115.137,173.2634 112.389,177.6884 M129.426,169.4094 C128.593,170.1414 126.483,169.8734 125.432,169.0554 C124.38,168.2374 126.106,166.8824 126.73,166.8394 C128.128,166.7084 130.238,168.6644 129.426,169.4094 M147.834,169.4824 C147.377,169.3164 146.979,168.8894 146.645,167.8674 C146.304,166.8464 147.16,166.2594 148.001,166.6724 C148.856,167.1074 149.973,168.3814 149.973,169.0624 C149.973,169.7434 148.283,169.6634 147.834,169.4824 M149.603,170.7644 C151.002,170.6494 153.105,172.5894 152.285,173.3354 C151.466,174.0744 149.364,173.7994 148.305,172.9814 C147.261,172.1624 148.972,170.8154 149.603,170.7644 M104.864,187.3784 C104.052,190.5584 103.102,191.7104 102.29,192.7164 C101.493,193.7314 98.506,195.0274 96.606,194.8894 C94.707,194.7514 94.446,189.6904 94.446,187.0894 C94.446,186.1914 93.177,188.8564 92.517,183.4464 C92.089,179.9774 89.864,183.8014 89.704,181.4904 C89.545,179.1884 88.428,179.6444 87.261,178.2024 C86.101,176.7614 84.651,178.3404 83.02,179.0724 C81.411,179.7884 82.07,180.1654 79.772,179.4484 C79.707,179.4264 79.678,179.4124 79.62,179.3904 C77.51,174.4004 76.343,168.9254 76.343,163.1744 C76.343,161.7624 76.422,160.3784 76.553,159.0094 C76.633,158.8724 76.712,158.7414 76.814,158.6264 C79.011,156.0184 78.967,155.4094 78.967,155.4094 L81.411,154.5634 C81.411,154.5634 85.304,155.1634 88.24,156.2724 C90.661,157.1774 94.46,159.2194 96.679,158.3224 C98.281,157.6624 99.535,156.7864 99.383,155.4534 C99.202,153.7874 97.882,153.3894 96.287,154.5124 C95.7,154.9244 94.446,151.9984 93.467,152.1444 C92.488,152.2884 94.685,155.5914 93.844,155.7294 C93.01,155.8734 91.335,152.2884 91.045,151.7094 C90.77,151.1374 89.465,149.6964 88.305,150.7964 C85.84,153.1284 81.845,152.9844 81.048,153.5844 C78.605,155.4094 77.959,152.9844 78.018,151.5064 C78.105,151.1734 78.213,150.8324 78.322,150.4994 C79.112,149.6154 81.983,149.3254 82.955,149.9784 C84.042,150.7024 84.811,149.7974 85.238,149.3554 C85.659,148.9354 85.514,148.2394 85.246,147.6684 C84.97,147.0884 85.782,146.6604 86.34,146.5164 C86.898,146.3644 88.762,145.0684 89.501,144.6334 C90.248,144.2054 94.105,143.7354 95.838,144.5974 C97.563,145.4664 99.151,144.7564 99.999,143.7564 C101.065,142.4964 102.42,141.5324 103.022,141.2374 C103.631,140.9534 101.536,139.0054 99.818,141.1354 C98.085,143.2494 97.208,143.4464 96.403,143.4464 C95.599,143.4464 90.777,142.2504 90.183,140.7304 C89.596,139.2084 91.684,138.0724 93.467,137.2094 C95.243,136.3624 100.108,136.3764 101.355,136.0944 C103.878,135.5364 107.104,134.2694 108.735,135.3774 C110.359,136.4634 101.942,138.3824 104.704,139.8744 C105.69,140.4174 110.134,137.3184 111.657,136.5224 C115.246,134.6744 108.184,134.0664 109.105,130.3074 C110.134,126.0634 100.441,127.7074 95.599,128.0694 C102.087,123.9114 109.793,121.5004 118.059,121.5004 C137.735,121.5004 154.214,135.1164 158.614,153.4254 C158.644,154.3304 158.499,154.9834 158.412,155.3594 C158.035,156.8594 155.178,158.1484 153.525,155.7294 C153.105,155.1204 151.314,153.4334 151.379,156.3224 C151.437,159.2124 154.185,159.5024 151.517,161.2404 C148.856,162.9714 148.37,162.5514 147.138,162.9864 C145.905,163.4204 144.716,166.3974 145.006,167.9904 C145.304,169.5764 149.103,173.9224 146.29,173.7484 C145.623,173.6974 140.635,170.2934 139.815,168.1064 C138.953,165.8034 138.003,163.5514 137.329,161.8204 C136.654,160.0884 134.886,159.6474 133.399,160.6604 C131.913,161.6824 133.813,162.6894 132.754,164.8624 C131.681,167.0274 130.927,168.9604 129.354,167.1724 C125.279,162.5154 119.371,164.8114 118.443,159.6254 C117.942,156.8154 115.521,157.0834 113.491,155.4894 C111.454,153.9104 110.323,153.0494 109.982,154.1944 C109.678,155.1994 116.355,160.4874 116.826,161.8414 C117.537,163.8554 114.833,165.6294 112.846,166.1074 C110.874,166.5774 110.004,164.9994 108.054,162.9714 C106.118,160.9574 105.27,159.5094 105.132,161.1034 C104.937,163.3914 106.981,166.7594 108.953,168.0204 C110.649,169.0844 112.534,169.5624 111.983,171.3004 C111.439,173.0384 111.976,172.0534 110.091,173.9224 C108.191,175.7984 107.836,176.4064 107.974,178.9994 C108.105,181.5994 107.43,181.7514 107.024,183.9094 C106.618,186.0754 105.676,184.1984 104.864,187.3784 M82.455,141.4604 C82.549,141.3454 82.628,141.2504 82.665,141.2074 C83.426,140.3454 84.919,140.1644 85.956,140.0054 C87,139.8234 88.377,140.3454 88.552,141.0404 C88.726,141.7214 85.941,142.9824 85.434,143.4524 C83.999,144.7784 81.737,147.4804 80.424,147.7694 C79.989,147.8644 79.634,147.7984 79.344,147.6544 C80.207,145.4944 81.251,143.4164 82.455,141.4604 M84.593,137.2094 C85.129,136.4204 86.92,134.1604 87.145,133.8704 C87.602,133.2834 88.515,133.1604 89.161,133.0444 C89.798,132.9224 90.647,133.2834 90.748,133.7544 C90.857,134.2394 90.495,136.0874 90.183,136.4054 C89.306,137.3184 87.022,138.6004 85.76,138.3974 C84.789,138.2524 84.412,137.4984 84.593,137.2094 M217.179,161.8344 C210.067,151.8544 177.855,112.0204 117.986,112.0204 C58.117,112.0204 25.913,151.8544 18.786,161.8344 C18.481,162.2544 18.22,162.6234 18.003,162.9354 C18.22,163.2614 18.481,163.6304 18.786,164.0584 C25.913,174.0304 58.117,213.8644 117.986,213.8644 C177.855,213.8644 210.067,174.0304 217.179,164.0584 C217.491,163.6304 217.752,163.2614 217.955,162.9354 C217.752,162.6234 217.491,162.2544 217.179,161.8344" id="Fill-25"></path>
                    <polygon id="Fill-2" points="16.1084 4.6617 16.1084 59.0757 6.9444 59.0757 6.9444 17.4237 6.8724 17.4237 0.4414 24.0797 0.3614 24.0797 0.3614 14.5337 8.7934 4.6617"></polygon>
                </g>
            </g>
        </g>
    </g>
</svg>