<?xml version="1.0" encoding="UTF-8"?>
<svg width="270px" height="270px" viewBox="0 0 270 270" version="1.1" xmlns="http://www.w3.org/2000/svg" xmlns:xlink="http://www.w3.org/1999/xlink">
    <title>ODS14</title>
    <g id="Page-1" stroke="none" stroke-width="1" fill="none" fill-rule="evenodd">
        <g id="ODS_14_detalhe_img1" transform="translate(-576.000000, -304.000000)">
            <g id="ODS14" transform="translate(576.000000, 304.000000)">
                <polygon id="Fill-1" fill="#0A97D9" points="1.27897692e-12 269.849 269.834 269.849 269.834 -2.84217094e-14 1.27897692e-12 -2.84217094e-14"></polygon>
                <g id="Group-41" transform="translate(20.000000, 20.849000)" fill="#FFFFFF">
                    <path d="M148.9322,180.1395 C143.9662,180.1395 139.9562,176.1155 139.9562,171.1635 C139.9562,166.2045 143.9662,162.1955 148.9322,162.1955 C153.9052,162.1955 157.9152,166.2045 157.9152,171.1635 C157.9152,176.1155 153.9052,180.1395 148.9322,180.1395 M187.9202,175.9555 C184.5182,171.3665 162.5842,143.4035 131.8342,143.4035 C105.1222,143.4035 76.5512,167.6235 76.5512,167.6235 C76.5512,167.6235 65.8232,145.6615 43.8682,143.5475 C43.7442,143.5475 43.6002,143.5195 43.4552,143.5195 L43.3182,143.5195 C42.8622,143.5475 42.4342,143.9895 42.4852,144.3875 C42.5432,144.7715 42.8262,145.1915 42.8262,145.1915 C45.6562,149.8895 52.8732,163.2515 52.8732,176.6075 C52.8732,189.9995 45.6192,203.4065 42.8112,208.0815 L42.6162,208.3785 C42.5362,208.5165 42.4852,208.6605 42.4852,208.8415 C42.4852,209.3055 42.8472,209.6665 43.2892,209.7025 L43.5282,209.6895 C43.6002,209.6895 43.6802,209.6895 43.7662,209.6665 C65.7872,207.6115 76.5512,185.5765 76.5512,185.5765 C76.5512,185.5765 105.1222,209.8045 131.8342,209.8045 C162.5842,209.8045 184.5182,181.8335 187.9202,177.2585 C188.0072,177.1285 188.0792,177.0275 188.1522,176.9485 C188.1882,176.8315 188.2242,176.7385 188.2242,176.6075 C188.2242,176.4845 188.1882,176.3685 188.1522,176.2745 C188.0792,176.1805 188.0072,176.0725 187.9202,175.9555" id="Fill-4"></path>
                    <path d="M43.1773,90.8348 C43.1053,90.8208 43.0613,90.7998 43.0103,90.7998 C42.5183,90.7998 42.1203,91.1898 42.1203,91.6888 L42.1203,97.8068 C42.1203,98.0668 42.2213,98.2908 42.3813,98.4428 C57.2283,111.3428 71.2853,99.2538 74.5363,96.0628 C74.6083,95.9598 74.6733,95.8738 74.7673,95.8088 C74.9193,95.7218 75.0723,95.6558 75.2603,95.6558 C75.4843,95.6558 75.7013,95.7428 75.8533,95.8888 C75.8673,95.9098 75.8893,95.9238 75.8973,95.9318 C92.6693,111.9368 110.2523,98.9718 113.9073,95.9318 L114.2703,95.5988 C114.3713,95.5478 114.4873,95.5328 114.6023,95.5328 C114.7253,95.5328 114.8483,95.5478 114.9503,95.5988 L115.3123,95.9318 C118.9753,98.9718 136.5513,111.9368 153.3233,95.9318 C153.3233,95.9238 153.3443,95.9098 153.3593,95.8888 C153.5113,95.7428 153.7213,95.6558 153.9533,95.6558 C154.1343,95.6558 154.3003,95.7218 154.4383,95.8088 C154.5393,95.8738 154.6123,95.9598 154.6843,96.0628 C157.9343,99.2538 171.9773,111.3428 186.8393,98.4428 C186.9843,98.2908 187.0923,98.0668 187.0923,97.8068 L187.0923,91.6888 C187.0923,91.1898 186.7013,90.7998 186.2233,90.7998 C186.1583,90.7998 186.0933,90.8208 186.0283,90.8348 C185.8903,90.9148 185.7463,90.9868 185.5863,91.0668 C181.0193,93.3548 166.8603,98.7908 154.0033,86.6298 C153.8803,86.5138 153.7503,86.4048 153.6273,86.2748 C153.5113,86.2248 153.4033,86.1948 153.2513,86.1948 C153.1643,86.1948 153.0703,86.2178 152.9903,86.2308 C152.8023,86.3108 152.6423,86.4348 152.5413,86.5788 C148.7123,89.5038 131.1213,101.4038 115.4643,86.7958 L115.2403,86.5788 C115.0803,86.4348 114.8483,86.3108 114.6023,86.3108 C114.3713,86.3108 114.1463,86.4348 113.9873,86.5788 L113.7483,86.7958 C98.0983,101.4038 80.4863,89.5038 76.6643,86.5788 C76.5633,86.4348 76.4183,86.3108 76.2303,86.2308 C76.1433,86.2178 76.0493,86.1948 75.9473,86.1948 C75.8313,86.1948 75.7013,86.2248 75.5853,86.2748 C75.4693,86.4048 75.3323,86.5138 75.2093,86.6298 C62.3533,98.7908 48.1943,93.3548 43.6263,91.0668 C43.4673,90.9868 43.3223,90.9148 43.1773,90.8348" id="Fill-6"></path>
                    <path d="M74.5367,118.3338 C74.6087,118.2328 74.6747,118.1608 74.7677,118.0878 C74.9207,118.0018 75.0727,117.9218 75.2607,117.9218 C75.4847,117.9218 75.7027,118.0228 75.8617,118.1748 C75.8687,118.1828 75.8907,118.1968 75.8907,118.2038 C92.6627,134.1878 110.2527,121.2368 113.9087,118.2038 L114.2707,117.8708 C114.3717,117.8278 114.4877,117.8128 114.6037,117.8128 C114.7337,117.8128 114.8497,117.8278 114.9577,117.8708 L115.3127,118.2038 C118.9757,121.2368 136.5517,134.1878 153.3237,118.2038 C153.3307,118.1968 153.3457,118.1828 153.3607,118.1748 C153.5127,118.0228 153.7147,117.9218 153.9537,117.9218 C154.1347,117.9218 154.3017,118.0018 154.4317,118.0878 C154.5397,118.1608 154.6127,118.2328 154.6847,118.3338 C157.9347,121.5268 171.9787,133.6228 186.8397,120.7088 C186.9917,120.5498 187.0997,120.3468 187.0997,120.0938 L187.0997,113.9548 C187.0997,113.4628 186.7027,113.0708 186.2247,113.0708 C186.1597,113.0708 186.0947,113.1008 186.0287,113.1078 C185.8907,113.1808 185.7467,113.2528 185.5877,113.3318 C181.0197,115.6198 166.8527,121.0488 154.0047,108.9018 C153.8817,108.7938 153.7587,108.6778 153.6357,108.5478 C153.5127,108.4818 153.4037,108.4608 153.2517,108.4608 C153.1647,108.4608 153.0707,108.4818 152.9907,108.5328 C152.8027,108.5758 152.6437,108.6988 152.5417,108.8588 C148.7127,111.7758 131.1227,123.6838 115.4647,109.0758 L115.2337,108.8448 C115.0807,108.6858 114.8497,108.5988 114.6037,108.5988 C114.3717,108.5988 114.1477,108.6858 113.9887,108.8448 L113.7497,109.0758 C98.0987,123.6838 80.4867,111.7758 76.6647,108.8588 C76.5637,108.6988 76.4187,108.5758 76.2307,108.5328 C76.1437,108.4818 76.0497,108.4608 75.9487,108.4608 C75.8257,108.4608 75.7027,108.4818 75.5867,108.5478 C75.4637,108.6778 75.3327,108.7938 75.2027,108.9018 C62.3467,121.0488 48.1947,115.6198 43.6267,113.3318 C43.4677,113.2528 43.3227,113.1808 43.1787,113.1078 C43.1057,113.1008 43.0617,113.0708 43.0117,113.0708 C42.5197,113.0708 42.1207,113.4628 42.1207,113.9548 L42.1207,120.0938 C42.1207,120.3468 42.2227,120.5498 42.3817,120.7088 C57.2287,133.6228 71.2867,121.5268 74.5367,118.3338" id="Fill-8"></path>
                    <path d="M72.6983,4.2596 L72.6983,13.2366 L74.1093,13.2366 C75.4273,13.2366 75.9993,12.5906 75.9993,11.3456 L75.9993,6.1056 C75.9993,4.8606 75.4273,4.2596 74.1093,4.2596 L72.6983,4.2596 Z M68.8683,1.1326 L74.5513,1.1326 C78.4163,1.1326 79.8283,3.0506 79.8283,6.2426 L79.8283,11.0496 C79.8283,14.2416 78.4163,16.1896 74.5513,16.1896 L72.6983,16.1896 L72.6983,23.9196 L68.8683,23.9196 L68.8683,1.1326 Z" id="Fill-10"></path>
                    <path d="M85.4723,4.2596 L85.4723,11.3456 L86.7533,11.3456 C88.0643,11.3456 88.6363,10.6806 88.6363,9.4716 L88.6363,6.1056 C88.6363,4.8606 88.0643,4.2596 86.7533,4.2596 L85.4723,4.2596 Z M85.4723,13.4676 L85.4723,23.9196 L81.6433,23.9196 L81.6433,1.1326 L87.2243,1.1326 C91.0893,1.1326 92.5013,3.0506 92.5013,6.2426 L92.5013,9.1676 C92.5013,11.6206 91.6323,13.0616 89.4393,13.5686 L93.1093,23.9196 L89.0703,23.9196 L85.4723,13.4676 Z" id="Fill-12"></path>
                    <path d="M102.1842,18.6454 L102.1842,6.4124 C102.1842,5.0364 101.5762,4.0594 100.2002,4.0594 C98.8542,4.0594 98.2462,5.0364 98.2462,6.4124 L98.2462,18.6454 C98.2462,20.0204 98.8542,20.9984 100.2002,20.9984 C101.5762,20.9984 102.1842,20.0204 102.1842,18.6454 M94.4162,18.0444 L94.4162,7.0194 C94.4162,3.4514 96.1682,0.8594 100.2002,0.8594 C104.2682,0.8594 106.0132,3.4514 106.0132,7.0194 L106.0132,18.0444 C106.0132,21.5704 104.2682,24.1904 100.2002,24.1904 C96.1682,24.1904 94.4162,21.5704 94.4162,18.0444" id="Fill-14"></path>
                    <polygon id="Fill-16" points="107.0899 1.1307 117.2749 1.1307 117.2749 4.2587 114.1189 4.2587 114.1189 23.9187 110.2529 23.9187 110.2529 4.2587 107.0899 4.2587"></polygon>
                    <polygon id="Fill-18" points="118.8883 1.1307 128.0383 1.1307 128.0383 4.2587 122.7173 4.2587 122.7173 10.7797 126.5183 10.7797 126.5183 13.8717 122.7173 13.8717 122.7173 20.7997 128.0383 20.7997 128.0383 23.9187 118.8883 23.9187"></polygon>
                    <path d="M135.3595,11.7528 L140.8025,11.7528 L140.8025,23.9208 L138.0455,23.9208 L138.0455,21.4318 C137.5455,23.1538 136.4665,24.1898 134.3825,24.1898 C131.0885,24.1898 129.5755,21.5678 129.5755,18.0428 L129.5755,7.0188 C129.5755,3.4498 131.2915,0.8648 135.3235,0.8648 C139.5655,0.8648 140.8025,3.2188 140.8025,6.5768 L140.8025,8.5898 L137.3145,8.5898 L137.3145,6.2738 C137.3145,4.8608 136.7715,4.0578 135.3955,4.0578 C134.0125,4.0578 133.4045,5.0348 133.4045,6.4098 L133.4045,18.6448 C133.4045,20.0258 133.9845,20.9968 135.2875,20.9968 C136.5325,20.9968 137.1765,20.2948 137.1765,18.8168 L137.1765,14.7778 L135.3595,14.7778 L135.3595,11.7528 Z" id="Fill-20"></path>
                    <polygon id="Fill-22" points="142.8243 1.1307 151.9673 1.1307 151.9673 4.2587 146.6533 4.2587 146.6533 10.7797 150.4533 10.7797 150.4533 13.8717 146.6533 13.8717 146.6533 20.7997 151.9673 20.7997 151.9673 23.9187 142.8243 23.9187"></polygon>
                    <path d="M157.6842,4.2596 L157.6842,11.3456 L158.9582,11.3456 C160.2682,11.3456 160.8472,10.6806 160.8472,9.4716 L160.8472,6.1056 C160.8472,4.8606 160.2682,4.2596 158.9582,4.2596 L157.6842,4.2596 Z M157.6842,13.4676 L157.6842,23.9196 L153.8542,23.9196 L153.8542,1.1326 L159.4282,1.1326 C163.2942,1.1326 164.7132,3.0506 164.7132,6.2426 L164.7132,9.1676 C164.7132,11.6206 163.8372,13.0616 161.6512,13.5686 L165.3132,23.9196 L161.2742,23.9196 L157.6842,13.4676 Z" id="Fill-24"></path>
                    <path d="M174.1905,16.6971 L177.2455,16.6971 L175.7325,7.5551 L175.7035,7.5551 L174.1905,16.6971 Z M169.3835,23.9221 L173.6835,1.1341 L178.0485,1.1341 L182.3925,23.9221 L178.4615,23.9221 L177.7525,19.7531 L173.6835,19.7531 L173.0105,23.9221 L169.3835,23.9221 Z" id="Fill-26"></path>
                    <polygon id="Fill-28" points="81.1393 32.8465 76.8033 55.6345 72.6343 55.6345 68.3053 32.8465 72.1993 32.8465 74.8203 48.7425 74.8563 48.7425 77.5413 32.8465"></polygon>
                    <polygon id="Fill-30" points="82.212 55.636 86.042 55.636 86.042 32.848 82.212 32.848"></polygon>
                    <path d="M93.2066,52.5096 C94.7916,52.5096 95.3926,51.5686 95.3926,50.1936 L95.3926,38.2556 C95.3926,36.9096 94.7916,35.9686 93.2066,35.9686 L91.5916,35.9686 L91.5916,52.5096 L93.2066,52.5096 Z M99.2216,38.9586 L99.2216,49.5206 C99.2216,53.0166 97.7816,55.6366 93.6766,55.6366 L87.7626,55.6366 L87.7626,32.8496 L93.6766,32.8496 C97.7816,32.8496 99.2216,35.4336 99.2216,38.9586 L99.2216,38.9586 Z" id="Fill-32"></path>
                    <path d="M104.6017,48.409 L107.6637,48.409 L106.1507,39.267 L106.1147,39.267 L104.6017,48.409 Z M99.7947,55.64 L104.1017,32.846 L108.4677,32.846 L112.8037,55.64 L108.8727,55.64 L108.1637,51.472 L104.1017,51.472 L103.4287,55.64 L99.7947,55.64 Z" id="Fill-33"></path>
                    <polygon id="Fill-34" points="127.4635 40.8456 127.3615 40.8456 124.7705 55.6346 122.9895 55.6346 120.1305 40.8456 120.0725 40.8456 120.0725 55.6346 116.9095 55.6346 116.9095 32.8466 121.3755 32.8466 123.8655 45.6886 123.9015 45.6886 126.1165 32.8466 130.9525 32.8466 130.9525 55.6346 127.4635 55.6346"></polygon>
                    <path d="M136.8443,48.409 L139.8993,48.409 L138.3863,39.267 L138.3493,39.267 L136.8443,48.409 Z M132.0303,55.64 L136.3373,32.846 L140.7023,32.846 L145.0453,55.64 L141.1083,55.64 L140.4053,51.472 L136.3373,51.472 L135.6643,55.64 L132.0303,55.64 Z" id="Fill-35"></path>
                    <path d="M149.9498,35.9715 L149.9498,43.0655 L151.2308,43.0655 C152.5338,43.0655 153.1138,42.3925 153.1138,41.1835 L153.1138,37.8175 C153.1138,36.5725 152.5338,35.9715 151.2308,35.9715 L149.9498,35.9715 Z M149.9498,45.1795 L149.9498,55.6395 L146.1208,55.6395 L146.1208,32.8445 L151.6948,32.8445 C155.5598,32.8445 156.9788,34.7625 156.9788,37.9545 L156.9788,40.8795 C156.9788,43.3335 156.1028,44.7815 153.9168,45.2875 L157.5798,55.6395 L153.5478,55.6395 L149.9498,45.1795 Z" id="Fill-36"></path>
                    <polygon id="Fill-37" points="158.553 55.636 162.382 55.636 162.382 32.848 158.553 32.848"></polygon>
                    <polygon id="Fill-38" points="167.3331 41.3163 167.3331 55.6413 164.1041 55.6413 164.1041 32.8463 167.8691 32.8463 172.0021 45.9203 172.0021 32.8463 175.1941 32.8463 175.1941 55.6413 171.8351 55.6413"></polygon>
                    <polygon id="Fill-39" points="184.4054 45.5858 180.7064 45.5858 180.7064 55.6408 176.8774 55.6408 176.8774 32.8458 180.7064 32.8458 180.7064 42.4948 184.4054 42.4948 184.4054 32.8458 188.2714 32.8458 188.2714 55.6408 184.4054 55.6408"></polygon>
                    <path d="M194.1539,48.409 L197.2159,48.409 L195.7029,39.267 L195.6669,39.267 L194.1539,48.409 Z M189.3469,55.64 L193.6539,32.846 L198.0189,32.846 L202.3559,55.64 L198.4249,55.64 L197.7159,51.472 L193.6539,51.472 L192.9809,55.64 L189.3469,55.64 Z" id="Fill-40"></path>
                    <polygon id="Fill-2" points="15.8907 1.7753 15.8907 56.1603 6.7477 56.1603 6.7477 14.5303 6.6687 14.5303 0.2547 21.1893 0.1677 21.1893 0.1677 11.6413 8.5937 1.7753"></polygon>
                    <path d="M26.9684,40.202 L35.1554,17.812 L35.2354,17.812 L35.2354,40.202 L26.9684,40.202 Z M43.7404,56.171 L43.7404,47.348 L47.4324,47.348 L47.4324,40.202 L43.7404,40.202 L43.7404,1.764 L34.7504,1.764 L18.9474,41.723 L18.9474,47.348 L35.0754,47.348 L35.0754,56.171 L43.7404,56.171 Z" id="Fill-3"></path>
                </g>
            </g>
        </g>
    </g>
</svg>