<?xml version="1.0" encoding="UTF-8"?>
<svg width="270px" height="270px" viewBox="0 0 270 270" version="1.1" xmlns="http://www.w3.org/2000/svg" xmlns:xlink="http://www.w3.org/1999/xlink">
    <title>ODS15</title>
    <g id="Page-1" stroke="none" stroke-width="1" fill="none" fill-rule="evenodd">
        <g id="ODS_15_detalhe_img1" transform="translate(-576.000000, -304.000000)">
            <g id="ODS15" transform="translate(576.000000, 304.000000)">
                <polygon id="Fill-1" fill="#56C02B" points="4.54747351e-13 269.841 269.826 269.841 269.826 -5.68434189e-14 4.54747351e-13 -5.68434189e-14"></polygon>
                <g id="Group-52" transform="translate(19.000000, 20.841000)" fill="#FFFFFF">
                    <path d="M38.2285,18.9986 C34.6165,18.9986 31.9745,20.2796 30.5265,22.7706 L30.4395,22.7706 L30.4395,9.2046 L46.1765,9.2046 L46.1765,1.7486 L22.0935,1.7486 L22.0935,32.4056 L30.4395,32.4056 L30.4395,31.1966 C30.4395,27.9896 31.8875,26.2236 34.4575,26.2236 C37.2585,26.2236 38.3875,28.1486 38.3875,31.1166 L38.3875,44.2766 C38.3875,47.1656 37.3455,49.1706 34.5295,49.1706 C31.4095,49.1706 30.2875,47.0856 30.2875,43.8786 L30.2875,37.0526 L21.9345,37.0526 L21.9345,43.2346 C21.9345,51.5016 25.2275,56.7926 34.5295,56.7926 C43.7665,56.7926 47.5305,51.8996 47.5305,44.3566 L47.5305,31.0376 C47.5305,22.4516 43.1225,18.9986 38.2285,18.9986" id="Fill-3"></path>
                    <path d="M92.7319,161.605 C93.0649,161.605 93.3329,161.874 93.3329,162.207 L93.3329,181.845 C93.3329,182.185 93.0649,182.446 92.7319,182.446 L84.7839,182.446 C84.4509,182.446 84.1829,182.185 84.1829,181.845 L84.1829,162.207 C84.1829,161.874 84.4509,161.605 84.7839,161.605 L92.7319,161.605 Z" id="Fill-5"></path>
                    <path d="M180.0566,190.8814 L49.0196,190.8814 C48.6936,190.8814 48.4186,191.1644 48.4186,191.4974 L48.4186,199.5034 C48.4186,199.8364 48.6936,200.0974 49.0196,200.0974 L180.0566,200.0974 C180.3746,200.0974 180.6576,199.8364 180.6576,199.5034 L180.6576,191.4974 C180.6576,191.1644 180.3746,190.8814 180.0566,190.8814" id="Fill-7"></path>
                    <path d="M180.0566,206.8013 L49.0196,206.8013 C48.6936,206.8013 48.4186,207.0703 48.4186,207.3953 L48.4186,215.4233 C48.4186,215.7413 48.6936,216.0163 49.0196,216.0163 L180.0566,216.0163 C180.3746,216.0163 180.6576,215.7413 180.6576,215.4233 L180.6576,207.3953 C180.6576,207.0703 180.3746,206.8013 180.0566,206.8013" id="Fill-9"></path>
                    <path d="M155.124,139.8531 C153.48,138.5721 149.116,135.5821 143.788,135.5821 C139.973,135.5821 136.433,137.0811 133.263,140.0561 C133.038,140.2661 132.915,140.5631 132.915,140.8741 L132.915,141.5901 C132.915,141.9451 133.024,142.2711 133.284,142.4881 C133.566,142.7061 133.863,142.7851 134.204,142.7061 C134.283,142.6911 134.377,142.6691 134.457,142.6401 C134.696,142.5531 134.928,142.4091 135.108,142.2271 C135.796,141.7641 137.678,141.1271 140.356,141.1271 C143.136,141.1271 148.594,141.8741 153.857,146.7881 L153.98,146.8971 C154.277,147.2011 154.682,147.3741 155.124,147.3741 C155.537,147.3741 155.956,147.2011 156.224,146.9121 L156.332,146.7951 C161.631,141.8741 167.075,141.1271 169.855,141.1271 C172.562,141.1271 174.43,141.7641 175.117,142.2271 C175.306,142.4091 175.537,142.5611 175.841,142.6691 C175.957,142.7061 176.29,142.7701 176.608,142.6911 C177.094,142.5531 177.434,142.1201 177.434,141.6131 L177.434,140.9751 C177.434,140.6781 177.304,140.3741 177.079,140.1651 C173.887,137.1171 170.304,135.5761 166.431,135.5761 C161.154,135.5761 156.803,138.5211 155.124,139.8531" id="Fill-11"></path>
                    <path d="M146.9873,87.6295 C146.7123,87.7605 146.5093,88.0135 146.4153,88.3175 L146.2853,88.7595 C146.1913,89.0995 146.2493,89.4615 146.4593,89.7435 C146.6613,90.0115 146.9443,90.1705 147.2693,90.1855 C147.3273,90.1925 147.3853,90.2065 147.4363,90.1925 C147.6603,90.1855 147.8633,90.1345 148.0583,90.0255 C148.1813,90.0045 148.4213,89.9395 148.8623,89.9395 C149.4483,89.9395 154.7253,90.1205 158.2223,96.0565 L158.2653,96.1355 C158.4533,96.4835 158.7503,96.7145 159.1053,96.8085 C159.1993,96.8375 159.4023,96.8735 159.5173,96.8735 C159.7643,96.8735 160.0103,96.8085 160.1763,96.7075 L160.2703,96.6715 C162.1813,95.7155 164.1573,95.2235 166.1193,95.2235 C169.4273,95.2235 171.5773,96.5695 172.0913,97.1345 C172.1853,97.3225 172.3523,97.4895 172.5263,97.6265 C172.6413,97.6925 172.8303,97.7855 172.9533,97.8295 C173.0103,97.8435 173.0763,97.8515 173.1413,97.8585 C173.1843,97.8655 173.2283,97.8655 173.2643,97.8655 C173.4383,97.8655 173.6193,97.8215 173.7853,97.7355 C174.0533,97.5975 174.2563,97.3515 174.3363,97.0625 L174.4513,96.6785 C174.4803,96.5765 174.4953,96.4685 174.4953,96.3595 C174.4953,96.1505 174.4443,95.9545 174.3423,95.7955 C171.8023,91.3795 168.1033,90.4525 165.4533,90.4525 C163.4773,90.4525 161.7543,90.9595 160.7343,91.3365 C159.5323,89.7225 156.4993,86.3845 151.9023,86.3845 C150.2813,86.3845 148.6373,86.8055 146.9873,87.6295" id="Fill-13"></path>
                    <path d="M119.3047,107.7877 L119.3407,108.3817 C119.3557,108.7427 119.5507,109.0687 119.8627,109.2647 C120.1227,109.4237 120.4487,109.4807 120.7447,109.3947 C120.8107,109.3807 120.8827,109.3587 120.9407,109.3367 C121.1647,109.2427 121.3537,109.0987 121.5057,108.9167 C122.0627,108.5187 123.8577,107.7807 126.4997,107.7807 C129.0487,107.7807 132.9137,108.4607 136.8587,111.7037 L136.9527,111.7977 C137.2357,112.0367 137.5897,112.1747 137.9587,112.1747 L138.0607,112.1747 C138.4657,112.1457 138.8497,111.9577 139.0887,111.6827 L139.1757,111.5807 C143.5477,106.9627 148.2457,106.2747 150.6627,106.2747 C152.3787,106.2747 153.6017,106.6297 154.0797,106.8967 C154.2607,107.0497 154.4777,107.1797 154.7607,107.2517 C154.8407,107.2737 155.0357,107.3027 155.2387,107.2807 C155.3257,107.2737 155.4337,107.2447 155.5127,107.2157 C155.9837,107.0497 156.2877,106.5937 156.2587,106.0947 L156.2297,105.5797 C156.2157,105.2677 156.0637,105.0007 155.8387,104.7987 C153.2327,102.6047 150.4167,101.4977 147.4567,101.4977 C142.8457,101.4977 139.1677,104.2197 137.6407,105.5587 C136.2507,104.6097 132.8697,102.6547 128.9037,102.6547 C125.4217,102.6547 122.2867,104.1027 119.6087,106.9477 C119.3987,107.1797 119.2897,107.4837 119.3047,107.7877" id="Fill-15"></path>
                    <path d="M52.9956,118.3101 C52.9956,110.4631 59.3516,104.1081 67.1986,104.1081 C67.5096,104.1081 67.8066,104.1291 68.1106,104.1441 C68.8556,94.2191 77.1296,86.3871 87.2496,86.3871 C97.8696,86.3871 106.4756,94.9871 106.4756,105.6061 C106.4756,108.6171 105.7666,111.4481 104.5286,113.9811 C114.1496,116.1171 121.3516,124.6801 121.3516,134.9381 C121.3516,146.8021 111.7316,156.4151 99.8746,156.4151 C99.0056,156.4151 71.2156,156.2481 71.2156,156.2481 C62.8046,156.2481 55.9996,149.4441 55.9996,141.0391 C55.9996,137.0071 57.5846,133.3521 60.1406,130.6301 C55.8696,128.1761 52.9956,123.5871 52.9956,118.3101" id="Fill-17"></path>
                    <path d="M68.604,4.2672 L68.604,13.2442 L70.016,13.2442 C71.326,13.2442 71.897,12.5982 71.897,11.3532 L71.897,6.1132 C71.897,4.8682 71.326,4.2672 70.016,4.2672 L68.604,4.2672 Z M64.775,1.1402 L70.45,1.1402 C74.315,1.1402 75.727,3.0582 75.727,6.2502 L75.727,11.0572 C75.727,14.2492 74.315,16.1972 70.45,16.1972 L68.604,16.1972 L68.604,23.9272 L64.775,23.9272 L64.775,1.1402 Z" id="Fill-19"></path>
                    <path d="M81.3784,4.2672 L81.3784,11.3532 L82.6594,11.3532 C83.9624,11.3532 84.5424,10.6882 84.5424,9.4792 L84.5424,6.1132 C84.5424,4.8682 83.9624,4.2672 82.6594,4.2672 L81.3784,4.2672 Z M81.3784,13.4752 L81.3784,23.9272 L77.5484,23.9272 L77.5484,1.1402 L83.1234,1.1402 C86.9884,1.1402 88.4074,3.0582 88.4074,6.2502 L88.4074,9.1752 C88.4074,11.6282 87.5314,13.0692 85.3454,13.5762 L89.0074,23.9272 L84.9764,23.9272 L81.3784,13.4752 Z" id="Fill-21"></path>
                    <path d="M98.0825,18.6529 L98.0825,6.4199 C98.0825,5.0439 97.4745,4.0669 96.0995,4.0669 C94.7525,4.0669 94.1515,5.0439 94.1515,6.4199 L94.1515,18.6529 C94.1515,20.0279 94.7525,21.0059 96.0995,21.0059 C97.4745,21.0059 98.0825,20.0279 98.0825,18.6529 M90.3225,18.0519 L90.3225,7.0269 C90.3225,3.4589 92.0675,0.8669 96.0995,0.8669 C100.1675,0.8669 101.9125,3.4589 101.9125,7.0269 L101.9125,18.0519 C101.9125,21.5779 100.1675,24.1979 96.0995,24.1979 C92.0675,24.1979 90.3225,21.5779 90.3225,18.0519" id="Fill-23"></path>
                    <polygon id="Fill-25" points="102.9883 1.1382 113.1733 1.1382 113.1733 4.2662 110.0173 4.2662 110.0173 23.9262 106.1523 23.9262 106.1523 4.2662 102.9883 4.2662"></polygon>
                    <polygon id="Fill-27" points="114.7871 1.1382 123.9371 1.1382 123.9371 4.2662 118.6161 4.2662 118.6161 10.7872 122.4241 10.7872 122.4241 13.8792 118.6161 13.8792 118.6161 20.8072 123.9371 20.8072 123.9371 23.9262 114.7871 23.9262"></polygon>
                    <path d="M131.2583,11.7603 L136.7093,11.7603 L136.7093,23.9283 L133.9513,23.9283 L133.9513,21.4393 C133.4513,23.1613 132.3653,24.1973 130.2803,24.1973 C126.9943,24.1973 125.4813,21.5753 125.4813,18.0503 L125.4813,7.0263 C125.4813,3.4573 127.1903,0.8723 131.2293,0.8723 C135.4643,0.8723 136.7093,3.2263 136.7093,6.5843 L136.7093,8.5973 L133.2133,8.5973 L133.2133,6.2813 C133.2133,4.8683 132.6703,4.0653 131.2943,4.0653 C129.9113,4.0653 129.3113,5.0423 129.3113,6.4173 L129.3113,18.6523 C129.3113,20.0333 129.8903,21.0043 131.1933,21.0043 C132.4383,21.0043 133.0753,20.3023 133.0753,18.8243 L133.0753,14.7853 L131.2583,14.7853 L131.2583,11.7603 Z" id="Fill-29"></path>
                    <polygon id="Fill-31" points="138.7236 1.1382 147.8736 1.1382 147.8736 4.2662 142.5526 4.2662 142.5526 10.7872 146.3606 10.7872 146.3606 13.8792 142.5526 13.8792 142.5526 20.8072 147.8736 20.8072 147.8736 23.9262 138.7236 23.9262"></polygon>
                    <path d="M153.583,4.2672 L153.583,11.3532 L154.864,11.3532 C156.167,11.3532 156.746,10.6882 156.746,9.4792 L156.746,6.1132 C156.746,4.8682 156.167,4.2672 154.864,4.2672 L153.583,4.2672 Z M153.583,13.4752 L153.583,23.9272 L149.753,23.9272 L149.753,1.1402 L155.327,1.1402 C159.193,1.1402 160.612,3.0582 160.612,6.2502 L160.612,9.1752 C160.612,11.6282 159.736,13.0692 157.55,13.5762 L161.212,23.9272 L157.181,23.9272 L153.583,13.4752 Z" id="Fill-33"></path>
                    <path d="M170.0893,16.7047 L173.1513,16.7047 L171.6383,7.5627 L171.6023,7.5627 L170.0893,16.7047 Z M165.2823,23.9297 L169.5893,1.1417 L173.9553,1.1417 L178.2913,23.9297 L174.3603,23.9297 L173.6513,19.7607 L169.5893,19.7607 L168.9173,23.9297 L165.2823,23.9297 Z" id="Fill-35"></path>
                    <polygon id="Fill-37" points="77.0381 32.8541 72.7021 55.6421 68.5321 55.6421 64.2041 32.8541 68.0981 32.8541 70.7191 48.7501 70.7551 48.7501 73.4481 32.8541"></polygon>
                    <polygon id="Fill-39" points="78.116 55.644 81.953 55.644 81.953 32.856 78.116 32.856"></polygon>
                    <path d="M89.1123,52.5172 C90.6903,52.5172 91.2983,51.5762 91.2983,50.2012 L91.2983,38.2632 C91.2983,36.9172 90.6903,35.9762 89.1123,35.9762 L87.4903,35.9762 L87.4903,52.5172 L89.1123,52.5172 Z M95.1283,38.9662 L95.1283,49.5282 C95.1283,53.0242 93.6803,55.6442 89.5753,55.6442 L83.6613,55.6442 L83.6613,32.8572 L89.5753,32.8572 C93.6803,32.8572 95.1283,35.4412 95.1283,38.9662 L95.1283,38.9662 Z" id="Fill-41"></path>
                    <path d="M100.5078,48.4166 L103.5628,48.4166 L102.0498,39.2746 L102.0128,39.2746 L100.5078,48.4166 Z M95.6938,55.6476 L100.0008,32.8536 L104.3658,32.8536 L108.7098,55.6476 L104.7718,55.6476 L104.0698,51.4796 L100.0008,51.4796 L99.3278,55.6476 L95.6938,55.6476 Z" id="Fill-42"></path>
                    <polygon id="Fill-43" points="112.3691 32.8541 122.5541 32.8541 122.5541 35.9811 119.3981 35.9811 119.3981 55.6421 115.5331 55.6421 115.5331 35.9811 112.3691 35.9811"></polygon>
                    <polygon id="Fill-44" points="123.8354 32.8541 132.9784 32.8541 132.9784 35.9811 127.6654 35.9811 127.6654 42.5031 131.4654 42.5031 131.4654 45.5941 127.6654 45.5941 127.6654 52.5141 132.9784 52.5141 132.9784 55.6421 123.8354 55.6421"></polygon>
                    <path d="M138.3559,35.9791 L138.3559,43.0731 L139.6369,43.0731 C140.9399,43.0731 141.5189,42.4001 141.5189,41.1911 L141.5189,37.8251 C141.5189,36.5801 140.9399,35.9791 139.6369,35.9791 L138.3559,35.9791 Z M138.3559,45.1871 L138.3559,55.6471 L134.5259,55.6471 L134.5259,32.8521 L140.1009,32.8521 C143.9659,32.8521 145.3849,34.7701 145.3849,37.9621 L145.3849,40.8871 C145.3849,43.3411 144.5089,44.7891 142.3229,45.2951 L145.9849,55.6471 L141.9539,55.6471 L138.3559,45.1871 Z" id="Fill-45"></path>
                    <path d="M150.791,35.9791 L150.791,43.0731 L152.072,43.0731 C153.382,43.0731 153.954,42.4001 153.954,41.1911 L153.954,37.8251 C153.954,36.5801 153.382,35.9791 152.072,35.9791 L150.791,35.9791 Z M150.791,45.1871 L150.791,55.6471 L146.961,55.6471 L146.961,32.8521 L152.542,32.8521 C156.401,32.8521 157.82,34.7701 157.82,37.9621 L157.82,40.8871 C157.82,43.3411 156.951,44.7891 154.758,45.2951 L158.428,55.6471 L154.389,55.6471 L150.791,45.1871 Z" id="Fill-46"></path>
                    <polygon id="Fill-47" points="159.4004 32.8541 168.5434 32.8541 168.5434 35.9811 163.2304 35.9811 163.2304 42.5031 167.0304 42.5031 167.0304 45.5941 163.2304 45.5941 163.2304 52.5141 168.5434 52.5141 168.5434 55.6421 159.4004 55.6421"></polygon>
                    <path d="M169.7217,50.7349 L169.7217,47.6799 L173.2837,47.6799 L173.2837,50.7999 C173.2837,52.0819 173.8547,52.8199 175.1647,52.8199 C176.3737,52.8199 176.9097,52.0159 176.9097,50.7999 L176.9097,49.9319 C176.9097,48.6219 176.3737,47.8109 175.2007,46.7039 L172.9427,44.4529 C170.7637,42.2959 169.7507,40.9849 169.7507,38.3649 L169.7507,37.5969 C169.7507,34.7659 171.3937,32.5809 175.1287,32.5809 C178.9587,32.5809 180.4717,34.4629 180.4717,37.7629 L180.4717,39.6089 L176.9817,39.6089 L176.9817,37.6269 C176.9817,36.3159 176.3737,35.6789 175.1647,35.6789 C174.0937,35.6789 173.3477,36.2799 173.3477,37.5609 L173.3477,38.0319 C173.3477,39.3049 174.0577,40.0439 175.1647,41.1229 L177.6187,43.5409 C179.7037,45.6609 180.7177,46.9419 180.7177,49.4619 L180.7177,50.5689 C180.7177,53.6969 179.0307,55.9119 175.1287,55.9119 C171.2347,55.9119 169.7217,53.7319 169.7217,50.7349" id="Fill-48"></path>
                    <polygon id="Fill-49" points="181.2798 32.8541 191.4648 32.8541 191.4648 35.9811 188.3088 35.9811 188.3088 55.6421 184.4438 55.6421 184.4438 35.9811 181.2798 35.9811"></polygon>
                    <path d="M196.5776,35.9791 L196.5776,43.0731 L197.8586,43.0731 C199.1616,43.0731 199.7416,42.4001 199.7416,41.1911 L199.7416,37.8251 C199.7416,36.5801 199.1616,35.9791 197.8586,35.9791 L196.5776,35.9791 Z M196.5776,45.1871 L196.5776,55.6471 L192.7486,55.6471 L192.7486,32.8521 L198.3226,32.8521 C202.1876,32.8521 203.6066,34.7701 203.6066,37.9621 L203.6066,40.8871 C203.6066,43.3411 202.7306,44.7891 200.5446,45.2951 L204.2076,55.6471 L200.1756,55.6471 L196.5776,45.1871 Z" id="Fill-50"></path>
                    <polygon id="Fill-51" points="205.1802 32.8541 214.3302 32.8541 214.3302 35.9811 209.0102 35.9811 209.0102 42.5031 212.8172 42.5031 212.8172 45.5941 209.0102 45.5941 209.0102 52.5141 214.3302 52.5141 214.3302 55.6421 205.1802 55.6421"></polygon>
                    <polygon id="Fill-2" points="0.7549 11.6158 0.7549 21.1638 0.8349 21.1638 7.2479 14.5048 7.3279 14.5048 7.3279 56.1488 16.4779 56.1488 16.4779 1.7418 9.1729 1.7418"></polygon>
                </g>
            </g>
        </g>
    </g>
</svg>