<?xml version="1.0" encoding="UTF-8"?>
<svg width="270px" height="270px" viewBox="0 0 270 270" version="1.1" xmlns="http://www.w3.org/2000/svg" xmlns:xlink="http://www.w3.org/1999/xlink">
    <title>ODS16</title>
    <g id="Page-1" stroke="none" stroke-width="1" fill="none" fill-rule="evenodd">
        <g id="ODS_16_detalhe_img1" transform="translate(-576.000000, -304.000000)">
            <g id="ODS16" transform="translate(576.000000, 304.000000)">
                <polygon id="Fill-1" fill="#00689D" points="-6.53699317e-13 269.849 269.833 269.849 269.833 -2.84217094e-14 -6.53699317e-13 -2.84217094e-14"></polygon>
                <g id="Group-66" transform="translate(20.000000, 21.849000)" fill="#FFFFFF">
                    <path d="M39.4342,42.915 C39.4342,46.368 38.1532,48.373 35.0262,48.373 C31.9782,48.373 30.7772,46.288 30.7772,42.915 L30.7772,32.962 C30.9282,29.914 32.2172,27.989 35.1052,27.989 C38.2332,27.989 39.4342,29.914 39.4342,33.446 L39.4342,42.915 Z M48.5042,42.111 L48.5042,34.091 C48.5042,25.181 44.9792,20.685 38.3922,20.685 C34.5402,20.685 32.2172,22.451 30.8492,25.101 L30.7772,25.101 L30.7772,13.381 C30.7772,10.094 31.8122,7.77 35.1052,7.77 C38.3922,7.77 39.3542,9.689 39.3542,13.055 L39.3542,16.674 L47.7072,16.674 L47.7072,13.786 C47.7072,5.758 45.0512,0.141 34.9462,0.141 C25.3182,0.141 21.7062,6.323 21.7062,14.829 L21.7062,41.308 C21.7062,49.734 25.3982,55.837 35.0262,55.837 C44.7332,55.837 48.5042,50.538 48.5042,42.111 L48.5042,42.111 Z" id="Fill-3"></path>
                    <path d="M161.9928,97.372 C161.9928,97.372 159.4368,100.76 160.1818,104.068 C160.9288,107.369 164.6918,109.331 164.6918,109.331 C164.6918,109.331 167.2478,105.942 166.5028,102.642 C165.7638,99.334 161.9928,97.372 161.9928,97.372" id="Fill-5"></path>
                    <path d="M157.8288,116.7304 C157.8288,116.7304 160.3918,113.3354 159.6388,110.0354 C158.8918,106.7344 155.1288,104.7724 155.1288,104.7724 C155.1288,104.7724 152.5728,108.1604 153.3188,111.4604 C154.0638,114.7684 157.8288,116.7304 157.8288,116.7304" id="Fill-7"></path>
                    <path d="M168.319,113.1015 C168.319,113.1015 171.019,115.8155 174.089,115.5475 C177.158,115.2735 179.43,112.1175 179.43,112.1175 C179.43,112.1175 176.738,109.3955 173.662,109.6695 C170.592,109.9385 168.319,113.1015 168.319,113.1015" id="Fill-9"></path>
                    <path d="M172.7379,98.581 C170.2399,101.114 170.5949,105.596 170.5949,105.596 C170.5949,105.596 174.9969,105.978 177.4939,103.445 C179.9909,100.919 179.6429,96.431 179.6429,96.431 C179.6429,96.431 175.2349,96.047 172.7379,98.581" id="Fill-11"></path>
                    <path d="M167.2301,123.1777 C170.2851,123.5397 173.1591,120.9117 173.1591,120.9117 C173.1591,120.9117 171.0741,117.6987 168.0191,117.3367 C164.9641,116.9827 162.0841,119.6097 162.0841,119.6097 C162.0841,119.6097 164.1681,122.8167 167.2301,123.1777" id="Fill-13"></path>
                    <path d="M169.9596,172.3466 L147.0996,172.3466 C145.3116,172.3466 143.8636,173.7876 143.8636,175.5756 C143.8636,177.3636 145.3116,178.8186 147.0996,178.8186 L169.9596,178.8186 C171.7476,178.8186 173.1886,177.3636 173.1886,175.5756 C173.1886,173.7876 171.7476,172.3466 169.9596,172.3466" id="Fill-15"></path>
                    <path d="M169.9596,207.9961 L147.0996,207.9961 C145.3116,207.9961 143.8636,209.4371 143.8636,211.2321 C143.8636,213.0141 145.3116,214.4691 147.0996,214.4691 L169.9596,214.4691 C171.7476,214.4691 173.1886,213.0141 173.1886,211.2321 C173.1886,209.4371 171.7476,207.9961 169.9596,207.9961" id="Fill-17"></path>
                    <path d="M67.1452,164.497 C66.6092,164.331 66.0742,164.186 65.5522,164.085 C65.5522,164.085 66.1392,164.266 67.1452,164.497" id="Fill-19"></path>
                    <path d="M104.195,178.4873 C105.701,178.5153 107.214,178.4723 108.726,178.3643 L108.726,190.3083 L104.195,190.2073 L104.195,178.4873 Z M169.12,181.0713 L147.931,181.0713 C146.911,181.0713 146.093,181.8963 146.093,182.9103 L146.093,189.3313 L132.259,190.8503 L112.056,190.3873 L112.056,178.0463 C114.742,177.7053 117.427,177.1703 120.098,176.4173 C139.549,170.9293 143.791,158.8123 143.364,147.6933 C142.944,136.3573 146.571,131.9643 151.776,130.0013 C153.267,129.4443 154.736,129.0893 156.097,128.8573 C156.155,131.6443 156.719,134.8803 157.965,138.7313 C158.421,138.7023 158.884,138.6663 159.341,138.6153 C158.03,134.6773 157.458,131.4343 157.429,128.6623 C160.13,128.3433 162.048,128.5243 162.048,128.5243 C162.048,128.5243 160.223,127.5483 157.661,125.4053 C158.529,120.0343 161.721,116.7403 165.015,113.3743 C166.825,111.5203 168.7,109.6023 170.17,107.3223 L169.026,106.5773 C167.635,108.7483 165.804,110.6163 164.046,112.4193 C160.824,115.7053 157.589,119.0633 156.488,124.3833 C155.446,123.4433 154.316,122.3283 153.166,121.0323 C148.366,115.6543 142.191,119.6063 133.382,127.8073 C124.572,135.9953 113.504,136.2773 102.682,125.2093 C88.415,110.6013 75.97,110.6813 67.429,111.5133 C73.271,113.9963 75.312,119.4543 78.265,133.3243 C81.364,147.8823 89.181,154.4683 99.859,155.3733 C94.915,156.1763 93.627,156.8643 85.656,162.3663 C79.438,166.6593 70.694,165.3043 67.146,164.4943 C73.654,166.5283 81.371,173.3623 88.269,175.7363 C92.287,177.1193 96.522,177.9723 100.865,178.3203 L100.865,190.1273 L62.543,189.3013 L62.543,197.5473 L132.259,195.9983 L146.093,197.5173 L146.093,203.9313 C146.093,204.9453 146.911,205.7773 147.931,205.7773 L169.12,205.7773 C170.133,205.7773 170.966,204.9453 170.966,203.9313 L170.966,182.9103 C170.966,181.8963 170.133,181.0713 169.12,181.0713 L169.12,181.0713 Z" id="Fill-21"></path>
                    <path d="M60.5641,196.1806 C60.5641,197.9186 59.3551,199.3296 57.8571,199.3296 L56.2281,199.3296 C54.7371,199.3296 53.5211,197.9186 53.5211,196.1806 L53.5211,190.4846 C53.5211,188.7466 54.7371,187.3346 56.2281,187.3346 L57.8571,187.3346 C59.3551,187.3346 60.5641,188.7466 60.5641,190.4846 L60.5641,196.1806 Z" id="Fill-23"></path>
                    <path d="M69.8532,3.624 L69.8532,12.601 L71.2642,12.601 C72.5752,12.601 73.1472,11.964 73.1472,10.719 L73.1472,5.47 C73.1472,4.225 72.5752,3.624 71.2642,3.624 L69.8532,3.624 Z M66.0242,0.497 L71.6992,0.497 C75.5642,0.497 76.9762,2.415 76.9762,5.608 L76.9762,10.415 C76.9762,13.606 75.5642,15.562 71.6992,15.562 L69.8532,15.562 L69.8532,23.292 L66.0242,23.292 L66.0242,0.497 Z" id="Fill-25"></path>
                    <path d="M81.651,16.0625 L84.713,16.0625 L83.2,6.9195 L83.164,6.9195 L81.651,16.0625 Z M76.844,23.2935 L81.152,0.4995 L85.516,0.4995 L89.852,23.2935 L85.922,23.2935 L85.213,19.1255 L81.152,19.1255 L80.478,23.2935 L76.844,23.2935 Z" id="Fill-27"></path>
                    <polygon id="Fill-29" points="94.9977 20.1621 100.8177 20.1621 100.8177 23.2901 90.9947 23.2901 90.9947 20.1621 97.0107 3.6221 91.5957 3.6221 91.5957 0.5021 101.0497 0.5021 101.0497 3.6221"></polygon>
                    <polygon id="Fill-31" points="106.8317 19.9297 104.8777 25.0697 102.7347 25.0697 103.1977 19.6257 106.8317 19.6257"></polygon>
                    <path d="M122.3913,0.5 L122.3913,18.112 C122.3913,21.405 120.9513,23.562 117.1143,23.562 C113.1543,23.562 112.0683,21.377 112.0683,18.48 L112.0683,13.942 L115.7033,13.942 L115.7033,18.554 C115.7033,19.689 116.1083,20.37 117.1143,20.37 C118.1563,20.37 118.5623,19.689 118.5623,18.518 L118.5623,0.5 L122.3913,0.5 Z" id="Fill-33"></path>
                    <path d="M135.5045,0.5 L135.5045,17.742 C135.5045,21.275 133.9905,23.562 130.0895,23.562 C126.0575,23.562 124.3785,21.275 124.3785,17.742 L124.3785,0.5 L128.2075,0.5 L128.2075,18.112 C128.2075,19.458 128.7425,20.37 130.0895,20.37 C131.4365,20.37 131.9795,19.458 131.9795,18.112 L131.9795,0.5 L135.5045,0.5 Z" id="Fill-35"></path>
                    <path d="M137.321,18.3808 L137.321,15.3258 L140.883,15.3258 L140.883,18.4458 C140.883,19.7278 141.455,20.4658 142.764,20.4658 C143.973,20.4658 144.509,19.6618 144.509,18.4458 L144.509,17.5778 C144.509,16.2678 143.973,15.4568 142.8,14.3498 L140.543,12.0978 C138.364,9.9418 137.357,8.6308 137.357,6.0098 L137.357,5.2428 C137.357,2.4118 138.993,0.2338 142.728,0.2338 C146.558,0.2338 148.071,2.1088 148.071,5.4088 L148.071,7.2548 L144.582,7.2548 L144.582,5.2718 C144.582,3.9618 143.973,3.3238 142.764,3.3238 C141.693,3.3238 140.948,3.9258 140.948,5.2068 L140.948,5.6778 C140.948,6.9508 141.657,7.6898 142.764,8.7688 L145.218,11.1858 C147.303,13.3068 148.317,14.5878 148.317,17.1078 L148.317,18.2148 C148.317,21.3418 146.631,23.5568 142.728,23.5568 C138.834,23.5568 137.321,21.3778 137.321,18.3808" id="Fill-37"></path>
                    <polygon id="Fill-39" points="149.2184 0.5 159.4034 0.5 159.4034 3.627 156.2464 3.627 156.2464 23.287 152.3814 23.287 152.3814 3.627 149.2184 3.627"></polygon>
                    <polygon id="Fill-41" points="161.013 23.285 164.843 23.285 164.843 0.497 161.013 0.497"></polygon>
                    <path d="M170.9704,25.6084 C172.0414,25.5804 172.2154,25.3404 172.2154,25.0734 C172.2154,24.8344 172.0124,24.7044 171.6794,24.7044 L171.5054,24.7044 L171.5054,23.4594 C168.2414,23.0534 166.9024,20.5994 166.9024,17.4074 L166.9024,6.3824 C166.9024,2.8214 168.5814,0.2294 172.6204,0.2294 C176.8484,0.2294 178.0284,2.5824 178.0284,5.9414 L178.0284,8.6334 L174.5324,8.6334 L174.5324,5.6444 C174.5324,4.2254 174.0614,3.4214 172.6784,3.4214 C171.3034,3.4214 170.7314,4.3994 170.7314,5.7744 L170.7314,18.0154 C170.7314,19.3904 171.3034,20.3684 172.6784,20.3684 C174.0614,20.3684 174.5324,19.4924 174.5324,18.1464 L174.5324,13.9474 L178.0284,13.9474 L178.0284,17.8784 C178.0284,21.0704 176.7534,23.4224 172.9464,23.5604 L172.9464,23.8574 C173.8584,23.9954 174.3654,24.3354 174.3654,25.0734 C174.3654,26.1154 173.3874,26.6804 170.9704,26.6804 L170.9704,25.6084 Z" id="Fill-43"></path>
                    <path d="M183.8073,16.0625 L186.8703,16.0625 L185.3563,6.9195 L185.3203,6.9195 L183.8073,16.0625 Z M179.0003,23.2935 L183.3083,0.4995 L187.6723,0.4995 L192.0163,23.2935 L188.0783,23.2935 L187.3693,19.1255 L183.3083,19.1255 L182.6343,23.2935 L179.0003,23.2935 Z" id="Fill-44"></path>
                    <polygon id="Fill-45" points="66.0221 32.2109 75.1641 32.2109 75.1641 35.3389 69.8511 35.3389 69.8511 41.8599 73.6511 41.8599 73.6511 44.9519 69.8511 44.9519 69.8511 51.8799 75.1641 51.8799 75.1641 54.9989 66.0221 54.9989"></polygon>
                    <polygon id="Fill-46" points="80.41 54.999 84.239 54.999 84.239 32.211 80.41 32.211"></polygon>
                    <polygon id="Fill-47" points="89.5192 40.6845 89.5192 55.0025 86.2902 55.0025 86.2902 32.2155 90.0552 32.2155 94.1962 45.2885 94.1962 32.2155 97.3882 32.2155 97.3882 55.0025 94.0222 55.0025"></polygon>
                    <path d="M99.1969,50.0937 L99.1969,47.0387 L102.7589,47.0387 L102.7589,50.1657 C102.7589,51.4407 103.3309,52.1787 104.6479,52.1787 C105.8569,52.1787 106.3919,51.3747 106.3919,50.1657 L106.3919,49.2897 C106.3919,47.9807 105.8569,47.1687 104.6769,46.0627 L102.4259,43.8107 C100.2399,41.6607 99.2329,40.3507 99.2329,37.7307 L99.2329,36.9557 C99.2329,34.1247 100.8769,31.9467 104.6119,31.9467 C108.4409,31.9467 109.9539,33.8277 109.9539,37.1217 L109.9539,38.9677 L106.4579,38.9677 L106.4579,36.9847 C106.4579,35.6747 105.8569,35.0367 104.6479,35.0367 C103.5689,35.0367 102.8309,35.6387 102.8309,36.9197 L102.8309,37.3897 C102.8309,38.6637 103.5409,39.4027 104.6479,40.4817 L107.1019,42.9057 C109.1789,45.0197 110.1929,46.3007 110.1929,48.8207 L110.1929,49.9277 C110.1929,53.0547 108.5069,55.2697 104.6119,55.2697 C100.7109,55.2697 99.1969,53.0907 99.1969,50.0937" id="Fill-48"></path>
                    <polygon id="Fill-49" points="111.1012 32.2109 121.2792 32.2109 121.2792 35.3389 118.1222 35.3389 118.1222 54.9989 114.2572 54.9989 114.2572 35.3389 111.1012 35.3389"></polygon>
                    <polygon id="Fill-50" points="122.901 54.999 126.731 54.999 126.731 32.211 122.901 32.211"></polygon>
                    <polygon id="Fill-51" points="128.3424 32.2109 138.5284 32.2109 138.5284 35.3389 135.3714 35.3389 135.3714 54.9989 131.5064 54.9989 131.5064 35.3389 128.3424 35.3389"></polygon>
                    <path d="M151.2682,32.2109 L151.2682,49.4539 C151.2682,52.9869 149.7552,55.2739 145.8612,55.2739 C141.8222,55.2739 140.1422,52.9869 140.1422,49.4539 L140.1422,32.2109 L143.9712,32.2109 L143.9712,49.8239 C143.9712,51.1699 144.5072,52.0819 145.8612,52.0819 C147.2002,52.0819 147.7432,51.1699 147.7432,49.8239 L147.7432,32.2109 L151.2682,32.2109 Z" id="Fill-52"></path>
                    <polygon id="Fill-53" points="153.29 54.999 157.12 54.999 157.12 32.211 153.29 32.211"></polygon>
                    <path d="M163.237,57.3213 C164.308,57.2933 164.482,57.0533 164.482,56.7863 C164.482,56.5543 164.287,56.4173 163.946,56.4173 L163.772,56.4173 L163.772,55.1723 C160.515,54.7663 159.169,52.3123 159.169,49.1203 L159.169,38.0953 C159.169,34.5343 160.848,31.9423 164.887,31.9423 C169.115,31.9423 170.301,34.2953 170.301,37.6613 L170.301,40.3463 L166.799,40.3463 L166.799,37.3563 C166.799,35.9453 166.335,35.1413 164.953,35.1413 C163.577,35.1413 163.006,36.1123 163.006,37.4873 L163.006,49.7283 C163.006,51.1033 163.577,52.0813 164.953,52.0813 C166.335,52.0813 166.799,51.2053 166.799,49.8583 L166.799,45.6603 L170.301,45.6603 L170.301,49.5913 C170.301,52.7833 169.02,55.1353 165.22,55.2733 L165.22,55.5773 C166.125,55.7073 166.632,56.0483 166.632,56.7863 C166.632,57.8283 165.662,58.4003 163.237,58.4003 L163.237,57.3213 Z" id="Fill-54"></path>
                    <path d="M179.9762,49.7256 L179.9762,37.4926 C179.9762,36.1096 179.3752,35.1396 178.0002,35.1396 C176.6472,35.1396 176.0452,36.1096 176.0452,37.4926 L176.0452,49.7256 C176.0452,51.1016 176.6472,52.0786 178.0002,52.0786 C179.3752,52.0786 179.9762,51.1016 179.9762,49.7256 L179.9762,49.7256 Z M174.4972,31.3026 C174.5692,29.7256 175.1692,28.4516 176.8492,28.4516 C177.8272,28.4516 178.6302,29.0226 179.1362,29.0226 C179.4052,29.0226 179.6072,28.8496 179.6072,28.5156 L181.4902,28.5156 C181.4242,30.0936 180.8162,31.3686 179.1362,31.3686 C178.1602,31.3686 177.3562,30.7956 176.8492,30.7956 C176.5812,30.7956 176.3782,30.9706 176.3782,31.3026 L174.4972,31.3026 Z M172.2162,49.1246 L172.2162,38.0926 C172.2162,34.5316 173.9602,31.9406 178.0002,31.9406 C182.0612,31.9406 183.8062,34.5316 183.8062,38.0926 L183.8062,49.1246 C183.8062,52.6506 182.0612,55.2716 178.0002,55.2716 C173.9602,55.2716 172.2162,52.6506 172.2162,49.1246 L172.2162,49.1246 Z" id="Fill-55"></path>
                    <polygon id="Fill-56" points="185.8288 32.2109 194.9718 32.2109 194.9718 35.3389 189.6588 35.3389 189.6588 41.8599 193.4588 41.8599 193.4588 44.9519 189.6588 44.9519 189.6588 51.8799 194.9718 51.8799 194.9718 54.9989 185.8288 54.9989"></polygon>
                    <path d="M196.4821,50.0937 L196.4821,47.0387 L200.0441,47.0387 L200.0441,50.1657 C200.0441,51.4407 200.6161,52.1787 201.9331,52.1787 C203.1421,52.1787 203.6771,51.3747 203.6771,50.1657 L203.6771,49.2897 C203.6771,47.9807 203.1421,47.1687 201.9621,46.0627 L199.7111,43.8107 C197.5321,41.6607 196.5181,40.3507 196.5181,37.7307 L196.5181,36.9557 C196.5181,34.1247 198.1621,31.9467 201.8971,31.9467 C205.7261,31.9467 207.2391,33.8277 207.2391,37.1217 L207.2391,38.9677 L203.7431,38.9677 L203.7431,36.9847 C203.7431,35.6747 203.1421,35.0367 201.9331,35.0367 C200.8551,35.0367 200.1171,35.6387 200.1171,36.9197 L200.1171,37.3897 C200.1171,38.6637 200.8261,39.4027 201.9331,40.4817 L204.3871,42.9057 C206.4641,45.0197 207.4781,46.3007 207.4781,48.8207 L207.4781,49.9277 C207.4781,53.0547 205.7921,55.2697 201.8971,55.2697 C197.9961,55.2697 196.4821,53.0907 196.4821,50.0937" id="Fill-57"></path>
                    <polygon id="Fill-58" points="66.0221 63.9238 75.1641 63.9238 75.1641 67.0518 69.8511 67.0518 69.8511 73.5728 73.6511 73.5728 73.6511 76.6638 69.8511 76.6638 69.8511 83.5918 75.1641 83.5918 75.1641 86.7118 66.0221 86.7118"></polygon>
                    <polygon id="Fill-59" points="77.0417 63.9238 86.0187 63.9238 86.0187 67.0518 80.8717 67.0518 80.8717 73.5728 84.7157 73.5728 84.7157 76.6638 80.8717 76.6638 80.8717 86.7118 77.0417 86.7118"></polygon>
                    <polygon id="Fill-60" points="87.533 86.712 91.362 86.712 91.362 63.924 87.533 63.924"></polygon>
                    <path d="M93.4137,80.833 L93.4137,69.809 C93.4137,66.239 95.0937,63.655 99.1327,63.655 C103.3677,63.655 104.5397,66.008 104.5397,69.374 L104.5397,72.06 L101.0517,72.06 L101.0517,69.07 C101.0517,67.659 100.5727,66.848 99.1977,66.848 C97.8147,66.848 97.2437,67.825 97.2437,69.208 L97.2437,81.434 C97.2437,82.816 97.8147,83.794 99.1977,83.794 C100.5727,83.794 101.0517,82.918 101.0517,81.572 L101.0517,77.366 L104.5397,77.366 L104.5397,81.304 C104.5397,84.568 103.2007,86.986 99.1327,86.986 C95.0937,86.986 93.4137,84.366 93.4137,80.833" id="Fill-61"></path>
                    <path d="M110.3239,79.4902 L113.3869,79.4902 L111.8729,70.3482 L111.8369,70.3482 L110.3239,79.4902 Z M105.5169,86.7152 L109.8169,63.9272 L114.1889,63.9272 L118.5249,86.7152 L114.5949,86.7152 L113.8859,82.5462 L109.8169,82.5462 L109.1509,86.7152 L105.5169,86.7152 Z" id="Fill-62"></path>
                    <polygon id="Fill-63" points="123.6706 83.5908 129.4826 83.5908 129.4826 86.7178 119.6666 86.7178 119.6666 83.5908 125.6826 67.0498 120.2686 67.0498 120.2686 63.9228 129.7226 63.9228 129.7226 67.0498"></polygon>
                    <polygon id="Fill-64" points="131.567 63.9238 140.716 63.9238 140.716 67.0518 135.396 67.0518 135.396 73.5728 139.204 73.5728 139.204 76.6638 135.396 76.6638 135.396 83.5918 140.716 83.5918 140.716 86.7118 131.567 86.7118"></polygon>
                    <path d="M142.2272,81.8086 L142.2272,78.7466 L145.7892,78.7466 L145.7892,81.8736 C145.7892,83.1556 146.3602,83.8936 147.6702,83.8936 C148.8792,83.8936 149.4222,83.0826 149.4222,81.8736 L149.4222,81.0056 C149.4222,79.6956 148.8792,78.8846 147.7062,77.7776 L145.4482,75.5266 C143.2692,73.3696 142.2632,72.0586 142.2632,69.4386 L142.2632,68.6626 C142.2632,65.8396 143.9062,63.6546 147.6342,63.6546 C151.4632,63.6546 152.9842,65.5366 152.9842,68.8366 L152.9842,70.6826 L149.4872,70.6826 L149.4872,68.7006 C149.4872,67.3896 148.8792,66.7456 147.6702,66.7456 C146.5992,66.7456 145.8612,67.3536 145.8612,68.6346 L145.8612,69.1056 C145.8612,70.3786 146.5632,71.1176 147.6702,72.1966 L150.1242,74.6146 C152.2092,76.7346 153.2222,78.0086 153.2222,80.5356 L153.2222,81.6426 C153.2222,84.7706 151.5362,86.9856 147.6342,86.9856 C143.7402,86.9856 142.2272,84.7986 142.2272,81.8086" id="Fill-65"></path>
                    <polygon id="Fill-2" points="0.7585 10.6543 0.7585 20.2033 0.8385 20.2033 7.2515 13.5433 7.3385 13.5433 7.3385 55.1873 16.4885 55.1873 16.4885 0.7813 9.1845 0.7813"></polygon>
                </g>
            </g>
        </g>
    </g>
</svg>