<?xml version="1.0" encoding="UTF-8"?>
<svg width="270px" height="270px" viewBox="0 0 270 270" version="1.1" xmlns="http://www.w3.org/2000/svg" xmlns:xlink="http://www.w3.org/1999/xlink">
    <title>ODS17</title>
    <g id="Page-1" stroke="none" stroke-width="1" fill="none" fill-rule="evenodd">
        <g id="ODS_17_detalhe_img1" transform="translate(-576.000000, -304.000000)">
            <g id="ODS17" transform="translate(576.000000, 304.000000)">
                <polygon id="Fill-1" fill="#19486A" points="2.38742359e-12 269.841 269.827 269.841 269.827 -5.68434189e-14 2.38742359e-12 -5.68434189e-14"></polygon>
                <g id="Group-51" transform="translate(24.000000, 20.841000)" fill="#FFFFFF">
                    <path d="M64.9247,4.3361 L64.9247,13.3131 L66.3357,13.3131 C67.6537,13.3131 68.2177,12.6761 68.2177,11.4311 L68.2177,6.1821 C68.2177,4.9371 67.6537,4.3361 66.3357,4.3361 L64.9247,4.3361 Z M61.0957,1.2091 L66.7777,1.2091 C70.6437,1.2091 72.0547,3.1271 72.0547,6.3191 L72.0547,11.1261 C72.0547,14.3181 70.6437,16.2741 66.7777,16.2741 L64.9247,16.2741 L64.9247,24.0041 L61.0957,24.0041 L61.0957,1.2091 Z" id="Fill-4"></path>
                    <path d="M76.7304,16.7746 L79.7924,16.7746 L78.2794,7.6316 L78.2364,7.6316 L76.7304,16.7746 Z M71.9234,24.0056 L76.2234,1.2116 L80.5884,1.2116 L84.9314,24.0056 L80.9944,24.0056 L80.2924,19.8366 L76.2234,19.8366 L75.5504,24.0056 L71.9234,24.0056 Z" id="Fill-6"></path>
                    <path d="M90.1757,4.3361 L90.1757,11.4311 L91.4567,11.4311 C92.7597,11.4311 93.3387,10.7571 93.3387,9.5481 L93.3387,6.1821 C93.3387,4.9371 92.7597,4.3361 91.4567,4.3361 L90.1757,4.3361 Z M90.1757,13.5441 L90.1757,24.0041 L86.3467,24.0041 L86.3467,1.2091 L91.9197,1.2091 C95.7857,1.2091 97.2047,3.1271 97.2047,6.3191 L97.2047,9.2441 C97.2047,11.6981 96.3287,13.1461 94.1427,13.6521 L97.8057,24.0041 L93.7667,24.0041 L90.1757,13.5441 Z" id="Fill-8"></path>
                    <path d="M99.1181,18.1212 L99.1181,7.0972 C99.1181,3.5272 100.7911,0.9432 104.8301,0.9432 C109.0641,0.9432 110.2441,3.2962 110.2441,6.6622 L110.2441,9.3482 L106.7481,9.3482 L106.7481,6.3572 C106.7481,4.9392 106.2701,4.1362 104.8951,4.1362 C103.5191,4.1362 102.9481,5.1122 102.9481,6.4882 L102.9481,18.7222 C102.9481,20.1042 103.5191,21.0822 104.8951,21.0822 C106.2701,21.0822 106.7481,20.2062 106.7481,18.8592 L106.7481,14.6532 L110.2441,14.6532 L110.2441,18.5922 C110.2441,21.8492 108.8981,24.2742 104.8301,24.2742 C100.7911,24.2742 99.1181,21.6462 99.1181,18.1212" id="Fill-10"></path>
                    <polygon id="Fill-12" points="112.1532 1.2111 121.3032 1.2111 121.3032 4.3391 115.9902 4.3391 115.9902 10.8601 119.7902 10.8601 119.7902 13.9521 115.9902 13.9521 115.9902 20.8801 121.3032 20.8801 121.3032 23.9991 112.1532 23.9991"></polygon>
                    <path d="M127.0136,4.3361 L127.0136,11.4311 L128.2946,11.4311 C129.5976,11.4311 130.1766,10.7571 130.1766,9.5481 L130.1766,6.1821 C130.1766,4.9371 129.5976,4.3361 128.2946,4.3361 L127.0136,4.3361 Z M127.0136,13.5441 L127.0136,24.0041 L123.1836,24.0041 L123.1836,1.2091 L128.7646,1.2091 C132.6226,1.2091 134.0416,3.1271 134.0416,6.3191 L134.0416,9.2441 C134.0416,11.6981 133.1736,13.1461 130.9806,13.6521 L134.6506,24.0041 L130.6116,24.0041 L127.0136,13.5441 Z" id="Fill-14"></path>
                    <polygon id="Fill-16" points="135.956 23.996 139.785 23.996 139.785 1.208 135.956 1.208"></polygon>
                    <path d="M146.0438,16.7746 L149.1058,16.7746 L147.5928,7.6316 L147.5568,7.6316 L146.0438,16.7746 Z M141.2368,24.0056 L145.5438,1.2116 L149.9008,1.2116 L154.2448,24.0056 L150.3148,24.0056 L149.6048,19.8366 L145.5438,19.8366 L144.8628,24.0056 L141.2368,24.0056 Z" id="Fill-18"></path>
                    <path d="M155.12,19.0929 L155.12,16.0379 L158.682,16.0379 L158.682,19.1579 C158.682,20.4399 159.254,21.1779 160.563,21.1779 C161.772,21.1779 162.308,20.3739 162.308,19.1579 L162.308,18.2899 C162.308,16.9799 161.772,16.1679 160.599,15.0619 L158.342,12.8099 C156.163,10.6529 155.149,9.3419 155.149,6.7299 L155.149,5.9549 C155.149,3.1239 156.792,0.9459 160.527,0.9459 C164.356,0.9459 165.87,2.8209 165.87,6.1209 L165.87,7.9669 L162.381,7.9669 L162.381,5.9839 C162.381,4.6739 161.772,4.0359 160.563,4.0359 C159.492,4.0359 158.747,4.6379 158.747,5.9189 L158.747,6.3889 C158.747,7.6629 159.456,8.4019 160.563,9.4809 L163.017,11.8979 C165.102,14.0189 166.116,15.2999 166.116,17.8199 L166.116,18.9269 C166.116,22.0539 164.43,24.2689 160.527,24.2689 C156.633,24.2689 155.12,22.0899 155.12,19.0929" id="Fill-19"></path>
                    <path d="M175.1542,4.3361 L175.1542,13.3131 L176.5582,13.3131 C177.8762,13.3131 178.4482,12.6761 178.4482,11.4311 L178.4482,6.1821 C178.4482,4.9371 177.8762,4.3361 176.5582,4.3361 L175.1542,4.3361 Z M171.3172,1.2091 L177.0002,1.2091 C180.8662,1.2091 182.2772,3.1271 182.2772,6.3191 L182.2772,11.1261 C182.2772,14.3181 180.8662,16.2741 177.0002,16.2741 L175.1542,16.2741 L175.1542,24.0041 L171.3172,24.0041 L171.3172,1.2091 Z" id="Fill-20"></path>
                    <path d="M186.952,16.7746 L190.014,16.7746 L188.494,7.6316 L188.465,7.6316 L186.952,16.7746 Z M182.145,24.0056 L186.445,1.2116 L190.817,1.2116 L195.153,24.0056 L191.223,24.0056 L190.514,19.8366 L186.445,19.8366 L185.779,24.0056 L182.145,24.0056 Z" id="Fill-21"></path>
                    <path d="M200.3983,4.3361 L200.3983,11.4311 L201.6793,11.4311 C202.9823,11.4311 203.5613,10.7571 203.5613,9.5481 L203.5613,6.1821 C203.5613,4.9371 202.9823,4.3361 201.6793,4.3361 L200.3983,4.3361 Z M200.3983,13.5441 L200.3983,24.0041 L196.5693,24.0041 L196.5693,1.2091 L202.1423,1.2091 C206.0083,1.2091 207.4263,3.1271 207.4263,6.3191 L207.4263,9.2441 C207.4263,11.6981 206.5503,13.1461 204.3653,13.6521 L208.0283,24.0041 L203.9963,24.0041 L200.3983,13.5441 Z" id="Fill-22"></path>
                    <path d="M213.5399,16.7746 L216.6019,16.7746 L215.0889,7.6316 L215.0529,7.6316 L213.5399,16.7746 Z M208.7329,24.0056 L213.0399,1.2116 L217.4049,1.2116 L221.7479,24.0056 L217.8109,24.0056 L217.1009,19.8366 L213.0399,19.8366 L212.3669,24.0056 L208.7329,24.0056 Z" id="Fill-23"></path>
                    <path d="M65.2997,48.4904 L68.3547,48.4904 L66.8417,39.3474 L66.8127,39.3474 L65.2997,48.4904 Z M60.4927,55.7154 L64.7927,32.9274 L69.1647,32.9274 L73.5007,55.7154 L69.5707,55.7154 L68.8617,51.5454 L64.7927,51.5454 L64.1267,55.7154 L60.4927,55.7154 Z" id="Fill-24"></path>
                    <polygon id="Fill-25" points="77.467 55.709 81.296 55.709 81.296 32.921 77.467 32.921"></polygon>
                    <polygon id="Fill-26" points="93.4979 40.9259 93.3969 40.9259 90.8119 55.7149 89.0319 55.7149 86.1729 40.9259 86.1069 40.9259 86.1069 55.7149 82.9439 55.7149 82.9439 32.9269 87.4179 32.9269 89.8999 45.7619 89.9439 45.7619 92.1519 32.9269 96.9949 32.9269 96.9949 55.7149 93.4979 55.7149"></polygon>
                    <path d="M102.4403,36.0519 L102.4403,45.0289 L103.8523,45.0289 C105.1693,45.0289 105.7413,44.3839 105.7413,43.1389 L105.7413,37.8989 C105.7413,36.6539 105.1693,36.0519 103.8523,36.0519 L102.4403,36.0519 Z M98.6113,32.9259 L104.2943,32.9259 C108.1593,32.9259 109.5633,34.8439 109.5633,38.0359 L109.5633,42.8349 C109.5633,46.0339 108.1593,47.9819 104.2943,47.9819 L102.4403,47.9819 L102.4403,55.7129 L98.6113,55.7129 L98.6113,32.9259 Z" id="Fill-27"></path>
                    <polygon id="Fill-28" points="110.9804 32.923 114.8094 32.923 114.8094 52.591 119.3844 52.591 119.3844 55.711 110.9804 55.711"></polygon>
                    <polygon id="Fill-29" points="120.5595 32.923 129.7085 32.923 129.7085 36.051 124.3955 36.051 124.3955 42.572 128.1965 42.572 128.1965 45.663 124.3955 45.663 124.3955 52.591 129.7085 52.591 129.7085 55.711 120.5595 55.711"></polygon>
                    <polygon id="Fill-30" points="141.7382 40.9259 141.6362 40.9259 139.0522 55.7149 137.2712 55.7149 134.4122 40.9259 134.3462 40.9259 134.3462 55.7149 131.1832 55.7149 131.1832 32.9269 135.6572 32.9269 138.1392 45.7619 138.1762 45.7619 140.3912 32.9269 145.2342 32.9269 145.2342 55.7149 141.7382 55.7149"></polygon>
                    <polygon id="Fill-31" points="146.8495 32.923 155.9985 32.923 155.9985 36.051 150.6785 36.051 150.6785 42.572 154.4865 42.572 154.4865 45.663 150.6785 45.663 150.6785 52.591 155.9985 52.591 155.9985 55.711 146.8495 55.711"></polygon>
                    <polygon id="Fill-32" points="160.6981 41.3957 160.6981 55.7137 157.4761 55.7137 157.4761 32.9257 161.2331 32.9257 165.3741 45.9997 165.3741 32.9257 168.5661 32.9257 168.5661 55.7137 165.2001 55.7137"></polygon>
                    <polygon id="Fill-33" points="169.746 32.923 179.924 32.923 179.924 36.051 176.767 36.051 176.767 55.711 172.902 55.711 172.902 36.051 169.746 36.051"></polygon>
                    <path d="M183.6581,48.4904 L186.7211,48.4904 L185.2081,39.3474 L185.1721,39.3474 L183.6581,48.4904 Z M178.8511,55.7154 L183.1591,32.9274 L187.5241,32.9274 L191.8601,55.7154 L187.9291,55.7154 L187.2201,51.5454 L183.1591,51.5454 L182.4851,55.7154 L178.8511,55.7154 Z" id="Fill-34"></path>
                    <path d="M196.4325,58.0334 C197.5035,58.0054 197.6765,57.7654 197.6765,57.4984 C197.6765,57.2664 197.4815,57.1284 197.1415,57.1284 L196.9675,57.1284 L196.9675,55.8844 C193.7095,55.4784 192.3645,53.0244 192.3645,49.8324 L192.3645,38.8074 C192.3645,35.2464 194.0505,32.6544 198.0825,32.6544 C202.3105,32.6544 203.4965,35.0074 203.4965,38.3734 L203.4965,41.0584 L199.9935,41.0584 L199.9935,38.0684 C199.9935,36.6574 199.5235,35.8534 198.1405,35.8534 C196.7725,35.8534 196.2005,36.8234 196.2005,38.1994 L196.2005,50.4404 C196.2005,51.8154 196.7725,52.7924 198.1405,52.7924 C199.5235,52.7924 199.9935,51.9174 199.9935,50.5704 L199.9935,46.3724 L203.4965,46.3724 L203.4965,50.3024 C203.4965,53.5024 202.2155,55.8474 198.4145,55.9854 L198.4145,56.2894 C199.3205,56.4194 199.8335,56.7604 199.8335,57.4984 C199.8335,58.5404 198.8575,59.1124 196.4325,59.1124 L196.4325,58.0334 Z" id="Fill-35"></path>
                    <path d="M208.8739,48.4904 L211.9289,48.4904 L210.4159,39.3474 L210.3799,39.3474 L208.8739,48.4904 Z M207.0579,32.0214 C207.1219,30.4364 207.7299,29.1624 209.4019,29.1624 C210.3799,29.1624 211.1899,29.7344 211.6969,29.7344 C211.9649,29.7344 212.1599,29.5604 212.1599,29.2274 L214.0499,29.2274 C213.9779,30.8054 213.3769,32.0804 211.6969,32.0804 C210.7199,32.0804 209.9169,31.5144 209.4019,31.5144 C209.1419,31.5144 208.9389,31.6814 208.9389,32.0214 L207.0579,32.0214 Z M204.0669,55.7154 L208.3669,32.9274 L212.7319,32.9274 L217.0759,55.7154 L213.1379,55.7154 L212.4359,51.5454 L208.3669,51.5454 L207.6939,55.7154 L204.0669,55.7154 Z" id="Fill-36"></path>
                    <path d="M225.3456,50.4377 L225.3456,38.2047 C225.3456,36.8217 224.7376,35.8517 223.3626,35.8517 C222.0156,35.8517 221.4076,36.8217 221.4076,38.2047 L221.4076,50.4377 C221.4076,51.8127 222.0156,52.7907 223.3626,52.7907 C224.7376,52.7907 225.3456,51.8127 225.3456,50.4377 M217.5776,49.8367 L217.5776,38.8047 C217.5776,35.2437 219.3296,32.6527 223.3626,32.6527 C227.4226,32.6527 229.1746,35.2437 229.1746,38.8047 L229.1746,49.8367 C229.1746,53.3627 227.4226,55.9827 223.3626,55.9827 C219.3296,55.9827 217.5776,53.3627 217.5776,49.8367" id="Fill-37"></path>
                    <path d="M66.5438,84.3019 C68.1218,84.3019 68.7298,83.3619 68.7298,81.9869 L68.7298,70.0489 C68.7298,68.7029 68.1218,67.7619 66.5438,67.7619 L64.9218,67.7619 L64.9218,84.3019 L66.5438,84.3019 Z M72.5598,70.7519 L72.5598,81.3129 C72.5598,84.8089 71.1108,87.4299 67.0068,87.4299 L61.0928,87.4299 L61.0928,64.6419 L67.0068,64.6419 C71.1108,64.6419 72.5598,67.2269 72.5598,70.7519 L72.5598,70.7519 Z" id="Fill-38"></path>
                    <path d="M82.3436,82.1496 L82.3436,69.9166 C82.3436,68.5416 81.7356,67.5636 80.3606,67.5636 C79.0136,67.5636 78.4056,68.5416 78.4056,69.9166 L78.4056,82.1496 C78.4056,83.5246 79.0136,84.5026 80.3606,84.5026 C81.7356,84.5026 82.3436,83.5246 82.3436,82.1496 M74.5756,81.5486 L74.5756,70.5246 C74.5756,66.9556 76.3206,64.3636 80.3606,64.3636 C84.4276,64.3636 86.1726,66.9556 86.1726,70.5246 L86.1726,81.5486 C86.1726,85.0746 84.4276,87.7016 80.3606,87.7016 C76.3206,87.7016 74.5756,85.0746 74.5756,81.5486" id="Fill-39"></path>
                    <path d="M87.9843,82.5207 L87.9843,79.4587 L91.5533,79.4587 L91.5533,82.5857 C91.5533,83.8677 92.1183,84.6057 93.4353,84.6057 C94.6443,84.6057 95.1793,83.8017 95.1793,82.5857 L95.1793,81.7177 C95.1793,80.4077 94.6443,79.5967 93.4713,78.4897 L91.2133,76.2377 C89.0343,74.0817 88.0203,72.7707 88.0203,70.1497 L88.0203,69.3747 C88.0203,66.5517 89.6643,64.3667 93.3993,64.3667 C97.2283,64.3667 98.7413,66.2487 98.7413,69.5487 L98.7413,71.3947 L95.2523,71.3947 L95.2523,69.4117 C95.2523,68.1017 94.6443,67.4577 93.4353,67.4577 C92.3563,67.4577 91.6183,68.0657 91.6183,69.3467 L91.6183,69.8177 C91.6183,71.0907 92.3283,71.8297 93.4353,72.9087 L95.8893,75.3267 C97.9733,77.4467 98.9873,78.7207 98.9873,81.2477 L98.9873,82.3547 C98.9873,85.4817 97.2943,87.6967 93.3993,87.6967 C89.4973,87.6967 87.9843,85.5107 87.9843,82.5207" id="Fill-40"></path>
                    <path d="M111.9559,82.1496 L111.9559,69.9166 C111.9559,68.5416 111.3479,67.5636 109.9729,67.5636 C108.6259,67.5636 108.0179,68.5416 108.0179,69.9166 L108.0179,82.1496 C108.0179,83.5246 108.6259,84.5026 109.9729,84.5026 C111.3479,84.5026 111.9559,83.5246 111.9559,82.1496 M104.1879,81.5486 L104.1879,70.5246 C104.1879,66.9556 105.9339,64.3636 109.9729,64.3636 C114.0409,64.3636 115.7849,66.9556 115.7849,70.5246 L115.7849,81.5486 C115.7849,85.0746 114.0409,87.7016 109.9729,87.7016 C105.9339,87.7016 104.1879,85.0746 104.1879,81.5486" id="Fill-41"></path>
                    <path d="M121.6337,77.1769 L121.6337,84.2999 L123.3127,84.2999 C124.5937,84.2999 125.1957,83.6629 125.1957,82.4539 L125.1957,79.0229 C125.1957,77.8139 124.6297,77.1769 123.2837,77.1769 L121.6337,77.1769 Z M121.6337,74.2519 L122.9797,74.2519 C124.2177,74.2519 124.7967,73.6149 124.7967,72.3999 L124.7967,69.6129 C124.7967,68.3669 124.2177,67.7669 122.9507,67.7669 L121.6337,67.7669 L121.6337,74.2519 Z M117.8037,64.6389 L123.3497,64.6389 C127.1857,64.6389 128.4597,66.4199 128.4597,69.6489 L128.4597,71.9649 C128.4597,73.8829 127.7577,75.0919 126.1717,75.5989 C128.0907,76.0329 129.0307,77.3149 129.0307,79.3919 L129.0307,82.4249 C129.0307,85.6469 127.5837,87.4269 123.7547,87.4269 L117.8037,87.4269 L117.8037,64.6389 Z" id="Fill-42"></path>
                    <path d="M140.9677,64.6398 L140.9677,82.2518 C140.9677,85.5448 139.5197,87.7018 135.6907,87.7018 C131.7237,87.7018 130.6457,85.5088 130.6457,82.6208 L130.6457,78.0818 L134.2717,78.0818 L134.2717,82.6938 C134.2717,83.8288 134.6767,84.5028 135.6907,84.5028 C136.7257,84.5028 137.1307,83.8288 137.1307,82.6578 L137.1307,64.6398 L140.9677,64.6398 Z" id="Fill-43"></path>
                    <polygon id="Fill-44" points="142.9462 64.6398 152.0962 64.6398 152.0962 67.7668 146.7762 67.7668 146.7762 74.2888 150.5842 74.2888 150.5842 77.3798 146.7762 77.3798 146.7762 84.2998 152.0962 84.2998 152.0962 87.4268 142.9462 87.4268"></polygon>
                    <polygon id="Fill-45" points="153.536 64.6398 163.722 64.6398 163.722 67.7668 160.565 67.7668 160.565 87.4268 156.7 87.4268 156.7 67.7668 153.536 67.7668"></polygon>
                    <polygon id="Fill-46" points="165.339 87.43 169.168 87.43 169.168 64.642 165.339 64.642"></polygon>
                    <polygon id="Fill-47" points="183.4882 64.6398 179.1452 87.4268 174.9822 87.4268 170.6462 64.6398 174.5492 64.6398 177.1692 80.5358 177.1982 80.5358 179.8902 64.6398"></polygon>
                    <path d="M191.9921,82.1496 L191.9921,69.9166 C191.9921,68.5416 191.3911,67.5636 190.0161,67.5636 C188.6631,67.5636 188.0611,68.5416 188.0611,69.9166 L188.0611,82.1496 C188.0611,83.5246 188.6631,84.5026 190.0161,84.5026 C191.3911,84.5026 191.9921,83.5246 191.9921,82.1496 M184.2251,81.5486 L184.2251,70.5246 C184.2251,66.9556 185.9771,64.3636 190.0161,64.3636 C194.0771,64.3636 195.8221,66.9556 195.8221,70.5246 L195.8221,81.5486 C195.8221,85.0746 194.0771,87.7016 190.0161,87.7016 C185.9771,87.7016 184.2251,85.0746 184.2251,81.5486" id="Fill-48"></path>
                    <path d="M197.6405,82.5207 L197.6405,79.4587 L201.2025,79.4587 L201.2025,82.5857 C201.2025,83.8677 201.7745,84.6057 203.0845,84.6057 C204.3005,84.6057 204.8355,83.8017 204.8355,82.5857 L204.8355,81.7177 C204.8355,80.4077 204.3005,79.5967 203.1205,78.4897 L200.8625,76.2377 C198.6835,74.0817 197.6765,72.7707 197.6765,70.1497 L197.6765,69.3747 C197.6765,66.5517 199.3205,64.3667 203.0555,64.3667 C206.8775,64.3667 208.3905,66.2487 208.3905,69.5487 L208.3905,71.3947 L204.9015,71.3947 L204.9015,69.4117 C204.9015,68.1017 204.3005,67.4577 203.0845,67.4577 C202.0135,67.4577 201.2675,68.0657 201.2675,69.3467 L201.2675,69.8177 C201.2675,71.0907 201.9775,71.8297 203.0845,72.9087 L205.5455,75.3267 C207.6225,77.4467 208.6365,78.7207 208.6365,81.2477 L208.6365,82.3547 C208.6365,85.4817 206.9505,87.6967 203.0555,87.6967 C199.1545,87.6967 197.6405,85.5107 197.6405,82.5207" id="Fill-49"></path>
                    <path d="M132.0468,152.6613 C138.1708,146.9793 142.0068,138.8793 142.0068,129.8883 C142.0068,128.5423 141.9128,127.2183 141.7458,125.9223 C154.1908,127.2463 163.9038,137.8003 163.9038,150.5923 C163.9038,157.8593 160.7478,164.3813 155.7538,168.9273 C151.0768,160.1613 142.3248,153.8923 132.0468,152.6613 M153.1408,183.5063 C153.1408,197.1813 142.0068,208.3133 128.3258,208.3133 C123.8738,208.3133 119.7038,207.1193 116.0918,205.0633 C121.3618,199.4893 124.6268,191.9693 124.6268,183.7093 C124.6268,181.6753 124.4168,179.6913 124.0478,177.7653 C128.5068,180.2493 133.6318,181.6603 139.0898,181.6603 C143.9468,181.6603 148.5438,180.5383 152.6408,178.5483 C152.9738,180.1473 153.1408,181.8053 153.1408,183.5063 M68.7288,183.7093 C68.7288,181.9423 68.9168,180.2273 69.2718,178.5693 C73.3688,180.5533 77.9428,181.6603 82.7788,181.6603 C88.2228,181.6603 93.3328,180.2563 97.7918,177.7873 C97.4448,179.6403 97.2488,181.5523 97.2488,183.5063 C97.2488,191.8963 100.6008,199.5183 106.0298,205.1143 C102.3598,207.2643 98.1038,208.5233 93.5508,208.5233 C79.8608,208.5233 68.7288,197.3903 68.7288,183.7093 M57.9718,150.5923 C57.9718,137.8003 67.6868,127.2543 80.1218,125.9223 C79.9558,127.2183 79.8608,128.5423 79.8608,129.8883 C79.8608,138.9733 83.7848,147.1603 90.0108,152.8433 C79.7098,154.0153 70.9148,160.2483 66.1878,168.9853 C61.1558,164.4463 57.9718,157.8883 57.9718,150.5923 M110.9308,105.0733 C121.1018,105.0733 129.8458,111.2203 133.6828,119.9933 C123.5838,121.7733 115.1578,128.4403 110.9308,137.4533 C106.7108,128.4333 98.2848,121.7733 88.1868,119.9933 C92.0238,111.2203 100.7678,105.0733 110.9308,105.0733 M116.8378,161.5223 C120.2828,159.7203 124.1778,158.6843 128.3258,158.6843 C138.0838,158.6843 146.5168,164.3593 150.5778,172.5683 C147.1318,174.3713 143.2308,175.4063 139.0898,175.4063 C129.3318,175.4063 120.8918,169.7303 116.8378,161.5223 M104.9438,161.6883 C100.8608,169.8103 92.4718,175.4063 82.7788,175.4063 C78.6748,175.4063 74.8018,174.3863 71.3848,172.6043 C75.4678,164.4903 83.8578,158.8943 93.5508,158.8943 C97.6618,158.8943 101.5268,159.9153 104.9438,161.6883 M86.4428,126.0733 C98.3938,127.8473 107.6008,138.1553 107.6008,150.5923 C107.6008,151.8873 107.4638,153.1543 107.2758,154.4063 C95.3238,152.6263 86.1158,142.3243 86.1158,129.8883 C86.1158,128.5853 86.2538,127.3183 86.4428,126.0733 M111.0538,201.2773 C106.4058,196.7673 103.5108,190.4703 103.5108,183.5063 C103.5108,176.6433 106.3058,170.4263 110.8158,165.9313 C115.4618,170.4403 118.3578,176.7383 118.3578,183.7093 C118.3578,190.5643 115.5638,196.7823 111.0538,201.2773 M135.7528,129.8883 C135.7528,142.3243 126.5448,152.6263 114.5938,154.4063 C114.3988,153.1543 114.2758,151.8873 114.2758,150.5923 C114.2758,138.1553 123.4758,127.8543 135.4268,126.0733 C135.6218,127.3183 135.7528,128.5853 135.7528,129.8883 M170.1658,150.5923 C170.1658,133.8343 156.8398,120.1453 140.2338,119.5443 C135.9628,107.4843 124.4388,98.8193 110.9308,98.8193 C97.4308,98.8193 85.9128,107.4843 81.6358,119.5443 C65.0288,120.1523 51.7098,133.8343 51.7098,150.5923 C51.7098,160.5303 56.4148,169.3973 63.7048,175.0873 C62.9078,177.8313 62.4748,180.7203 62.4748,183.7093 C62.4748,200.8363 76.4088,214.7783 93.5508,214.7783 C100.0508,214.7783 106.0878,212.7653 111.0828,209.3423 C116.0198,212.6423 121.9478,214.5673 128.3258,214.5673 C145.4598,214.5673 159.3948,200.6333 159.3948,183.5063 C159.3948,180.5673 158.9828,177.7373 158.2148,175.0513 C165.4828,169.3543 170.1658,160.5093 170.1658,150.5923" id="Fill-50"></path>
                    <polygon id="Fill-2" points="16.3739 1.7736 16.3739 56.1806 7.2239 56.1806 7.2239 14.5356 7.1449 14.5356 0.7239 21.1956 0.6439 21.1956 0.6439 11.6396 9.0699 1.7736"></polygon>
                    <polygon id="Fill-3" points="20.5448 1.7736 43.4918 1.7736 43.4918 10.1996 31.5408 56.1806 22.4708 56.1806 34.6598 9.2366 20.5448 9.2366"></polygon>
                </g>
            </g>
        </g>
    </g>
</svg>