<?xml version="1.0" encoding="UTF-8"?>
<svg width="270px" height="270px" viewBox="0 0 270 270" version="1.1" xmlns="http://www.w3.org/2000/svg" xmlns:xlink="http://www.w3.org/1999/xlink">
    <title>ODS2</title>
    <g id="Page-1" stroke="none" stroke-width="1" fill="none" fill-rule="evenodd">
        <g id="ODS_2_detalhe_img1" transform="translate(-576.000000, -304.000000)">
            <g id="ODS2" transform="translate(576.000000, 304.000000)">
                <polygon id="Fill-1" fill="#DDA83A" points="-5.40012479e-13 269.841 269.834 269.841 269.834 -5.68434189e-14 -5.40012479e-13 -5.68434189e-14"></polygon>
                <g id="Group-22" transform="translate(26.707600, 21.700000)" fill="#FFFFFF">
                    <path d="M23.758,47.8547 L8.752,47.8547 L8.752,45.2847 C8.752,41.0357 10.279,39.4287 12.603,36.9387 L18.459,30.7637 C23.193,25.7037 24.236,22.4977 24.236,17.0397 L24.236,11.7407 C24.236,3.9657 20.464,0.2667 12.277,0.2667 C4.257,0.2667 0.159,4.5227 0.159,12.1457 L0.159,18.7257 L8.513,18.7257 L8.513,11.8997 C8.513,8.6207 10.112,7.6507 12.038,7.6507 C13.804,7.6507 15.332,8.3747 15.332,11.7407 L15.332,16.2357 C15.332,20.7307 14.926,22.4977 11.959,25.6247 L6.819,31.0827 C1.853,36.3817 3.92574862e-13,39.9137 3.92574862e-13,45.2847 L3.92574862e-13,55.3177 L23.758,55.3177 L23.758,47.8547 Z" id="Fill-2"></path>
                    <path d="M80.9186,207.5857 L80.9186,211.3787 C80.9186,211.4077 80.9036,211.4377 80.9036,211.4657 C80.9036,211.5027 80.9186,211.5237 80.9186,211.5527 C80.9616,212.4937 81.7216,213.2397 82.6696,213.2617 C82.6776,213.2617 82.6916,213.2687 82.7066,213.2687 C82.7206,213.2687 82.7356,213.2617 82.7496,213.2617 L127.2536,213.2617 C127.2686,213.2617 127.2826,213.2687 127.2976,213.2687 C127.3116,213.2687 127.3186,213.2617 127.3336,213.2617 C128.3106,213.2397 129.0856,212.4507 129.0926,211.4807 C129.0926,211.4737 129.0996,211.4737 129.0996,211.4657 C129.0996,211.4657 129.0926,211.4587 129.0926,211.4517 L129.0926,207.1587 C154.1466,198.9427 172.9166,178.6377 177.0426,153.8887 C177.0576,153.8377 177.0636,153.7877 177.0716,153.7437 C177.0856,153.6567 177.0936,153.5767 177.0936,153.4907 C177.0936,152.4987 176.2966,151.6877 175.2976,151.6877 L34.2856,151.6877 L33.4316,151.6877 C32.4396,151.6877 31.6286,152.4987 31.6286,153.4907 L31.7236,154.3007 C36.0596,179.2817 55.3506,199.7107 80.9186,207.5857" id="Fill-4"></path>
                    <path d="M129.0529,91.1467 C128.4669,91.9797 114.7559,111.7117 129.3569,127.6667 C136.0529,134.9917 135.4739,141.4497 133.5629,145.8137 L142.9229,145.8137 C144.8189,139.3717 144.0369,131.2857 136.4369,122.9827 C125.6799,111.2277 136.5739,95.3377 136.7399,95.0847 C138.0219,93.2747 137.3339,90.9367 135.2199,89.8517 C133.0989,88.7657 130.3419,89.3447 129.0529,91.1467" id="Fill-6"></path>
                    <path d="M105.3356,145.8117 L114.7026,145.8117 C116.5996,139.3697 115.8106,131.2907 108.2096,122.9807 C97.4526,111.2257 108.3396,95.3427 108.5056,95.0827 C109.7876,93.2727 109.1066,90.9417 106.9856,89.8487 C104.8726,88.7707 102.1146,89.3417 100.8336,91.1447 C100.2396,91.9777 86.5226,111.7097 101.1366,127.6647 C107.8336,134.9897 107.2466,141.4547 105.3356,145.8117" id="Fill-8"></path>
                    <path d="M72.5983,91.1467 C72.0123,91.9797 58.3013,111.7117 72.9023,127.6667 C79.6053,134.9917 79.0263,141.4567 77.1153,145.8137 L86.4743,145.8137 C88.3713,139.3717 87.5823,131.2927 79.9813,122.9827 C69.2173,111.2277 80.1123,95.3377 80.2853,95.0777 C81.5593,93.2747 80.8863,90.9367 78.7583,89.8517 C76.6443,88.7577 73.8863,89.3367 72.5983,91.1467" id="Fill-10"></path>
                    <polygon id="Fill-12" points="50.3517 0.2688 59.4947 0.2688 59.4947 3.3958 54.1817 3.3958 54.1817 9.9178 57.9817 9.9178 57.9817 13.0098 54.1817 13.0098 54.1817 19.9368 59.4947 19.9368 59.4947 23.0568 50.3517 23.0568"></polygon>
                    <path d="M65.2038,3.3933 L65.2038,10.4873 L66.4928,10.4873 C67.7948,10.4873 68.3668,9.8143 68.3668,8.6053 L68.3668,5.2473 C68.3668,4.0013 67.7948,3.3933 66.4928,3.3933 L65.2038,3.3933 Z M65.2038,12.6013 L65.2038,23.0613 L61.3818,23.0613 L61.3818,0.2663 L66.9548,0.2663 C70.8208,0.2663 72.2328,2.1843 72.2328,5.3763 L72.2328,8.3013 C72.2328,10.7553 71.3638,12.2033 69.1778,12.7093 L72.8408,23.0613 L68.8018,23.0613 L65.2038,12.6013 Z" id="Fill-14"></path>
                    <path d="M77.9782,3.3933 L77.9782,10.4873 L79.2592,10.4873 C80.5692,10.4873 81.1412,9.8143 81.1412,8.6053 L81.1412,5.2473 C81.1412,4.0013 80.5692,3.3933 79.2592,3.3933 L77.9782,3.3933 Z M77.9782,12.6013 L77.9782,23.0613 L74.1562,23.0613 L74.1562,0.2663 L79.7292,0.2663 C83.5952,0.2663 85.0072,2.1843 85.0072,5.3763 L85.0072,8.3013 C85.0072,10.7553 84.1382,12.2033 81.9522,12.7093 L85.6152,23.0613 L81.5762,23.0613 L77.9782,12.6013 Z" id="Fill-16"></path>
                    <path d="M91.1266,15.8318 L94.1886,15.8318 L92.6756,6.6898 L92.6396,6.6898 L91.1266,15.8318 Z M86.3196,23.0638 L90.6196,0.2688 L94.9916,0.2688 L99.3286,23.0638 L95.3976,23.0638 L94.6886,18.8948 L90.6196,18.8948 L89.9536,23.0638 L86.3196,23.0638 Z" id="Fill-18"></path>
                    <path d="M106.1842,19.9353 C107.7622,19.9353 108.3702,18.9953 108.3702,17.6123 L108.3702,5.6823 C108.3702,4.3363 107.7622,3.3943 106.1842,3.3943 L104.5692,3.3943 L104.5692,19.9353 L106.1842,19.9353 Z M112.1992,6.3843 L112.1992,16.9393 C112.1992,20.4353 110.7592,23.0623 106.6472,23.0623 L100.7402,23.0623 L100.7402,0.2683 L106.6472,0.2683 C110.7592,0.2683 112.1992,2.8593 112.1992,6.3843 L112.1992,6.3843 Z" id="Fill-20"></path>
                    <polygon id="Fill-22" points="114.2244 23.057 118.0464 23.057 118.0464 0.269 114.2244 0.269"></polygon>
                    <path d="M120.1027,17.178 L120.1027,6.154 C120.1027,2.585 121.7747,1.42108547e-14 125.8137,1.42108547e-14 C130.0487,1.42108547e-14 131.2217,2.353 131.2217,5.72 L131.2217,8.405 L127.7327,8.405 L127.7327,5.415 C127.7327,4.004 127.2617,3.193 125.8867,3.193 C124.5037,3.193 123.9327,4.17 123.9327,5.545 L123.9327,17.779 C123.9327,19.162 124.5037,20.139 125.8867,20.139 C127.2617,20.139 127.7327,19.263 127.7327,17.917 L127.7327,13.711 L131.2217,13.711 L131.2217,17.649 C131.2217,20.906 129.8897,23.331 125.8137,23.331 C121.7747,23.331 120.1027,20.704 120.1027,17.178" id="Fill-24"></path>
                    <path d="M137.0128,15.8318 L140.0678,15.8318 L138.5548,6.6898 L138.5258,6.6898 L137.0128,15.8318 Z M132.1988,23.0638 L136.5058,0.2688 L140.8708,0.2688 L145.2138,23.0638 L141.2838,23.0638 L140.5748,18.8948 L136.5058,18.8948 L135.8328,23.0638 L132.1988,23.0638 Z" id="Fill-25"></path>
                    <path d="M150.4581,3.3933 L150.4581,10.4873 L151.7321,10.4873 C153.0421,10.4873 153.6211,9.8143 153.6211,8.6053 L153.6211,5.2473 C153.6211,4.0013 153.0421,3.3933 151.7321,3.3933 L150.4581,3.3933 Z M150.4581,12.6013 L150.4581,23.0613 L146.6211,23.0613 L146.6211,0.2663 L152.2031,0.2663 C156.0681,0.2663 157.4871,2.1843 157.4871,5.3763 L157.4871,8.3013 C157.4871,10.7553 156.6111,12.2033 154.4251,12.7093 L158.0871,23.0613 L154.0561,23.0613 L150.4581,12.6013 Z" id="Fill-26"></path>
                    <path d="M54.5509,47.5471 L57.6129,47.5471 L56.0999,38.4051 L56.0639,38.4051 L54.5509,47.5471 Z M49.7439,54.7791 L54.0509,31.9841 L58.4169,31.9841 L62.7599,54.7791 L58.8219,54.7791 L58.1129,50.6021 L54.0509,50.6021 L53.3779,54.7791 L49.7439,54.7791 Z" id="Fill-27"></path>
                    <polygon id="Fill-28" points="67.5294 31.9807 76.4984 31.9807 76.4984 35.1077 71.3594 35.1077 71.3594 41.6297 75.1954 41.6297 75.1954 44.7217 71.3594 44.7217 71.3594 54.7757 67.5294 54.7757"></polygon>
                    <path d="M85.4425,49.4944 L85.4425,37.2614 C85.4425,35.8854 84.8415,34.9084 83.4665,34.9084 C82.1125,34.9084 81.5115,35.8854 81.5115,37.2614 L81.5115,49.4944 C81.5115,50.8694 82.1125,51.8474 83.4665,51.8474 C84.8415,51.8474 85.4425,50.8694 85.4425,49.4944 M77.6825,48.8934 L77.6825,37.8694 C77.6825,34.3004 79.4275,31.7084 83.4665,31.7084 C87.5275,31.7084 89.2725,34.3004 89.2725,37.8694 L89.2725,48.8934 C89.2725,52.4194 87.5275,55.0464 83.4665,55.0464 C79.4275,55.0464 77.6825,52.4194 77.6825,48.8934" id="Fill-29"></path>
                    <polygon id="Fill-30" points="101.8502 39.9831 101.7412 39.9831 99.1572 54.7721 97.3762 54.7721 94.5172 39.9831 94.4592 39.9831 94.4592 54.7721 91.2962 54.7721 91.2962 31.9841 95.7622 31.9841 98.2522 44.8191 98.2812 44.8191 100.4962 31.9841 105.3392 31.9841 105.3392 54.7721 101.8502 54.7721"></polygon>
                    <polygon id="Fill-31" points="107.3649 31.9807 116.5079 31.9807 116.5079 35.1077 111.1869 35.1077 111.1869 41.6297 114.9939 41.6297 114.9939 44.7217 111.1869 44.7217 111.1869 51.6487 116.5079 51.6487 116.5079 54.7757 107.3649 54.7757"></polygon>
                </g>
            </g>
        </g>
    </g>
</svg>