<?xml version="1.0" encoding="UTF-8"?>
<svg width="270px" height="270px" viewBox="0 0 270 270" version="1.1" xmlns="http://www.w3.org/2000/svg" xmlns:xlink="http://www.w3.org/1999/xlink">
    <title>ODS3</title>
    <g id="Page-1" stroke="none" stroke-width="1" fill="none" fill-rule="evenodd">
        <g id="ODS_3_detalhe_img1" transform="translate(-576.000000, -304.000000)">
            <g id="ODS3" transform="translate(576.000000, 304.000000)">
                <polygon id="Fill-1" fill="#4C9F38" points="-2.55795385e-13 269.827 269.819 269.827 269.819 0 -2.55795385e-13 0"></polygon>
                <path d="M38.5056,77.7497 C47.7346,77.7497 51.7456,72.8567 51.7456,65.3137 L51.7456,57.2857 C51.7456,52.3127 49.5736,49.0987 44.9986,48.0637 C48.7766,46.8547 51.2676,43.8077 51.2676,39.2317 L51.2676,34.4977 C51.2676,26.7957 47.5756,22.0617 39.1496,22.0617 C29.6736,22.0617 26.3876,27.6787 26.3876,35.6997 L26.3876,40.5137 L34.7346,40.5137 L34.7346,34.9827 C34.7346,31.6097 35.7766,29.6847 38.6646,29.6847 C41.5606,29.6847 42.5886,31.6097 42.5886,34.5777 L42.5886,40.4407 C42.5886,43.3297 40.6696,44.8497 37.7096,44.8497 L34.2486,44.8497 L34.2486,51.8347 L38.0996,51.8347 C41.3146,51.8347 42.5886,53.3547 42.5886,56.2437 L42.5886,65.2337 C42.5886,68.1147 41.3146,70.1267 38.5056,70.1267 C35.3706,70.1267 34.2486,68.0427 34.2486,64.8287 L34.2486,57.0467 L25.9096,57.0467 L25.9096,64.1847 C25.9096,72.4577 29.1966,77.7497 38.5056,77.7497" id="Fill-2" fill="#FFFFFF"></path>
                <path d="M225.5412,168.634 C225.5412,161.041 220.6692,154.887 213.2932,154.887 C209.6012,154.887 205.1492,158.927 202.7392,161.409 C200.3212,158.927 196.1592,154.881 192.4742,154.881 C185.0902,154.881 179.9152,161.033 179.9152,168.634 C179.9152,172.427 181.4132,175.865 183.8312,178.356 L202.7532,197.3 L221.6392,178.377 L221.6252,178.363 C224.0422,175.873 225.5412,172.434 225.5412,168.634" id="Fill-4" fill="#FFFFFF"></path>
                <path d="M145.0095,228.2375 L144.8215,228.2375 C143.3735,228.1435 142.1935,227.0795 141.9475,225.6605 L132.3415,169.7045 L117.7845,196.6835 C117.1475,197.8705 115.8225,198.5075 114.5115,198.2695 C113.1875,198.0375 112.1745,196.9805 111.9865,195.6555 L105.8035,152.4685 L94.4965,177.8625 C93.9975,178.9775 92.8895,179.7015 91.6595,179.7015 L47.7265,179.7015 C46.0045,179.7015 44.6215,178.3115 44.6215,176.5955 C44.6215,174.8805 46.0045,173.4905 47.7265,173.4905 L89.6465,173.4905 L104.5085,140.0915 C105.0725,138.8235 106.4045,138.0925 107.7725,138.2805 C109.1485,138.4695 110.2265,139.5475 110.4225,140.9155 L116.7995,185.4415 L131.1475,158.8325 C131.7765,157.6585 133.0795,157.0225 134.3825,157.2395 C135.6935,157.4565 136.7135,158.4775 136.9455,159.7795 L145.8345,211.6025 L178.2645,103.8895 C178.6405,102.6655 179.7195,101.7905 180.9935,101.6885 C182.2745,101.5945 183.4765,102.2825 184.0415,103.4335 L201.1025,138.8095 C201.8485,140.3505 201.1975,142.2115 199.6555,142.9575 C198.1065,143.7025 196.2455,143.0515 195.5075,141.5095 L181.9125,113.3285 L147.9845,226.0295 C147.5865,227.3475 146.3705,228.2375 145.0095,228.2375" id="Fill-6" fill="#FFFFFF"></path>
                <path d="M74.989,39.9226 L74.989,36.8606 L78.558,36.8606 L78.558,39.9876 C78.558,41.2696 79.122,42.0076 80.44,42.0076 C81.649,42.0076 82.184,41.1966 82.184,39.9876 L82.184,39.1196 C82.184,37.8086 81.649,36.9986 80.469,35.8906 L78.218,33.6326 C76.039,31.4826 75.025,30.1726 75.025,27.5516 L75.025,26.7766 C75.025,23.9536 76.668,21.7676 80.404,21.7676 C84.233,21.7676 85.746,23.6506 85.746,26.9506 L85.746,28.7966 L82.257,28.7966 L82.257,26.8136 C82.257,25.5036 81.649,24.8586 80.44,24.8586 C79.361,24.8586 78.623,25.4666 78.623,26.7486 L78.623,27.2186 C78.623,28.4926 79.332,29.2316 80.44,30.3096 L82.894,32.7276 C84.979,34.8486 85.985,36.1226 85.985,38.6486 L85.985,39.7566 C85.985,42.8836 84.298,45.0986 80.404,45.0986 C76.502,45.0986 74.989,42.9196 74.989,39.9226" id="Fill-8" fill="#FFFFFF"></path>
                <path d="M91.7004,37.6037 L94.7554,37.6037 L93.2424,28.4617 L93.2134,28.4617 L91.7004,37.6037 Z M86.8934,44.8357 L91.1934,22.0407 L95.5584,22.0407 L99.9024,44.8357 L95.9714,44.8357 L95.2624,40.6587 L91.1934,40.6587 L90.5204,44.8357 L86.8934,44.8357 Z" id="Fill-10" fill="#FFFFFF"></path>
                <path d="M109.5857,20.4255 L103.5627,21.2005 L103.5627,19.0505 L109.5857,17.7695 L109.5857,20.4255 Z M111.9307,22.0395 L111.9307,39.2825 C111.9307,42.8155 110.4177,45.1025 106.5237,45.1025 C102.4917,45.1025 100.8047,42.8155 100.8047,39.2825 L100.8047,22.0395 L104.6337,22.0395 L104.6337,39.6515 C104.6337,40.9985 105.1847,41.9035 106.5237,41.9035 C107.8697,41.9035 108.4057,40.9985 108.4057,39.6515 L108.4057,22.0395 L111.9307,22.0395 Z" id="Fill-12" fill="#FFFFFF"></path>
                <path d="M119.3977,41.7038 C120.9827,41.7038 121.5837,40.7638 121.5837,39.3878 L121.5837,27.4508 C121.5837,26.1048 120.9827,25.1638 119.3977,25.1638 L117.7837,25.1638 L117.7837,41.7038 L119.3977,41.7038 Z M125.4137,28.1538 L125.4137,38.7148 C125.4137,42.2108 123.9727,44.8308 119.8687,44.8308 L113.9537,44.8308 L113.9537,22.0368 L119.8687,22.0368 C123.9727,22.0368 125.4137,24.6278 125.4137,28.1538 L125.4137,28.1538 Z" id="Fill-14" fill="#FFFFFF"></path>
                <polygon id="Fill-16" fill="#FFFFFF" points="127.4284 22.0378 136.5784 22.0378 136.5784 25.1648 131.2574 25.1648 131.2574 31.6868 135.0654 31.6868 135.0654 34.7778 131.2574 34.7778 131.2574 41.7058 136.5784 41.7058 136.5784 44.8328 127.4284 44.8328"></polygon>
                <path d="M80.6374,73.4191 C82.2224,73.4191 82.8234,72.4791 82.8234,71.0961 L82.8234,59.1661 C82.8234,57.8201 82.2224,56.8791 80.6374,56.8791 L79.0234,56.8791 L79.0234,73.4191 L80.6374,73.4191 Z M86.6534,59.8691 L86.6534,70.4231 C86.6534,73.9191 85.2124,76.5461 81.1074,76.5461 L75.1934,76.5461 L75.1934,53.7521 L81.1074,53.7521 C85.2124,53.7521 86.6534,56.3431 86.6534,59.8691 L86.6534,59.8691 Z" id="Fill-18" fill="#FFFFFF"></path>
                <polygon id="Fill-20" fill="#FFFFFF" points="88.6755 53.7531 97.8185 53.7531 97.8185 56.8801 92.5045 56.8801 92.5045 63.4021 96.3045 63.4021 96.3045 66.4931 92.5045 66.4931 92.5045 73.4211 97.8185 73.4211 97.8185 76.5411 88.6755 76.5411"></polygon>
                <path d="M110.8298,71.4684 L110.8298,59.0324 C110.8298,57.6494 110.2218,56.6794 108.8468,56.6794 C107.4998,56.6794 106.8918,57.6494 106.8918,59.0324 L106.8918,71.4684 C106.8918,72.8154 107.4998,73.8214 108.8468,73.8214 C110.2218,73.8214 110.8298,72.8154 110.8298,71.4684 L110.8298,71.4684 Z M107.4278,78.0924 L107.4278,76.5434 C104.3728,76.0074 103.0628,73.7564 103.0628,70.6654 L103.0628,59.6334 C103.0628,56.0714 104.8078,53.4874 108.8468,53.4874 C112.9078,53.4874 114.6598,56.0714 114.6598,59.6334 L114.6598,70.6654 C114.6598,73.1484 113.7838,75.0954 111.8358,76.0364 L114.6598,76.5794 L114.6598,79.4384 L107.4278,78.0924 Z" id="Fill-22" fill="#FFFFFF"></path>
                <path d="M127.8029,53.7531 L127.8029,70.9961 C127.8029,74.5291 126.2899,76.8161 122.3879,76.8161 C118.3489,76.8161 116.6769,74.5291 116.6769,70.9961 L116.6769,53.7531 L120.5059,53.7531 L120.5059,71.3651 C120.5059,72.7111 121.0419,73.6241 122.3879,73.6241 C123.7349,73.6241 124.2769,72.7111 124.2769,71.3651 L124.2769,53.7531 L127.8029,53.7531 Z" id="Fill-24" fill="#FFFFFF"></path>
                <path d="M133.5148,69.3156 L136.5768,69.3156 L135.0638,60.1736 L135.0278,60.1736 L133.5148,69.3156 Z M128.7078,76.5476 L133.0148,53.7526 L137.3798,53.7526 L141.7228,76.5476 L137.7858,76.5476 L137.0768,72.3786 L133.0148,72.3786 L132.3418,76.5476 L128.7078,76.5476 Z" id="Fill-26" fill="#FFFFFF"></path>
                <polygon id="Fill-28" fill="#FFFFFF" points="143.1286 53.7531 146.9586 53.7531 146.9586 73.4211 151.5326 73.4211 151.5326 76.5411 143.1286 76.5411"></polygon>
                <polygon id="Fill-30" fill="#FFFFFF" points="153.115 76.544 156.944 76.544 156.944 53.756 153.115 53.756"></polygon>
                <path d="M164.4426,73.4191 C166.0276,73.4191 166.6286,72.4791 166.6286,71.0961 L166.6286,59.1661 C166.6286,57.8201 166.0276,56.8791 164.4426,56.8791 L162.8286,56.8791 L162.8286,73.4191 L164.4426,73.4191 Z M170.4586,59.8691 L170.4586,70.4231 C170.4586,73.9191 169.0176,76.5461 164.9136,76.5461 L158.9996,76.5461 L158.9996,53.7521 L164.9136,53.7521 C169.0176,53.7521 170.4586,56.3431 170.4586,59.8691 L170.4586,59.8691 Z" id="Fill-32" fill="#FFFFFF"></path>
                <path d="M176.1774,69.3156 L179.2324,69.3156 L177.7194,60.1736 L177.6834,60.1736 L176.1774,69.3156 Z M171.3634,76.5476 L175.6704,53.7526 L180.0354,53.7526 L184.3794,76.5476 L180.4414,76.5476 L179.7394,72.3786 L175.6704,72.3786 L174.9974,76.5476 L171.3634,76.5476 Z" id="Fill-33" fill="#FFFFFF"></path>
                <path d="M191.2341,73.4191 C192.8121,73.4191 193.4201,72.4791 193.4201,71.0961 L193.4201,59.1661 C193.4201,57.8201 192.8121,56.8791 191.2341,56.8791 L189.6121,56.8791 L189.6121,73.4191 L191.2341,73.4191 Z M197.2501,59.8691 L197.2501,70.4231 C197.2501,73.9191 195.8021,76.5461 191.6971,76.5461 L185.7831,76.5461 L185.7831,53.7521 L191.6971,53.7521 C195.8021,53.7521 197.2501,56.3431 197.2501,59.8691 L197.2501,59.8691 Z" id="Fill-34" fill="#FFFFFF"></path>
                <polygon id="Fill-35" fill="#FFFFFF" points="199.2648 53.7531 208.4148 53.7531 208.4148 56.8801 203.0948 56.8801 203.0948 63.4021 206.9018 63.4021 206.9018 66.4931 203.0948 66.4931 203.0948 73.4211 208.4148 73.4211 208.4148 76.5411 199.2648 76.5411"></polygon>
            </g>
        </g>
    </g>
</svg>