<?xml version="1.0" encoding="UTF-8"?>
<svg width="270px" height="270px" viewBox="0 0 270 270" version="1.1" xmlns="http://www.w3.org/2000/svg" xmlns:xlink="http://www.w3.org/1999/xlink">
    <title>ODS4</title>
    <g id="Page-1" stroke="none" stroke-width="1" fill="none" fill-rule="evenodd">
        <g id="ODS_4_detalhe_img1" transform="translate(-576.000000, -304.000000)">
            <g id="ODS4" transform="translate(576.000000, 304.000000)">
                <polygon id="Fill-1" fill="#C5192D" points="-6.53699317e-13 269.841 269.833 269.841 269.833 -5.68434189e-14 -6.53699317e-13 -5.68434189e-14"></polygon>
                <g id="Group-45" transform="translate(26.000000, 17.841000)" fill="#FFFFFF">
                    <path d="M185.6794,96.6119 C185.6794,93.4489 183.1164,90.8789 179.9524,90.8789 C176.7824,90.8789 174.2274,93.4489 174.2274,96.6119 L174.2274,102.7869 L185.6794,102.7869 L185.6794,96.6119 Z" id="Fill-5"></path>
                    <polygon id="Fill-7" points="175.6481 187.6954 174.2291 187.6954 179.9551 207.7114 185.6731 187.6954 184.2481 187.6954 185.6731 187.6954 185.6731 107.2654 184.2481 107.2654 182.8291 107.2654 181.3231 107.2654 178.4781 107.2654 177.0671 107.2654 175.6481 107.2654 174.2291 107.2654 174.2291 187.6954"></polygon>
                    <polygon id="Fill-9" points="158.0807 102.7803 152.8907 98.6833 152.8907 191.7523 99.1207 209.1263 96.6307 209.1263 96.1387 209.1263 93.6547 209.1263 40.1247 194.1703 40.1247 98.6833 34.9277 102.7803 34.9277 197.8113 93.4087 213.9973 96.1387 213.9973 96.6307 213.9973 99.3667 213.9973 153.3177 196.8703 158.0807 195.4663"></polygon>
                    <polygon id="Fill-11" points="50.8844 4.1265 60.0334 4.1265 60.0334 7.2535 54.7134 7.2535 54.7134 13.7755 58.5214 13.7755 58.5214 16.8675 54.7134 16.8675 54.7134 23.7945 60.0334 23.7945 60.0334 26.9145 50.8844 26.9145"></polygon>
                    <path d="M67.363,23.793 C68.941,23.793 69.549,22.853 69.549,21.477 L69.549,9.54 C69.549,8.193 68.941,7.252 67.363,7.252 L65.741,7.252 L65.741,23.793 L67.363,23.793 Z M73.378,10.242 L73.378,20.804 C73.378,24.3 71.93,26.92 67.826,26.92 L61.912,26.92 L61.912,4.126 L67.826,4.126 C71.93,4.126 73.378,6.717 73.378,10.242 L73.378,10.242 Z" id="Fill-13"></path>
                    <path d="M86.5202,4.1265 L86.5202,21.3695 C86.5202,24.9025 85.0072,27.1895 81.1052,27.1895 C77.0742,27.1895 75.3942,24.9025 75.3942,21.3695 L75.3942,4.1265 L79.2232,4.1265 L79.2232,21.7465 C79.2232,23.0845 79.7592,23.9975 81.1052,23.9975 C82.4522,23.9975 82.9952,23.0845 82.9952,21.7465 L82.9952,4.1265 L86.5202,4.1265 Z" id="Fill-15"></path>
                    <path d="M88.5348,21.0362 L88.5348,10.0122 C88.5348,6.4502 90.2148,3.8582 94.2538,3.8582 C98.4878,3.8582 99.6608,6.2112 99.6608,9.5772 L99.6608,12.2632 L96.1718,12.2632 L96.1718,9.2732 C96.1718,7.8622 95.6938,7.0512 94.3188,7.0512 C92.9358,7.0512 92.3638,8.0282 92.3638,9.4032 L92.3638,21.6372 C92.3638,23.0202 92.9358,23.9972 94.3188,23.9972 C95.6938,23.9972 96.1718,23.1212 96.1718,21.7752 L96.1718,17.5762 L99.6608,17.5762 L99.6608,21.5062 C99.6608,24.7712 98.3218,27.1892 94.2538,27.1892 C90.2148,27.1892 88.5348,24.5692 88.5348,21.0362" id="Fill-17"></path>
                    <path d="M105.444,19.6929 L108.506,19.6929 L106.993,10.5509 L106.957,10.5509 L105.444,19.6929 Z M100.637,26.9179 L104.944,4.1299 L109.309,4.1299 L113.645,26.9179 L109.715,26.9179 L109.006,22.7479 L104.944,22.7479 L104.271,26.9179 L100.637,26.9179 Z" id="Fill-19"></path>
                    <path d="M118.6217,29.2398 C119.6927,29.2038 119.8667,28.9718 119.8667,28.6978 C119.8667,28.4658 119.6707,28.3348 119.3307,28.3348 L119.1567,28.3348 L119.1567,27.0898 C115.8997,26.6848 114.5537,24.2308 114.5537,21.0378 L114.5537,10.0138 C114.5537,6.4518 116.2327,3.8608 120.2717,3.8608 C124.4997,3.8608 125.6857,6.2138 125.6857,9.5728 L125.6857,12.2648 L122.1837,12.2648 L122.1837,9.2678 C122.1837,7.8568 121.7197,7.0528 120.3367,7.0528 C118.9617,7.0528 118.3897,8.0308 118.3897,9.4058 L118.3897,21.6388 C118.3897,23.0218 118.9617,23.9918 120.3367,23.9918 C121.7197,23.9918 122.1837,23.1228 122.1837,21.7768 L122.1837,17.5778 L125.6857,17.5778 L125.6857,21.5088 C125.6857,24.7008 124.4047,27.0538 120.6047,27.1918 L120.6047,27.4888 C121.5097,27.6258 122.0167,27.9588 122.0167,28.6978 C122.0167,29.7398 121.0467,30.3108 118.6217,30.3108 L118.6217,29.2398 Z" id="Fill-21"></path>
                    <path d="M131.4665,19.6929 L134.5215,19.6929 L133.0075,10.5509 L132.9715,10.5509 L131.4665,19.6929 Z M129.6495,3.2249 C129.7145,1.6399 130.3215,0.3649 132.0015,0.3649 C132.9715,0.3649 133.7815,0.9379 134.2885,0.9379 C134.5575,0.9379 134.7595,0.7639 134.7595,0.4309 L136.6415,0.4309 C136.5695,2.0079 135.9685,3.2899 134.2885,3.2899 C133.3125,3.2899 132.5085,2.7179 132.0015,2.7179 C131.7345,2.7179 131.5305,2.8849 131.5305,3.2249 L129.6495,3.2249 Z M126.6525,26.9179 L130.9595,4.1299 L135.3235,4.1299 L139.6675,26.9179 L135.7295,26.9179 L135.0275,22.7479 L130.9595,22.7479 L130.2855,26.9179 L126.6525,26.9179 Z" id="Fill-23"></path>
                    <path d="M148.3395,21.6407 L148.3395,9.4077 C148.3395,8.0317 147.7315,7.0547 146.3565,7.0547 C145.0095,7.0547 144.4015,8.0317 144.4015,9.4077 L144.4015,21.6407 C144.4015,23.0157 145.0095,23.9937 146.3565,23.9937 C147.7315,23.9937 148.3395,23.0157 148.3395,21.6407 M140.5715,21.0397 L140.5715,10.0157 C140.5715,6.4467 142.3235,3.8547 146.3565,3.8547 C150.4245,3.8547 152.1685,6.4467 152.1685,10.0157 L152.1685,21.0397 C152.1685,24.5657 150.4245,27.1927 146.3565,27.1927 C142.3235,27.1927 140.5715,24.5657 140.5715,21.0397" id="Fill-25"></path>
                    <path d="M56.3346,55.505 C57.9126,55.505 58.5216,54.564 58.5216,53.189 L58.5216,41.252 C58.5216,39.905 57.9126,38.964 56.3346,38.964 L54.7136,38.964 L54.7136,55.505 L56.3346,55.505 Z M62.3506,41.961 L62.3506,52.516 C62.3506,56.012 60.9026,58.632 56.7986,58.632 L50.8846,58.632 L50.8846,35.845 L56.7986,35.845 C60.9026,35.845 62.3506,38.429 62.3506,41.961 L62.3506,41.961 Z" id="Fill-27"></path>
                    <polygon id="Fill-29" points="64.3649 35.8424 73.5149 35.8424 73.5149 38.9694 68.1939 38.9694 68.1939 45.4914 72.0019 45.4914 72.0019 48.5824 68.1939 48.5824 68.1939 55.5034 73.5149 55.5034 73.5149 58.6304 64.3649 58.6304"></polygon>
                    <path d="M86.5202,53.5577 L86.5202,41.1217 C86.5202,39.7387 85.9122,38.7687 84.5372,38.7687 C83.1902,38.7687 82.5892,39.7387 82.5892,41.1217 L82.5892,53.5577 C82.5892,54.9047 83.1902,55.9107 84.5372,55.9107 C85.9122,55.9107 86.5202,54.9047 86.5202,53.5577 L86.5202,53.5577 Z M83.1242,60.1817 L83.1242,58.6327 C80.0632,58.0967 78.7602,55.8457 78.7602,52.7467 L78.7602,41.7227 C78.7602,38.1617 80.5042,35.5767 84.5372,35.5767 C88.6052,35.5767 90.3492,38.1617 90.3492,41.7227 L90.3492,52.7467 C90.3492,55.2377 89.4812,57.1847 87.5342,58.1257 L90.3492,58.6687 L90.3492,61.5277 L83.1242,60.1817 Z" id="Fill-31"></path>
                    <path d="M103.4928,35.8424 L103.4928,53.0854 C103.4928,56.6184 101.9798,58.9054 98.0788,58.9054 C94.0468,58.9054 92.3668,56.6184 92.3668,53.0854 L92.3668,35.8424 L96.1958,35.8424 L96.1958,53.4544 C96.1958,54.8004 96.7318,55.7134 98.0788,55.7134 C99.4248,55.7134 99.9678,54.8004 99.9678,53.4544 L99.9678,35.8424 L103.4928,35.8424 Z" id="Fill-33"></path>
                    <path d="M109.2116,51.4049 L112.2746,51.4049 L110.7606,42.2629 L110.7246,42.2629 L109.2116,51.4049 Z M104.4046,58.6359 L108.7046,35.8419 L113.0766,35.8419 L117.4136,58.6359 L113.4826,58.6359 L112.7736,54.4669 L108.7046,54.4669 L108.0316,58.6359 L104.4046,58.6359 Z" id="Fill-35"></path>
                    <polygon id="Fill-37" points="118.8268 35.8424 122.6558 35.8424 122.6558 55.5034 127.2298 55.5034 127.2298 58.6304 118.8268 58.6304"></polygon>
                    <polygon id="Fill-39" points="128.809 58.629 132.638 58.629 132.638 35.841 128.809 35.841"></polygon>
                    <path d="M140.1393,55.505 C141.7173,55.505 142.3263,54.564 142.3263,53.189 L142.3263,41.252 C142.3263,39.905 141.7173,38.964 140.1393,38.964 L138.5183,38.964 L138.5183,55.505 L140.1393,55.505 Z M146.1553,41.961 L146.1553,52.516 C146.1553,56.012 144.7063,58.632 140.6033,58.632 L134.6893,58.632 L134.6893,35.845 L140.6033,35.845 C144.7063,35.845 146.1553,38.429 146.1553,41.961 L146.1553,41.961 Z" id="Fill-41"></path>
                    <path d="M151.8669,51.4049 L154.9299,51.4049 L153.4159,42.2629 L153.3799,42.2629 L151.8669,51.4049 Z M147.0599,58.6359 L151.3679,35.8419 L155.7329,35.8419 L160.0689,58.6359 L156.1379,58.6359 L155.4289,54.4669 L151.3679,54.4669 L150.6939,58.6359 L147.0599,58.6359 Z" id="Fill-42"></path>
                    <path d="M166.9245,55.505 C168.5095,55.505 169.1115,54.564 169.1115,53.189 L169.1115,41.252 C169.1115,39.905 168.5095,38.964 166.9245,38.964 L165.3105,38.964 L165.3105,55.505 L166.9245,55.505 Z M172.9405,41.961 L172.9405,52.516 C172.9405,56.012 171.4995,58.632 167.3955,58.632 L161.4815,58.632 L161.4815,35.845 L167.3955,35.845 C171.4995,35.845 172.9405,38.429 172.9405,41.961 L172.9405,41.961 Z" id="Fill-43"></path>
                    <polygon id="Fill-44" points="174.9626 35.8424 184.1056 35.8424 184.1056 38.9694 178.7916 38.9694 178.7916 45.4914 182.5926 45.4914 182.5926 48.5824 178.7916 48.5824 178.7916 55.5034 184.1056 55.5034 184.1056 58.6304 174.9626 58.6304"></polygon>
                    <path d="M8.1657,43.212 L16.3537,20.823 L16.4397,20.823 L16.4397,43.212 L8.1657,43.212 Z M16.2727,59.181 L24.9377,59.181 L24.9377,50.35 L28.6297,50.35 L28.6297,43.212 L24.9377,43.212 L24.9377,4.767 L15.9477,4.767 L0.1447,44.733 L0.1447,50.35 L16.2727,50.35 L16.2727,59.181 Z" id="Fill-2"></path>
                    <polygon id="Fill-3" points="93.653 126.8438 45.254 98.9018 45.254 189.2928 93.653 203.9008"></polygon>
                    <polygon id="Fill-4" points="98.9762 127.0274 98.9762 203.9324 147.6862 189.2884 147.6862 98.9044"></polygon>
                </g>
            </g>
        </g>
    </g>
</svg>