<?xml version="1.0" encoding="UTF-8"?>
<svg width="270px" height="270px" viewBox="0 0 270 270" version="1.1" xmlns="http://www.w3.org/2000/svg" xmlns:xlink="http://www.w3.org/1999/xlink">
    <title>ODS5</title>
    <g id="Page-1" stroke="none" stroke-width="1" fill="none" fill-rule="evenodd">
        <g id="ODS_5_detalhe_img1" transform="translate(-576.000000, -304.000000)">
            <g id="ODS5" transform="translate(576.000000, 304.000000)">
                <polygon id="Fill-1" fill="#FF3A21" points="4.54747351e-13 269.841 269.826 269.841 269.826 -5.68434189e-14 4.54747351e-13 -5.68434189e-14"></polygon>
                <g id="Group-28" transform="translate(26.000000, 20.841000)" fill="#FFFFFF">
                    <path d="M17.0229,19.0009 C13.4189,19.0009 10.7689,20.2819 9.3289,22.7729 L9.2419,22.7729 L9.2419,9.2069 L24.9709,9.2069 L24.9709,1.7509 L0.8949,1.7509 L0.8949,32.4079 L9.2419,32.4079 L9.2419,31.1989 C9.2419,27.9849 10.6889,26.2179 13.2519,26.2179 C16.0599,26.2179 17.1819,28.1509 17.1819,31.1189 L17.1819,44.2789 C17.1819,47.1679 16.1399,49.1729 13.3319,49.1729 C10.2049,49.1729 9.0829,47.0879 9.0829,43.8809 L9.0829,37.0549 L0.7289,37.0549 L0.7289,43.2369 C0.7289,51.4959 4.0219,56.7949 13.3319,56.7949 C22.5679,56.7949 26.3329,51.9019 26.3329,44.3589 L26.3329,31.0399 C26.3329,22.4549 21.9239,19.0009 17.0229,19.0009" id="Fill-2"></path>
                    <path d="M108.4487,174.9711 C90.6197,174.9711 76.1207,160.4651 76.1207,142.6431 C76.1207,124.8141 90.6197,110.3071 108.4487,110.3071 C126.2777,110.3071 140.7847,124.8141 140.7847,142.6431 C140.7847,160.4651 126.2777,174.9711 108.4487,174.9711 M170.5357,81.2651 L136.9987,81.2651 C136.7737,81.2651 136.5787,81.4531 136.5787,81.6921 L136.5787,92.8321 C136.5787,93.0781 136.7737,93.2671 136.9987,93.2671 L150.3537,93.2671 L135.5287,108.0991 C128.0587,102.2291 118.6627,98.7181 108.4487,98.7181 C84.2277,98.7181 64.5307,118.4221 64.5307,142.6431 C64.5307,164.9381 81.2307,183.3971 102.7807,186.1841 L102.7807,199.0261 L89.5547,199.0261 C89.3027,199.0261 89.1207,199.2221 89.1207,199.4531 L89.1207,211.3971 C89.1207,211.6291 89.3027,211.8241 89.5547,211.8241 L102.7807,211.8241 L102.7807,224.4561 C102.7807,224.6951 102.9697,224.8901 103.2007,224.8901 L115.1447,224.8901 C115.3837,224.8901 115.5717,224.6951 115.5717,224.4561 L115.5717,211.8241 L128.8037,211.8241 C129.0437,211.8241 129.2307,211.6291 129.2307,211.3971 L129.2307,199.4531 C129.2307,199.2221 129.0437,199.0261 128.8037,199.0261 L115.5717,199.0261 L115.5717,185.9821 C136.4197,182.5581 152.3667,164.4311 152.3667,142.6431 C152.3667,133.2401 149.3987,124.5241 144.3527,117.3721 L158.9687,102.7571 L158.9687,115.2291 C158.9687,115.4691 159.1637,115.6571 159.3947,115.6571 L170.5357,115.6571 C170.7747,115.6571 170.9767,115.4691 170.9767,115.2291 L170.9767,81.6921 C170.9767,81.4531 170.7747,81.2651 170.5357,81.2651" id="Fill-4"></path>
                    <path d="M128.1997,129.3681 L88.9797,129.3681 C88.7487,129.3681 88.5537,129.5421 88.5537,129.7521 L88.5537,139.2421 C88.5537,139.4671 88.7487,139.6331 88.9797,139.6331 L128.1997,139.6331 C128.4387,139.6331 128.6347,139.4671 128.6347,139.2421 L128.6347,129.7521 C128.6347,129.5421 128.4387,129.3681 128.1997,129.3681" id="Fill-6"></path>
                    <path d="M128.1997,146.3203 L88.9797,146.3203 C88.7487,146.3203 88.5537,146.5013 88.5537,146.7183 L88.5537,156.2083 C88.5537,156.4253 88.7487,156.5923 88.9797,156.5923 L128.1997,156.5923 C128.4387,156.5923 128.6347,156.4253 128.6347,156.2083 L128.6347,146.7183 C128.6347,146.5013 128.4387,146.3203 128.1997,146.3203" id="Fill-8"></path>
                    <polygon id="Fill-10" points="52.332 23.923 56.161 23.923 56.161 1.128 52.332 1.128"></polygon>
                    <path d="M63.9975,11.7548 L69.4405,11.7548 L69.4405,23.9228 L66.6835,23.9228 L66.6835,21.4328 C66.1835,23.1488 65.1045,24.1918 63.0195,24.1918 C59.7265,24.1918 58.2135,21.5708 58.2135,18.0388 L58.2135,7.0138 C58.2135,3.4518 59.9295,0.8608 63.9615,0.8608 C68.1955,0.8608 69.4405,3.2128 69.4405,6.5788 L69.4405,8.5918 L65.9515,8.5918 L65.9515,6.2758 C65.9515,4.8638 65.4085,4.0598 64.0335,4.0598 C62.6505,4.0598 62.0425,5.0298 62.0425,6.4128 L62.0425,18.6468 C62.0425,20.0218 62.6215,20.9988 63.9255,20.9988 C65.1705,20.9988 65.8135,20.2898 65.8135,18.8128 L65.8135,14.7808 L63.9975,14.7808 L63.9975,11.7548 Z" id="Fill-12"></path>
                    <path d="M82.5825,1.1308 L82.5825,18.3738 C82.5825,21.9068 81.0765,24.1938 77.1755,24.1938 C73.1355,24.1938 71.4565,21.9068 71.4565,18.3738 L71.4565,1.1308 L75.2925,1.1308 L75.2925,18.7498 C75.2925,20.0888 75.8285,21.0018 77.1755,21.0018 C78.5145,21.0018 79.0575,20.0888 79.0575,18.7498 L79.0575,1.1308 L82.5825,1.1308 Z" id="Fill-13"></path>
                    <path d="M88.3022,16.6967 L91.3642,16.6967 L89.8512,7.5547 L89.8152,7.5547 L88.3022,16.6967 Z M83.4952,23.9287 L87.8022,1.1337 L92.1672,1.1337 L96.5032,23.9287 L92.5732,23.9287 L91.8632,19.7517 L87.8022,19.7517 L87.1292,23.9287 L83.4952,23.9287 Z" id="Fill-14"></path>
                    <polygon id="Fill-15" points="97.9155 1.1308 101.7445 1.1308 101.7445 20.7988 106.3195 20.7988 106.3195 23.9258 97.9155 23.9258"></polygon>
                    <path d="M113.3471,20.7968 C114.9251,20.7968 115.5341,19.8568 115.5341,18.4808 L115.5341,6.5438 C115.5341,5.1978 114.9251,4.2568 113.3471,4.2568 L111.7261,4.2568 L111.7261,20.7968 L113.3471,20.7968 Z M119.3631,7.2468 L119.3631,17.8078 C119.3631,21.3038 117.9141,23.9238 113.8111,23.9238 L107.8961,23.9238 L107.8961,1.1298 L113.8111,1.1298 C117.9141,1.1298 119.3631,3.7208 119.3631,7.2468 L119.3631,7.2468 Z" id="Fill-16"></path>
                    <path d="M125.0747,16.6967 L128.1377,16.6967 L126.6237,7.5547 L126.5877,7.5547 L125.0747,16.6967 Z M120.2677,23.9287 L124.5757,1.1337 L128.9397,1.1337 L133.2767,23.9287 L129.3457,23.9287 L128.6367,19.7517 L124.5757,19.7517 L123.9017,23.9287 L120.2677,23.9287 Z" id="Fill-17"></path>
                    <path d="M140.1391,20.7968 C141.7171,20.7968 142.3261,19.8568 142.3261,18.4808 L142.3261,6.5438 C142.3261,5.1978 141.7171,4.2568 140.1391,4.2568 L138.5181,4.2568 L138.5181,20.7968 L140.1391,20.7968 Z M146.1551,7.2468 L146.1551,17.8078 C146.1551,21.3038 144.7071,23.9238 140.6031,23.9238 L134.6891,23.9238 L134.6891,1.1298 L140.6031,1.1298 C144.7071,1.1298 146.1551,3.7208 146.1551,7.2468 L146.1551,7.2468 Z" id="Fill-18"></path>
                    <polygon id="Fill-19" points="148.1704 1.1308 157.3134 1.1308 157.3134 4.2578 151.9994 4.2578 151.9994 10.7798 155.8004 10.7798 155.8004 13.8708 151.9994 13.8708 151.9994 20.7988 157.3134 20.7988 157.3134 23.9258 148.1704 23.9258"></polygon>
                    <path d="M57.7768,52.5122 C59.3548,52.5122 59.9638,51.5722 59.9638,50.1892 L59.9638,38.2592 C59.9638,36.9132 59.3548,35.9722 57.7768,35.9722 L56.1628,35.9722 L56.1628,52.5122 L57.7768,52.5122 Z M63.7928,38.9622 L63.7928,49.5162 C63.7928,53.0122 62.3518,55.6392 58.2478,55.6392 L52.3338,55.6392 L52.3338,32.8452 L58.2478,32.8452 C62.3518,32.8452 63.7928,35.4362 63.7928,38.9622 L63.7928,38.9622 Z" id="Fill-20"></path>
                    <polygon id="Fill-21" points="65.8071 32.8461 74.9561 32.8461 74.9561 35.9731 69.6441 35.9731 69.6441 42.4951 73.4441 42.4951 73.4441 45.5861 69.6441 45.5861 69.6441 52.5141 74.9561 52.5141 74.9561 55.6341 65.8071 55.6341"></polygon>
                    <path d="M85.9819,43.4672 L91.4259,43.4672 L91.4259,55.6362 L88.6679,55.6362 L88.6679,53.1462 C88.1689,54.8622 87.0899,55.9042 85.0049,55.9042 C81.7109,55.9042 80.1989,53.2832 80.1989,49.7582 L80.1989,38.7262 C80.1989,35.1642 81.9149,32.5802 85.9459,32.5802 C90.1809,32.5802 91.4259,34.9332 91.4259,38.2922 L91.4259,40.3042 L87.9369,40.3042 L87.9369,37.9882 C87.9369,36.5762 87.3939,35.7722 86.0179,35.7722 C84.6359,35.7722 84.0279,36.7422 84.0279,38.1252 L84.0279,50.3592 C84.0279,51.7412 84.6069,52.7122 85.9099,52.7122 C87.1549,52.7122 87.7989,52.0092 87.7989,50.5322 L87.7989,46.4932 L85.9819,46.4932 L85.9819,43.4672 Z" id="Fill-22"></path>
                    <path d="M101.4077,31.2309 L95.3917,32.0059 L95.3917,29.8559 L101.4077,28.5749 L101.4077,31.2309 Z M93.4377,32.8459 L102.5877,32.8459 L102.5877,35.9729 L97.2737,35.9729 L97.2737,42.4949 L101.0747,42.4949 L101.0747,45.5859 L97.2737,45.5859 L97.2737,52.5129 L102.5877,52.5129 L102.5877,55.6409 L93.4377,55.6409 L93.4377,32.8459 Z" id="Fill-23"></path>
                    <polygon id="Fill-24" points="107.6987 41.3144 107.6987 55.6404 104.4697 55.6404 104.4697 32.8454 108.2347 32.8454 112.3757 45.9254 112.3757 32.8454 115.5597 32.8454 115.5597 55.6404 112.2017 55.6404"></polygon>
                    <polygon id="Fill-25" points="117.5815 32.8461 126.7245 32.8461 126.7245 35.9731 121.4115 35.9731 121.4115 42.4951 125.2115 42.4951 125.2115 45.5861 121.4115 45.5861 121.4115 52.5141 126.7245 52.5141 126.7245 55.6341 117.5815 55.6341"></polygon>
                    <path d="M132.434,35.9711 L132.434,43.0651 L133.715,43.0651 C135.025,43.0651 135.597,42.3921 135.597,41.1831 L135.597,37.8251 C135.597,36.5791 135.025,35.9711 133.715,35.9711 L132.434,35.9711 Z M132.434,45.1791 L132.434,55.6391 L128.604,55.6391 L128.604,32.8441 L134.186,32.8441 C138.051,32.8441 139.462,34.7621 139.462,37.9541 L139.462,40.8791 C139.462,43.3331 138.594,44.7811 136.401,45.2871 L140.071,55.6391 L136.032,55.6391 L132.434,45.1791 Z" id="Fill-26"></path>
                    <path d="M149.145,50.3593 L149.145,38.1263 C149.145,36.7433 148.538,35.7663 147.162,35.7663 C145.816,35.7663 145.207,36.7433 145.207,38.1263 L145.207,50.3593 C145.207,51.7343 145.816,52.7123 147.162,52.7123 C148.538,52.7123 149.145,51.7343 149.145,50.3593 M141.378,49.7583 L141.378,38.7263 C141.378,35.1653 143.13,32.5733 147.162,32.5733 C151.23,32.5733 152.975,35.1653 152.975,38.7263 L152.975,49.7583 C152.975,53.2843 151.23,55.9043 147.162,55.9043 C143.13,55.9043 141.378,53.2843 141.378,49.7583" id="Fill-27"></path>
                </g>
            </g>
        </g>
    </g>
</svg>