<?xml version="1.0" encoding="UTF-8"?>
<svg width="270px" height="270px" viewBox="0 0 270 270" version="1.1" xmlns="http://www.w3.org/2000/svg" xmlns:xlink="http://www.w3.org/1999/xlink">
    <title>ODS6</title>
    <g id="Page-1" stroke="none" stroke-width="1" fill="none" fill-rule="evenodd">
        <g id="ODS_6_detalhe_img1" transform="translate(-576.000000, -304.000000)">
            <g id="ODS6" transform="translate(576.000000, 304.000000)">
                <polygon id="Fill-1" fill="#26BDE2" points="0 269.849 269.827 269.849 269.827 0 0 0"></polygon>
                <g id="Group-50" transform="translate(27.000000, 17.849000)" fill="#FFFFFF">
                    <path d="M9.5719,37.0194 C9.7239,33.9724 11.0119,32.0464 13.9079,32.0464 C17.0279,32.0464 18.2369,33.9724 18.2369,37.5044 L18.2369,46.9734 C18.2369,50.4264 16.9559,52.4314 13.8289,52.4314 C10.7729,52.4314 9.5719,50.3394 9.5719,46.9734 L9.5719,37.0194 Z M13.8289,59.8944 C23.5359,59.8944 27.2999,54.5954 27.2999,46.1694 L27.2999,38.1424 C27.2999,29.2384 23.7739,24.7424 17.1939,24.7424 C13.3429,24.7424 11.0119,26.5094 9.6509,29.1584 L9.5719,29.1584 L9.5719,17.4384 C9.5719,14.1444 10.6219,11.8214 13.9079,11.8214 C17.1939,11.8214 18.1649,13.7534 18.1649,17.1204 L18.1649,20.7324 L26.5039,20.7324 L26.5039,17.8444 C26.5039,9.8164 23.8539,4.1984 13.7419,4.1984 C4.1139,4.1984 0.5019,10.3804 0.5019,18.8864 L0.5019,45.3664 C0.5019,53.7914 4.1929,59.8944 13.8289,59.8944 L13.8289,59.8944 Z" id="Fill-2"></path>
                    <path d="M150.8278,112.1966 C148.1788,111.0246 144.8118,111.4516 141.5838,112.7616 C129.4368,117.6846 121.1708,119.4496 108.3938,115.4546 C100.3448,112.9356 92.8158,107.6586 83.9278,110.8726 C78.0128,112.9936 72.5178,115.0196 65.8448,114.9696 L61.9858,95.2006 L153.5998,95.2006 L150.8278,112.1966 Z M119.7728,170.9046 C119.7728,170.9046 115.3288,175.4716 108.0978,174.9796 C100.8438,175.4716 96.3988,170.9046 96.3988,170.9046 C89.0658,163.5776 91.6798,154.4576 94.2348,149.7446 C95.8058,146.7986 107.0768,129.8746 108.0468,128.4406 L108.0468,128.3246 C108.0468,128.3246 108.0678,128.3466 108.0978,128.3756 L108.1338,128.3246 L108.1338,128.4406 C109.0748,129.8746 120.3598,146.7986 121.9378,149.7446 C124.4938,154.4576 127.1058,163.5776 119.7728,170.9046 L119.7728,170.9046 Z M157.6108,91.2696 C157.3798,91.0236 157.0678,90.8786 156.7208,90.8786 L58.8298,90.8786 C58.4898,90.8786 58.1788,91.0236 57.9538,91.2696 C57.7368,91.5376 57.6498,91.8776 57.7078,92.1966 L74.1468,191.6716 C74.2418,192.2146 74.7198,192.6276 75.2768,192.6276 L95.4658,192.6276 L96.8488,208.8286 L88.3498,208.8356 L108.1188,228.6046 L127.9318,208.7916 L119.4328,208.7996 L120.8158,192.6276 L141.3518,192.6276 C141.9248,192.6276 142.3948,192.2146 142.4818,191.6506 L157.8718,92.1966 C157.9148,91.8486 157.8208,91.5296 157.6108,91.2696 L157.6108,91.2696 Z" id="Fill-4"></path>
                    <path d="M54.6882,20.3929 L57.7502,20.3929 L56.2372,11.2509 L56.2012,11.2509 L54.6882,20.3929 Z M59.4952,3.2149 L53.4792,3.9899 L53.4792,1.8399 L59.4952,0.5589 L59.4952,3.2149 Z M49.8812,27.6239 L54.1812,4.8299 L58.5532,4.8299 L62.8892,27.6239 L58.9592,27.6239 L58.2502,23.4479 L54.1812,23.4479 L53.5072,27.6239 L49.8812,27.6239 Z" id="Fill-6"></path>
                    <path d="M69.5749,15.4515 L75.0259,15.4515 L75.0259,27.6195 L72.2679,27.6195 L72.2679,25.1305 C71.7679,26.8455 70.6829,27.8885 68.5979,27.8885 C65.3109,27.8885 63.7989,25.2675 63.7989,21.7355 L63.7989,10.7105 C63.7989,7.1485 65.5069,4.5575 69.5469,4.5575 C73.7809,4.5575 75.0259,6.9095 75.0259,10.2755 L75.0259,12.2885 L71.5299,12.2885 L71.5299,9.9725 C71.5299,8.5605 70.9869,7.7565 69.6109,7.7565 C68.2289,7.7565 67.6279,8.7265 67.6279,10.1095 L67.6279,22.3435 C67.6279,23.7185 68.2069,24.6955 69.5109,24.6955 C70.7559,24.6955 71.3919,23.9865 71.3919,22.5095 L71.3919,18.4775 L69.5749,18.4775 L69.5749,15.4515 Z" id="Fill-8"></path>
                    <path d="M88.1676,4.826 L88.1676,22.069 C88.1676,25.602 86.6536,27.889 82.7526,27.889 C78.7206,27.889 77.0416,25.602 77.0416,22.069 L77.0416,4.826 L80.8706,4.826 L80.8706,22.446 C80.8706,23.784 81.4056,24.697 82.7526,24.697 C84.0996,24.697 84.6426,23.784 84.6426,22.446 L84.6426,4.826 L88.1676,4.826 Z" id="Fill-10"></path>
                    <path d="M93.8864,20.3929 L96.9484,20.3929 L95.4274,11.2509 L95.3994,11.2509 L93.8864,20.3929 Z M89.0794,27.6239 L93.3794,4.8299 L97.7514,4.8299 L102.0874,27.6239 L98.1574,27.6239 L97.4474,23.4479 L93.3794,23.4479 L92.7054,27.6239 L89.0794,27.6239 Z" id="Fill-12"></path>
                    <path d="M110.6891,7.9549 L110.6891,16.9319 L112.1011,16.9319 C113.4181,16.9319 113.9831,16.2939 113.9831,15.0499 L113.9831,9.8009 C113.9831,8.5559 113.4181,7.9549 112.1011,7.9549 L110.6891,7.9549 Z M106.8601,4.8289 L112.5431,4.8289 C116.4081,4.8289 117.8121,6.7469 117.8121,9.9389 L117.8121,14.7459 C117.8121,17.9379 116.4081,19.8849 112.5431,19.8849 L110.6891,19.8849 L110.6891,27.6229 L106.8601,27.6229 L106.8601,4.8289 Z" id="Fill-14"></path>
                    <path d="M127.3942,22.3402 L127.3942,10.1072 C127.3942,8.7322 126.7922,7.7552 125.4172,7.7552 C124.0712,7.7552 123.4622,8.7322 123.4622,10.1072 L123.4622,22.3402 C123.4622,23.7152 124.0712,24.6932 125.4172,24.6932 C126.7922,24.6932 127.3942,23.7152 127.3942,22.3402 M119.6332,21.7402 L119.6332,10.7152 C119.6332,7.1462 121.3782,4.5552 125.4172,4.5552 C129.4782,4.5552 131.2232,7.1462 131.2232,10.7152 L131.2232,21.7402 C131.2232,25.2652 129.4782,27.8932 125.4172,27.8932 C121.3782,27.8932 119.6332,25.2652 119.6332,21.7402" id="Fill-16"></path>
                    <polygon id="Fill-18" points="132.3063 4.826 142.4923 4.826 142.4923 7.953 139.3353 7.953 139.3353 27.621 135.4703 27.621 135.4703 7.953 132.3063 7.953"></polygon>
                    <path d="M146.6286,20.3929 L149.6836,20.3929 L148.1706,11.2509 L148.1346,11.2509 L146.6286,20.3929 Z M151.4356,3.2149 L145.4126,3.9899 L145.4126,1.8399 L151.4356,0.5589 L151.4356,3.2149 Z M141.8156,27.6239 L146.1216,4.8299 L150.4866,4.8299 L154.8306,27.6239 L150.8926,27.6239 L150.1906,23.4479 L146.1216,23.4479 L145.4486,27.6239 L141.8156,27.6239 Z" id="Fill-20"></path>
                    <polygon id="Fill-22" points="166.4938 4.826 162.1498 27.621 157.9878 27.621 153.6518 4.826 157.5538 4.826 160.1748 20.73 160.2108 20.73 162.8958 4.826"></polygon>
                    <polygon id="Fill-24" points="167.9001 4.826 177.0491 4.826 177.0491 7.953 171.7291 7.953 171.7291 14.475 175.5371 14.475 175.5371 17.566 171.7291 17.566 171.7291 24.494 177.0491 24.494 177.0491 27.621 167.9001 27.621"></polygon>
                    <polygon id="Fill-26" points="178.9274 4.826 182.7564 4.826 182.7564 24.494 187.3314 24.494 187.3314 27.621 178.9274 27.621"></polygon>
                    <polygon id="Fill-28" points="50.4811 36.5423 59.6311 36.5423 59.6311 39.6693 54.3101 39.6693 54.3101 46.1913 58.1181 46.1913 58.1181 49.2823 54.3101 49.2823 54.3101 56.2103 59.6311 56.2103 59.6311 59.3303 50.4811 59.3303"></polygon>
                    <path d="M64.6696,54.4271 L64.6696,51.3651 L68.2316,51.3651 L68.2316,54.4921 C68.2316,55.7741 68.8026,56.5121 70.1196,56.5121 C71.3286,56.5121 71.8646,55.7011 71.8646,54.4921 L71.8646,53.6161 C71.8646,52.3061 71.3286,51.5031 70.1486,50.3881 L67.8986,48.1371 C65.7196,45.9871 64.7056,44.6771 64.7056,42.0561 L64.7056,41.2811 C64.7056,38.4581 66.3496,36.2721 70.0836,36.2721 C73.9136,36.2721 75.4266,38.1551 75.4266,41.4551 L75.4266,43.3011 L71.9306,43.3011 L71.9306,41.3111 C71.9306,40.0081 71.3286,39.3631 70.1196,39.3631 C69.0416,39.3631 68.3036,39.9711 68.3036,41.2451 L68.3036,41.7161 C68.3036,42.9971 69.0126,43.7361 70.1196,44.8141 L72.5736,47.2321 C74.6586,49.3461 75.6656,50.6271 75.6656,53.1461 L75.6656,54.2611 C75.6656,57.3811 73.9786,59.6031 70.0836,59.6031 C66.1826,59.6031 64.6696,57.4171 64.6696,54.4271" id="Fill-30"></path>
                    <path d="M81.3805,52.1048 L84.4365,52.1048 L82.9225,42.9628 L82.8865,42.9628 L81.3805,52.1048 Z M76.5675,59.3368 L80.8745,36.5418 L85.2385,36.5418 L89.5825,59.3368 L85.6445,59.3368 L84.9425,55.1678 L80.8745,55.1678 L80.2005,59.3368 L76.5675,59.3368 Z" id="Fill-32"></path>
                    <polygon id="Fill-34" points="94.2184 45.0111 94.2184 59.3371 90.9894 59.3371 90.9894 36.5421 94.7534 36.5421 98.8944 49.6221 98.8944 36.5421 102.0864 36.5421 102.0864 59.3371 98.7204 59.3371"></polygon>
                    <polygon id="Fill-36" points="104.1012 36.5423 113.2432 36.5423 113.2432 39.6693 107.9302 39.6693 107.9302 46.1913 111.7302 46.1913 111.7302 49.2823 107.9302 49.2823 107.9302 56.2103 113.2432 56.2103 113.2432 59.3303 104.1012 59.3303"></polygon>
                    <path d="M119.3278,52.1048 L122.3898,52.1048 L120.8768,42.9628 L120.8408,42.9628 L119.3278,52.1048 Z M114.5208,59.3368 L118.8278,36.5418 L123.1928,36.5418 L127.5288,59.3368 L123.5988,59.3368 L122.8898,55.1678 L118.8278,55.1678 L118.1548,59.3368 L114.5208,59.3368 Z" id="Fill-38"></path>
                    <polygon id="Fill-40" points="139.4967 44.5414 139.3947 44.5414 136.8107 59.3304 135.0297 59.3304 132.1707 44.5414 132.1047 44.5414 132.1047 59.3304 128.9417 59.3304 128.9417 36.5424 133.4157 36.5424 135.8987 49.3844 135.9347 49.3844 138.1497 36.5424 142.9927 36.5424 142.9927 59.3304 139.4967 59.3304"></polygon>
                    <polygon id="Fill-42" points="145.0104 36.5423 154.1594 36.5423 154.1594 39.6693 148.8394 39.6693 148.8394 46.1913 152.6474 46.1913 152.6474 49.2823 148.8394 49.2823 148.8394 56.2103 154.1594 56.2103 154.1594 59.3303 145.0104 59.3303"></polygon>
                    <polygon id="Fill-44" points="159.2682 45.0111 159.2682 59.3371 156.0392 59.3371 156.0392 36.5421 159.7962 36.5421 163.9372 49.6221 163.9372 36.5421 167.1292 36.5421 167.1292 59.3371 163.7712 59.3371"></polygon>
                    <polygon id="Fill-46" points="168.7126 36.5423 178.8906 36.5423 178.8906 39.6693 175.7336 39.6693 175.7336 59.3303 171.8686 59.3303 171.8686 39.6693 168.7126 39.6693"></polygon>
                    <path d="M187.7712,54.056 L187.7712,41.823 C187.7712,40.44 187.1632,39.463 185.7882,39.463 C184.4412,39.463 183.8332,40.44 183.8332,41.823 L183.8332,54.056 C183.8332,55.431 184.4412,56.409 185.7882,56.409 C187.1632,56.409 187.7712,55.431 187.7712,54.056 M180.0032,53.456 L180.0032,42.423 C180.0032,38.862 181.7552,36.27 185.7882,36.27 C189.8562,36.27 191.6002,38.862 191.6002,42.423 L191.6002,53.456 C191.6002,56.981 189.8562,59.601 185.7882,59.601 C181.7552,59.601 180.0032,56.981 180.0032,53.456" id="Fill-48"></path>
                </g>
            </g>
        </g>
    </g>
</svg>