<?xml version="1.0" encoding="UTF-8"?>
<svg width="270px" height="270px" viewBox="0 0 270 270" version="1.1" xmlns="http://www.w3.org/2000/svg" xmlns:xlink="http://www.w3.org/1999/xlink">
    <title>ODS7</title>
    <g id="Page-1" stroke="none" stroke-width="1" fill="none" fill-rule="evenodd">
        <g id="ODS_7_detalhe_img1" transform="translate(-576.000000, -304.000000)">
            <g id="ODS7" transform="translate(576.000000, 304.000000)">
                <polygon id="Fill-1" fill="#FCC30B" points="1.27897692e-12 269.841 269.834 269.841 269.834 -5.68434189e-14 1.27897692e-12 -5.68434189e-14"></polygon>
                <g id="Group-48" transform="translate(27.000000, 21.841000)" fill="#FFFFFF">
                    <path d="M88.6938,3.9604 L88.6938,11.0544 L89.9748,11.0544 C91.2848,11.0544 91.8568,10.3814 91.8568,9.1724 L91.8568,5.8064 C91.8568,4.5614 91.2848,3.9604 89.9748,3.9604 L88.6938,3.9604 Z M88.6938,13.1684 L88.6938,23.6284 L84.8638,23.6284 L84.8638,0.8334 L90.4448,0.8334 C94.3108,0.8334 95.7228,2.7514 95.7228,5.9444 L95.7228,8.8684 C95.7228,11.3224 94.8538,12.7704 92.6678,13.2694 L96.3308,23.6284 L92.2918,23.6284 L88.6938,13.1684 Z" id="Fill-6"></path>
                    <path d="M103.4189,11.4575 L108.8619,11.4575 L108.8619,23.6255 L106.1049,23.6255 L106.1049,21.1365 C105.6049,22.8515 104.5259,23.8945 102.4409,23.8945 C99.1479,23.8945 97.6349,21.2735 97.6349,17.7415 L97.6349,6.7165 C97.6349,3.1545 99.3509,0.5635 103.3829,0.5635 C107.6249,0.5635 108.8619,2.9155 108.8619,6.2825 L108.8619,8.2945 L105.3739,8.2945 L105.3739,5.9785 C105.3739,4.5665 104.8309,3.7625 103.4549,3.7625 C102.0719,3.7625 101.4639,4.7335 101.4639,6.1155 L101.4639,18.3495 C101.4639,19.7245 102.0439,20.7025 103.3469,20.7025 C104.5909,20.7025 105.2359,19.9925 105.2359,18.5155 L105.2359,14.4835 L103.4189,14.4835 L103.4189,11.4575 Z" id="Fill-8"></path>
                    <polygon id="Fill-10" points="110.885 23.625 114.715 23.625 114.715 0.831 110.885 0.831"></polygon>
                    <path d="M120.9717,16.3994 L124.0267,16.3994 L122.5137,7.2564 L122.4767,7.2564 L120.9717,16.3994 Z M116.1577,23.6304 L120.4647,0.8364 L124.8297,0.8364 L129.1737,23.6304 L125.2357,23.6304 L124.5337,19.4544 L120.4647,19.4544 L119.7917,23.6304 L116.1577,23.6304 Z" id="Fill-12"></path>
                    <path d="M130.041,18.7177 L130.041,15.6627 L133.603,15.6627 L133.603,18.7827 C133.603,20.0647 134.174,20.8027 135.492,20.8027 C136.701,20.8027 137.236,19.9917 137.236,18.7827 L137.236,17.9137 C137.236,16.6047 136.701,15.7927 135.521,14.6857 L133.27,12.4347 C131.091,10.2777 130.077,8.9677 130.077,6.3467 L130.077,5.5797 C130.077,2.7487 131.72,0.5627 135.456,0.5627 C139.285,0.5627 140.798,2.4447 140.798,5.7457 L140.798,7.5917 L137.302,7.5917 L137.302,5.6087 C137.302,4.2987 136.701,3.6537 135.492,3.6537 C134.413,3.6537 133.675,4.2617 133.675,5.5437 L133.675,6.0137 C133.675,7.2877 134.384,8.0257 135.492,9.1047 L137.946,11.5227 C140.031,13.6437 141.037,14.9177 141.037,17.4447 L141.037,18.5517 C141.037,21.6787 139.35,23.8937 135.456,23.8937 C131.554,23.8937 130.041,21.7147 130.041,18.7177" id="Fill-13"></path>
                    <path d="M53.5317,35.6728 L53.5317,42.7678 L54.8127,42.7678 C56.1237,42.7678 56.6957,42.0938 56.6957,40.8858 L56.6957,37.5268 C56.6957,36.2808 56.1237,35.6728 54.8127,35.6728 L53.5317,35.6728 Z M53.5317,44.8808 L53.5317,55.3408 L49.7027,55.3408 L49.7027,32.5458 L55.2837,32.5458 C59.1487,32.5458 60.5607,34.4638 60.5607,37.6568 L60.5607,40.5808 C60.5607,43.0348 59.6917,44.4838 57.4987,44.9898 L61.1687,55.3408 L57.1297,55.3408 L53.5317,44.8808 Z" id="Fill-14"></path>
                    <polygon id="Fill-15" points="62.4741 32.5488 71.6241 32.5488 71.6241 35.6758 66.3031 35.6758 66.3031 42.1978 70.1111 42.1978 70.1111 45.2888 66.3031 45.2888 66.3031 52.2168 71.6241 52.2168 71.6241 55.3368 62.4741 55.3368"></polygon>
                    <polygon id="Fill-16" points="76.7329 41.0214 76.7329 55.3394 73.5039 55.3394 73.5039 32.5514 77.2689 32.5514 81.4089 45.6254 81.4089 32.5514 84.5939 32.5514 84.5939 55.3394 81.2349 55.3394"></polygon>
                    <path d="M94.3774,50.0625 L94.3774,37.8295 C94.3774,36.4465 93.7694,35.4685 92.3944,35.4685 C91.0474,35.4685 90.4464,36.4465 90.4464,37.8295 L90.4464,50.0625 C90.4464,51.4375 91.0474,52.4155 92.3944,52.4155 C93.7694,52.4155 94.3774,51.4375 94.3774,50.0625 M86.6174,49.4615 L86.6174,38.4295 C86.6174,34.8685 88.3624,32.2765 92.3944,32.2765 C96.4624,32.2765 98.2074,34.8685 98.2074,38.4295 L98.2074,49.4615 C98.2074,52.9875 96.4624,55.6075 92.3944,55.6075 C88.3624,55.6075 86.6174,52.9875 86.6174,49.4615" id="Fill-17"></path>
                    <polygon id="Fill-18" points="111.8237 32.5488 107.4807 55.3368 103.3187 55.3368 98.9897 32.5488 102.8837 32.5488 105.5047 48.4448 105.5407 48.4448 108.2257 32.5488"></polygon>
                    <path d="M115.4224,48.1113 L118.4844,48.1113 L116.9714,38.9693 L116.9354,38.9693 L115.4224,48.1113 Z M120.2294,30.9343 L114.2134,31.7093 L114.2134,29.5583 L120.2294,28.2773 L120.2294,30.9343 Z M110.6154,55.3433 L114.9154,32.5483 L119.2874,32.5483 L123.6244,55.3433 L119.6934,55.3433 L118.9844,51.1743 L114.9154,51.1743 L114.2424,55.3433 L110.6154,55.3433 Z" id="Fill-19"></path>
                    <polygon id="Fill-20" points="135.2861 32.5488 130.9431 55.3368 126.7811 55.3368 122.4451 32.5488 126.3461 32.5488 128.9671 48.4448 129.0031 48.4448 131.6881 32.5488"></polygon>
                    <polygon id="Fill-21" points="136.7002 32.5488 145.8432 32.5488 145.8432 35.6758 140.5292 35.6758 140.5292 42.1978 144.3292 42.1978 144.3292 45.2888 140.5292 45.2888 140.5292 52.2168 145.8432 52.2168 145.8432 55.3368 136.7002 55.3368"></polygon>
                    <polygon id="Fill-22" points="147.723 55.339 151.553 55.339 151.553 32.551 147.723 32.551"></polygon>
                    <path d="M153.4043,50.4335 L153.4043,47.3715 L156.9663,47.3715 L156.9663,50.4985 C156.9663,51.7805 157.5373,52.5185 158.8553,52.5185 C160.0643,52.5185 160.5993,51.7075 160.5993,50.4985 L160.5993,49.6225 C160.5993,48.3205 160.0643,47.5095 158.8843,46.3945 L156.6333,44.1435 C154.4463,41.9945 153.4403,40.6835 153.4403,38.0625 L153.4403,37.2875 C153.4403,34.4645 155.0833,32.2795 158.8193,32.2795 C162.6483,32.2795 164.1613,34.1615 164.1613,37.4615 L164.1613,39.3075 L160.6653,39.3075 L160.6653,37.3245 C160.6653,36.0145 160.0643,35.3705 158.8553,35.3705 C157.7763,35.3705 157.0383,35.9785 157.0383,37.2515 L157.0383,37.7305 C157.0383,39.0035 157.7473,39.7425 158.8553,40.8215 L161.3093,43.2395 C163.3863,45.3525 164.4003,46.6335 164.4003,49.1535 L164.4003,50.2675 C164.4003,53.3955 162.7133,55.6105 158.8193,55.6105 C154.9173,55.6105 153.4043,53.4235 153.4043,50.4335" id="Fill-23"></path>
                    <polygon id="Fill-24" points="49.7002 64.2607 58.8502 64.2607 58.8502 67.3877 53.5302 67.3877 53.5302 73.9097 57.3372 73.9097 57.3372 77.0007 53.5302 77.0007 53.5302 83.9287 58.8502 83.9287 58.8502 87.0557 49.7002 87.0557"></polygon>
                    <path d="M68.292,79.8271 L71.354,79.8271 L69.841,70.6841 L69.805,70.6841 L68.292,79.8271 Z M63.485,87.0581 L67.792,64.2641 L72.157,64.2641 L76.5,87.0581 L72.563,87.0581 L71.853,82.8821 L67.792,82.8821 L67.119,87.0581 L63.485,87.0581 Z" id="Fill-25"></path>
                    <path d="M77.4038,81.1699 L77.4038,70.1459 C77.4038,66.5839 79.0838,63.9919 83.1148,63.9919 C87.3498,63.9919 88.5298,66.3449 88.5298,69.7109 L88.5298,72.3969 L85.0338,72.3969 L85.0338,69.4059 C85.0338,67.9949 84.5628,67.1849 83.1878,67.1849 C81.8048,67.1849 81.2338,68.1609 81.2338,69.5449 L81.2338,81.7709 C81.2338,83.1529 81.8048,84.1309 83.1878,84.1309 C84.5628,84.1309 85.0338,83.2549 85.0338,81.9159 L85.0338,77.7099 L88.5298,77.7099 L88.5298,81.6409 C88.5298,84.9049 87.1908,87.3229 83.1148,87.3229 C79.0838,87.3229 77.4038,84.7019 77.4038,81.1699" id="Fill-26"></path>
                    <polygon id="Fill-27" points="90.4468 64.2607 99.5898 64.2607 99.5898 67.3877 94.2768 67.3877 94.2768 73.9097 98.0768 73.9097 98.0768 77.0007 94.2768 77.0007 94.2768 83.9287 99.5898 83.9287 99.5898 87.0557 90.4468 87.0557"></polygon>
                    <path d="M101.1001,82.1455 L101.1001,79.0905 L104.6621,79.0905 L104.6621,82.2105 C104.6621,83.4925 105.2331,84.2305 106.5511,84.2305 C107.7601,84.2305 108.2961,83.4195 108.2961,82.2105 L108.2961,81.3425 C108.2961,80.0325 107.7601,79.2215 106.5801,78.1145 L104.3291,75.8625 C102.1501,73.7065 101.1361,72.3955 101.1361,69.7745 L101.1361,69.0075 C101.1361,66.1765 102.7801,63.9915 106.5151,63.9915 C110.3441,63.9915 111.8571,65.8735 111.8571,69.1735 L111.8571,71.0195 L108.3611,71.0195 L108.3611,69.0365 C108.3611,67.7265 107.7601,67.0825 106.5511,67.0825 C105.4731,67.0825 104.7341,67.6905 104.7341,68.9715 L104.7341,69.4425 C104.7341,70.7155 105.4431,71.4545 106.5511,72.5335 L109.0051,74.9505 C111.0901,77.0715 112.0961,78.3455 112.0961,80.8725 L112.0961,81.9795 C112.0961,85.1065 110.4091,87.3215 106.5151,87.3215 C102.6131,87.3215 101.1001,85.1425 101.1001,82.1455" id="Fill-28"></path>
                    <path d="M113.5698,82.1455 L113.5698,79.0905 L117.1318,79.0905 L117.1318,82.2105 C117.1318,83.4925 117.7028,84.2305 119.0208,84.2305 C120.2298,84.2305 120.7648,83.4195 120.7648,82.2105 L120.7648,81.3425 C120.7648,80.0325 120.2298,79.2215 119.0498,78.1145 L116.7988,75.8625 C114.6198,73.7065 113.6058,72.3955 113.6058,69.7745 L113.6058,69.0075 C113.6058,66.1765 115.2488,63.9915 118.9848,63.9915 C122.8138,63.9915 124.3268,65.8735 124.3268,69.1735 L124.3268,71.0195 L120.8308,71.0195 L120.8308,69.0365 C120.8308,67.7265 120.2298,67.0825 119.0208,67.0825 C117.9418,67.0825 117.2038,67.6905 117.2038,68.9715 L117.2038,69.4425 C117.2038,70.7155 117.9128,71.4545 119.0208,72.5335 L121.4748,74.9505 C123.5598,77.0715 124.5658,78.3455 124.5658,80.8725 L124.5658,81.9795 C124.5658,85.1065 122.8788,87.3215 118.9848,87.3215 C115.0828,87.3215 113.5698,85.1425 113.5698,82.1455" id="Fill-29"></path>
                    <path d="M126.412,87.06 L130.242,87.06 L130.242,64.265 L126.412,64.265 L126.412,87.06 Z M131.458,62.649 L125.442,63.425 L125.442,61.268 L131.458,59.993 L131.458,62.649 Z" id="Fill-30"></path>
                    <polygon id="Fill-31" points="144.5679 64.2607 140.2249 87.0557 136.0629 87.0557 131.7259 64.2607 135.6279 64.2607 138.2489 80.1647 138.2769 80.1647 140.9699 64.2607"></polygon>
                    <polygon id="Fill-32" points="145.9751 64.2607 155.1251 64.2607 155.1251 67.3877 149.8051 67.3877 149.8051 73.9097 153.6121 73.9097 153.6121 77.0007 149.8051 77.0007 149.8051 83.9287 155.1251 83.9287 155.1251 87.0557 145.9751 87.0557"></polygon>
                    <polygon id="Fill-33" points="157.003 87.06 160.833 87.06 160.833 64.265 157.003 64.265"></polygon>
                    <path d="M162.6865,82.1455 L162.6865,79.0905 L166.2485,79.0905 L166.2485,82.2105 C166.2485,83.4925 166.8195,84.2305 168.1305,84.2305 C169.3395,84.2305 169.8745,83.4195 169.8745,82.2105 L169.8745,81.3425 C169.8745,80.0325 169.3395,79.2215 168.1665,78.1145 L165.9075,75.8625 C163.7285,73.7065 162.7155,72.3955 162.7155,69.7745 L162.7155,69.0075 C162.7155,66.1765 164.3585,63.9915 168.0945,63.9915 C171.9235,63.9915 173.4365,65.8735 173.4365,69.1735 L173.4365,71.0195 L169.9475,71.0195 L169.9475,69.0365 C169.9475,67.7265 169.3395,67.0825 168.1305,67.0825 C167.0595,67.0825 166.3135,67.6905 166.3135,68.9715 L166.3135,69.4425 C166.3135,70.7155 167.0225,71.4545 168.1305,72.5335 L170.5835,74.9505 C172.6685,77.0715 173.6825,78.3455 173.6825,80.8725 L173.6825,81.9795 C173.6825,85.1065 171.9955,87.3215 168.0945,87.3215 C164.1995,87.3215 162.6865,85.1425 162.6865,82.1455" id="Fill-34"></path>
                    <path d="M107.915,176.5791 C98.548,176.5791 90.954,168.9931 90.954,159.6261 C90.954,152.0111 95.971,145.5751 102.876,143.4261 L102.876,149.7381 C99.286,151.5761 96.818,155.3111 96.818,159.6261 C96.818,165.7501 101.784,170.7231 107.915,170.7231 C114.053,170.7231 119.012,165.7501 119.012,159.6261 C119.012,155.2971 116.536,151.5551 112.924,149.7301 L112.924,143.4181 C119.844,145.5541 124.875,151.9961 124.875,159.6261 C124.875,168.9931 117.282,176.5791 107.915,176.5791 L107.915,176.5791 Z M105.497,140.1531 C105.497,139.0681 106.583,137.8731 107.922,137.8731 C109.261,137.8731 110.34,139.0681 110.34,140.1531 L110.34,151.3451 C110.34,152.4231 109.261,153.6101 107.922,153.6101 C106.583,153.6101 105.497,152.4231 105.497,151.3451 L105.497,140.1531 Z M107.908,127.2681 C89.912,127.2681 75.311,141.8691 75.311,159.8721 C75.311,177.8901 89.912,192.4751 107.908,192.4751 C125.911,192.4751 140.511,177.8901 140.511,159.8721 C140.511,141.8691 125.911,127.2681 107.908,127.2681 L107.908,127.2681 Z" id="Fill-35"></path>
                    <path d="M70.4839,159.5888 C70.4839,158.1118 69.1729,156.9098 67.9789,156.9098 L53.7119,156.9098 C52.5029,156.9098 51.1779,158.1118 51.1779,159.5888 C51.1779,161.0728 52.5029,162.2748 53.7119,162.2748 L67.9789,162.2748 C69.1729,162.2748 70.4839,161.0728 70.4839,159.5888" id="Fill-36"></path>
                    <path d="M164.6519,159.5888 C164.6519,158.1118 163.3419,156.9098 162.1479,156.9098 L147.8729,156.9098 C146.6709,156.9098 145.3459,158.1118 145.3459,159.5888 C145.3459,161.0728 146.6709,162.2748 147.8729,162.2748 L162.1479,162.2748 C163.3419,162.2748 164.6519,161.0728 164.6519,159.5888" id="Fill-37"></path>
                    <path d="M107.9214,122.164 C109.3984,122.164 110.5924,120.853 110.5924,119.659 L110.5924,105.384 C110.5924,104.176 109.3984,102.857 107.9214,102.857 C106.4444,102.857 105.2354,104.176 105.2354,105.384 L105.2354,119.659 C105.2354,120.853 106.4444,122.164 107.9214,122.164" id="Fill-38"></path>
                    <path d="M107.9214,216.3281 C109.3984,216.3281 110.5924,215.0181 110.5924,213.8241 L110.5924,199.5491 C110.5924,198.3481 109.3984,197.0221 107.9214,197.0221 C106.4444,197.0221 105.2354,198.3481 105.2354,199.5491 L105.2354,213.8241 C105.2354,215.0181 106.4444,216.3281 107.9214,216.3281" id="Fill-39"></path>
                    <path d="M75.4321,140.996 C76.1701,139.716 75.6271,138.021 74.5921,137.428 L62.2001,130.341 C61.1501,129.74 59.4121,130.124 58.6821,131.405 C57.9431,132.693 58.4861,134.394 59.5361,134.988 L71.9291,142.082 C72.9641,142.676 74.6941,142.285 75.4321,140.996" id="Fill-40"></path>
                    <path d="M157.1655,187.7695 C157.8965,186.4885 157.3535,184.7945 156.3185,184.2015 L143.9255,177.1145 C142.8755,176.5135 141.1385,176.9045 140.4075,178.1855 C139.6695,179.4665 140.2195,181.1675 141.2695,181.7685 L153.6545,188.8555 C154.6895,189.4495 156.4195,189.0585 157.1655,187.7695" id="Fill-41"></path>
                    <path d="M126.5137,127.1084 C127.8027,127.8474 129.4817,127.3044 130.0757,126.2614 L137.1767,113.8774 C137.7697,112.8274 137.3867,111.0894 136.1047,110.3514 C134.8167,109.6124 133.1157,110.1704 132.5147,111.2124 L125.4277,123.5974 C124.8337,124.6404 125.2247,126.3704 126.5137,127.1084" id="Fill-42"></path>
                    <path d="M79.7373,208.8398 C81.0253,209.5698 82.7123,209.0268 83.3053,207.9928 L90.4003,195.5998 C90.9933,194.5578 90.6103,192.8128 89.3283,192.0818 C88.0403,191.3438 86.3393,191.8938 85.7453,192.9368 L78.6583,205.3288 C78.0653,206.3638 78.4483,208.1018 79.7373,208.8398" id="Fill-43"></path>
                    <path d="M89.2588,127.1406 C90.5478,126.4026 90.9238,124.6726 90.3308,123.6376 L83.2148,111.2586 C82.6138,110.2166 80.9198,109.6656 79.6388,110.4046 C78.3498,111.1426 77.9668,112.8876 78.5678,113.9376 L85.6828,126.3076 C86.2838,127.3426 87.9708,127.8786 89.2588,127.1406" id="Fill-44"></path>
                    <path d="M136.2056,208.7753 C137.4866,208.0373 137.8706,206.3073 137.2696,205.2723 L130.1616,192.8933 C129.5606,191.8513 127.8666,191.3013 126.5786,192.0403 C125.2966,192.7783 124.9056,194.5223 125.5136,195.5653 L132.6296,207.9433 C133.2236,208.9783 134.9166,209.5143 136.2056,208.7753" id="Fill-45"></path>
                    <path d="M140.3691,140.9394 C141.1081,142.2204 142.8381,142.6054 143.8731,142.0034 L156.2441,134.8954 C157.2941,134.2944 157.8441,132.5934 157.1131,131.3124 C156.3671,130.0314 154.6221,129.6404 153.5731,130.2414 L141.2021,137.3644 C140.1661,137.9584 139.6231,139.6514 140.3691,140.9394" id="Fill-46"></path>
                    <path d="M58.7344,187.8818 C59.4724,189.1628 61.2024,189.5478 62.2374,188.9458 L74.6094,181.8378 C75.6584,181.2368 76.2094,179.5358 75.4704,178.2548 C74.7324,176.9738 72.9874,176.5828 71.9454,177.1838 L59.5674,184.2988 C58.5314,184.8998 57.9964,186.5938 58.7344,187.8818" id="Fill-47"></path>
                    <polygon id="Fill-2" points="0.6753 8.2382 14.7983 8.2382 2.6013 55.1822 11.6783 55.1822 23.6303 9.2012 23.6303 0.7752 0.6753 0.7752"></polygon>
                    <polygon id="Fill-3" points="49.7002 0.8325 58.8502 0.8325 58.8502 3.9595 53.5302 3.9595 53.5302 10.4815 57.3372 10.4815 57.3372 13.5735 53.5302 13.5735 53.5302 20.5005 58.8502 20.5005 58.8502 23.6275 49.7002 23.6275"></polygon>
                    <polygon id="Fill-4" points="63.9585 9.3051 63.9585 23.6311 60.7295 23.6311 60.7295 0.8361 64.4945 0.8361 68.6345 13.9091 68.6345 0.8361 71.8195 0.8361 71.8195 23.6311 68.4605 23.6311"></polygon>
                    <polygon id="Fill-5" points="73.8408 0.8325 82.9838 0.8325 82.9838 3.9595 77.6708 3.9595 77.6708 10.4815 81.4708 10.4815 81.4708 13.5735 77.6708 13.5735 77.6708 20.5005 82.9838 20.5005 82.9838 23.6275 73.8408 23.6275"></polygon>
                </g>
            </g>
        </g>
    </g>
</svg>