<?xml version="1.0" encoding="UTF-8"?>
<svg width="270px" height="270px" viewBox="0 0 270 270" version="1.1" xmlns="http://www.w3.org/2000/svg" xmlns:xlink="http://www.w3.org/1999/xlink">
    <title>ODS8</title>
    <g id="Page-1" stroke="none" stroke-width="1" fill="none" fill-rule="evenodd">
        <g id="ODS_8_detalhe_img1" transform="translate(-576.000000, -304.000000)">
            <g id="ODS8" transform="translate(576.000000, 304.000000)">
                <polygon id="Fill-1" fill="#A21942" points="1.27897692e-12 269.841 269.834 269.841 269.834 -5.68434189e-14 1.27897692e-12 -5.68434189e-14"></polygon>
                <g id="Group-52" transform="translate(25.000000, 21.841000)" fill="#FFFFFF">
                    <path d="M18.1441,42.827 C18.1441,46.12 16.9421,48.444 13.6561,48.444 C10.4421,48.444 9.2401,46.12 9.2401,42.827 L9.2401,34.003 C9.2401,30.709 10.4421,28.386 13.6561,28.386 C16.9421,28.386 18.1441,30.709 18.1441,34.003 L18.1441,42.827 Z M9.5511,12.735 C9.5511,9.441 10.6881,7.516 13.6561,7.516 C16.7041,7.516 17.8261,9.441 17.8261,12.735 L17.8261,16.427 C17.8261,19.713 16.7041,21.646 13.6561,21.646 C10.6881,21.646 9.5511,19.713 9.5511,16.427 L9.5511,12.735 Z M27.2941,41.864 L27.2941,35.921 C27.2941,30.709 25.4481,26.937 21.1991,25.012 C24.8041,23.246 26.4901,20.039 26.4901,15.544 L26.4901,13.293 C26.4901,4.794 22.0751,0.219 13.6561,0.219 C5.3101,0.219 0.9741,4.794 0.9741,13.293 L0.9741,15.544 C0.9741,19.959 2.5811,23.246 6.1061,25.012 C1.8561,26.937 0.0901,30.709 0.0901,35.921 L0.0901,41.864 C0.0901,50.131 4.0211,55.907 13.6561,55.907 C23.3631,55.907 27.2941,50.131 27.2941,41.864 L27.2941,41.864 Z" id="Fill-2"></path>
                    <polygon id="Fill-4" points="45.1129 0.8289 55.2979 0.8289 55.2979 3.9559 52.1419 3.9559 52.1419 23.6169 48.2769 23.6169 48.2769 3.9559 45.1129 3.9559"></polygon>
                    <path d="M60.7432,3.9574 L60.7432,11.0514 L62.0242,11.0514 C63.3272,11.0514 63.9062,10.3784 63.9062,9.1694 L63.9062,5.8034 C63.9062,4.5584 63.3272,3.9574 62.0242,3.9574 L60.7432,3.9574 Z M60.7432,13.1654 L60.7432,23.6184 L56.9132,23.6184 L56.9132,0.8304 L62.4872,0.8304 C66.3532,0.8304 67.7722,2.7484 67.7722,5.9414 L67.7722,8.8654 C67.7722,11.3194 66.8962,12.7674 64.7102,13.2664 L68.3722,23.6184 L64.3412,23.6184 L60.7432,13.1654 Z" id="Fill-6"></path>
                    <path d="M73.8843,16.3953 L76.9463,16.3953 L75.4333,7.2523 L75.3973,7.2523 L73.8843,16.3953 Z M69.0773,23.6203 L73.3843,0.8323 L77.7503,0.8323 L82.0933,23.6203 L78.1553,23.6203 L77.4463,19.4503 L73.3843,19.4503 L72.7113,23.6203 L69.0773,23.6203 Z" id="Fill-8"></path>
                    <path d="M87.3306,13.3699 L87.3306,20.4929 L89.0096,20.4929 C90.2906,20.4929 90.8986,19.8559 90.8986,18.6469 L90.8986,15.2159 C90.8986,14.0069 90.3276,13.3699 88.9806,13.3699 L87.3306,13.3699 Z M87.3306,10.4459 L88.6846,10.4459 C89.9216,10.4459 90.4936,9.8089 90.4936,8.5929 L90.4936,5.8059 C90.4936,4.5599 89.9216,3.9589 88.6476,3.9589 L87.3306,3.9589 L87.3306,10.4459 Z M83.5006,0.8319 L89.0456,0.8319 C92.8826,0.8319 94.1566,2.6129 94.1566,5.8419 L94.1566,8.1579 C94.1566,10.0769 93.4546,11.2859 91.8696,11.7919 C93.7876,12.2259 94.7286,13.5079 94.7286,15.5849 L94.7286,18.6109 C94.7286,21.8399 93.2806,23.6199 89.4516,23.6199 L83.5006,23.6199 L83.5006,0.8319 Z" id="Fill-10"></path>
                    <path d="M100.5074,16.3953 L103.5694,16.3953 L102.0564,7.2523 L102.0204,7.2523 L100.5074,16.3953 Z M95.7004,23.6203 L100.0074,0.8323 L104.3724,0.8323 L108.7154,23.6203 L104.7784,23.6203 L104.0694,19.4503 L100.0074,19.4503 L99.3344,23.6203 L95.7004,23.6203 Z" id="Fill-12"></path>
                    <polygon id="Fill-14" points="110.1211 0.8289 113.9511 0.8289 113.9511 20.4969 118.5251 20.4969 118.5251 23.6169 110.1211 23.6169"></polygon>
                    <polygon id="Fill-16" points="127.6382 13.5711 123.9392 13.5711 123.9392 23.6181 120.1102 23.6181 120.1102 0.8311 123.9392 0.8311 123.9392 10.4801 127.6382 10.4801 127.6382 0.8311 131.5042 0.8311 131.5042 23.6181 127.6382 23.6181"></polygon>
                    <path d="M141.2823,18.3426 L141.2823,6.1096 C141.2823,4.7346 140.6813,3.7576 139.3053,3.7576 C137.9593,3.7576 137.3513,4.7346 137.3513,6.1096 L137.3513,18.3426 C137.3513,19.7186 137.9593,20.6966 139.3053,20.6966 C140.6813,20.6966 141.2823,19.7186 141.2823,18.3426 M133.5223,17.7426 L133.5223,6.7176 C133.5223,3.1486 135.2663,0.5576 139.3053,0.5576 C143.3663,0.5576 145.1183,3.1486 145.1183,6.7176 L145.1183,17.7426 C145.1183,21.2676 143.3663,23.8956 139.3053,23.8956 C135.2663,23.8956 133.5223,21.2676 133.5223,17.7426" id="Fill-18"></path>
                    <path d="M155.9434,20.4949 C157.5214,20.4949 158.1294,19.5549 158.1294,18.1799 L158.1294,6.2419 C158.1294,4.8959 157.5214,3.9539 155.9434,3.9539 L154.3294,3.9539 L154.3294,20.4949 L155.9434,20.4949 Z M161.9594,6.9449 L161.9594,17.5059 C161.9594,21.0019 160.5114,23.6219 156.4064,23.6219 L150.4924,23.6219 L150.4924,0.8279 L156.4064,0.8279 C160.5114,0.8279 161.9594,3.4189 161.9594,6.9449 L161.9594,6.9449 Z" id="Fill-20"></path>
                    <polygon id="Fill-22" points="163.977 23.618 167.806 23.618 167.806 0.83 163.977 0.83"></polygon>
                    <path d="M175.6382,11.4539 L181.0892,11.4539 L181.0892,23.6219 L178.3312,23.6219 L178.3312,21.1329 C177.8242,22.8479 176.7452,23.8909 174.6612,23.8909 C171.3672,23.8909 169.8542,21.2689 169.8542,17.7369 L169.8542,6.7129 C169.8542,3.1509 171.5702,0.5599 175.6022,0.5599 C179.8442,0.5599 181.0892,2.9119 181.0892,6.2779 L181.0892,8.2909 L177.5932,8.2909 L177.5932,5.9749 C177.5932,4.5629 177.0502,3.7589 175.6742,3.7589 C174.2912,3.7589 173.6832,4.7289 173.6832,6.1039 L173.6832,18.3459 C173.6832,19.7209 174.2632,20.6979 175.5732,20.6979 C176.8182,20.6979 177.4552,19.9879 177.4552,18.5119 L177.4552,14.4799 L175.6382,14.4799 L175.6382,11.4539 Z" id="Fill-24"></path>
                    <polygon id="Fill-25" points="186.3335 9.3006 186.3335 23.6186 183.1045 23.6186 183.1045 0.8316 186.8615 0.8316 191.0025 13.9046 191.0025 0.8316 194.1945 0.8316 194.1945 23.6186 190.8355 23.6186"></polygon>
                    <path d="M203.9781,18.3426 L203.9781,6.1096 C203.9781,4.7346 203.3701,3.7576 201.9951,3.7576 C200.6481,3.7576 200.0471,4.7346 200.0471,6.1096 L200.0471,18.3426 C200.0471,19.7186 200.6481,20.6966 201.9951,20.6966 C203.3701,20.6966 203.9781,19.7186 203.9781,18.3426 M196.2111,17.7426 L196.2111,6.7176 C196.2111,3.1486 197.9631,0.5576 201.9951,0.5576 C206.0631,0.5576 207.8081,3.1486 207.8081,6.7176 L207.8081,17.7426 C207.8081,21.2676 206.0631,23.8956 201.9951,23.8956 C197.9631,23.8956 196.2111,21.2676 196.2111,17.7426" id="Fill-26"></path>
                    <polygon id="Fill-27" points="45.5518 32.5448 54.6948 32.5448 54.6948 35.6718 49.3808 35.6718 49.3808 42.1938 53.1808 42.1938 53.1808 45.2848 49.3808 45.2848 49.3808 52.2128 54.6948 52.2128 54.6948 55.3328 45.5518 55.3328"></polygon>
                    <path d="M59.9376,49.4539 L59.9376,38.4299 C59.9376,34.8599 61.6166,32.2759 65.6486,32.2759 C69.8836,32.2759 71.0636,34.6289 71.0636,37.9879 L71.0636,40.6809 L67.5666,40.6809 L67.5666,37.6909 C67.5666,36.2799 67.0966,35.4689 65.7216,35.4689 C64.3386,35.4689 63.7666,36.4459 63.7666,37.8209 L63.7666,50.0549 C63.7666,51.4369 64.3386,52.4149 65.7216,52.4149 C67.0966,52.4149 67.5666,51.5389 67.5666,50.1919 L67.5666,45.9869 L71.0636,45.9869 L71.0636,49.9249 C71.0636,53.1829 69.7246,55.6069 65.6486,55.6069 C61.6166,55.6069 59.9376,52.9789 59.9376,49.4539" id="Fill-28"></path>
                    <path d="M76.8111,35.6688 L76.8111,42.7638 L78.0921,42.7638 C79.3951,42.7638 79.9741,42.0898 79.9741,40.8818 L79.9741,37.5158 C79.9741,36.2768 79.3951,35.6688 78.0921,35.6688 L76.8111,35.6688 Z M76.8111,44.8768 L76.8111,55.3378 L72.9811,55.3378 L72.9811,32.5418 L78.5631,32.5418 C82.4211,32.5418 83.8401,34.4598 83.8401,37.6528 L83.8401,40.5768 C83.8401,43.0308 82.9641,44.4798 80.7781,44.9858 L84.4481,55.3378 L80.4091,55.3378 L76.8111,44.8768 Z" id="Fill-29"></path>
                    <polygon id="Fill-30" points="85.754 32.5448 94.897 32.5448 94.897 35.6718 89.583 35.6718 89.583 42.1938 93.383 42.1938 93.383 45.2848 89.583 45.2848 89.583 52.2128 94.897 52.2128 94.897 55.3328 85.754 55.3328"></polygon>
                    <path d="M96.4073,50.4295 L96.4073,47.3675 L99.9763,47.3675 L99.9763,50.4945 C99.9763,51.7765 100.5403,52.5145 101.8583,52.5145 C103.0673,52.5145 103.6023,51.7035 103.6023,50.4945 L103.6023,49.6185 C103.6023,48.3085 103.0673,47.5045 101.8863,46.3905 L99.6363,44.1395 C97.4563,41.9895 96.4433,40.6785 96.4433,38.0585 L96.4433,37.2835 C96.4433,34.4605 98.0863,32.2745 101.8223,32.2745 C105.6513,32.2745 107.1643,34.1575 107.1643,37.4505 L107.1643,39.2965 L103.6753,39.2965 L103.6753,37.3135 C103.6753,36.0025 103.0673,35.3655 101.8583,35.3655 C100.7793,35.3655 100.0413,35.9735 100.0413,37.2475 L100.0413,37.7185 C100.0413,38.9995 100.7503,39.7385 101.8583,40.8175 L104.3123,43.2345 C106.3963,45.3485 107.4033,46.6295 107.4033,49.1485 L107.4033,50.2635 C107.4033,53.3825 105.7233,55.6055 101.8223,55.6055 C97.9203,55.6055 96.4073,53.4195 96.4073,50.4295" id="Fill-31"></path>
                    <path d="M109.252,49.4539 L109.252,38.4299 C109.252,34.8599 110.931,32.2759 114.963,32.2759 C119.198,32.2759 120.378,34.6289 120.378,37.9879 L120.378,40.6809 L116.881,40.6809 L116.881,37.6909 C116.881,36.2799 116.411,35.4689 115.036,35.4689 C113.653,35.4689 113.081,36.4459 113.081,37.8209 L113.081,50.0549 C113.081,51.4369 113.653,52.4149 115.036,52.4149 C116.411,52.4149 116.881,51.5389 116.881,50.1919 L116.881,45.9869 L120.378,45.9869 L120.378,49.9249 C120.378,53.1829 119.039,55.6069 114.963,55.6069 C110.931,55.6069 109.252,52.9789 109.252,49.4539" id="Fill-32"></path>
                    <polygon id="Fill-33" points="122.295 55.332 126.124 55.332 126.124 32.544 122.295 32.544"></polygon>
                    <polygon id="Fill-34" points="138.7295 40.5438 138.6285 40.5438 136.0435 55.3328 134.2635 55.3328 131.4035 40.5438 131.3385 40.5438 131.3385 55.3328 128.1755 55.3328 128.1755 32.5448 132.6485 32.5448 135.1315 45.3868 135.1675 45.3868 137.3835 32.5448 142.2265 32.5448 142.2265 55.3328 138.7295 55.3328"></polygon>
                    <polygon id="Fill-35" points="144.2442 32.5448 153.3942 32.5448 153.3942 35.6718 148.0732 35.6718 148.0732 42.1938 151.8812 42.1938 151.8812 45.2848 148.0732 45.2848 148.0732 52.2128 153.3942 52.2128 153.3942 55.3328 144.2442 55.3328"></polygon>
                    <polygon id="Fill-36" points="158.4952 41.0135 158.4952 55.3385 155.2742 55.3385 155.2742 32.5435 159.0312 32.5435 163.1712 45.6175 163.1712 32.5435 166.3642 32.5435 166.3642 55.3385 163.0052 55.3385"></polygon>
                    <polygon id="Fill-37" points="167.9468 32.5448 178.1318 32.5448 178.1318 35.6718 174.9688 35.6718 174.9688 55.3328 171.1028 55.3328 171.1028 35.6718 167.9468 35.6718"></polygon>
                    <path d="M187.0054,50.0584 L187.0054,37.8254 C187.0054,36.4424 186.3974,35.4644 185.0224,35.4644 C183.6754,35.4644 183.0674,36.4424 183.0674,37.8254 L183.0674,50.0584 C183.0674,51.4334 183.6754,52.4114 185.0224,52.4114 C186.3974,52.4114 187.0054,51.4334 187.0054,50.0584 M179.2374,49.4574 L179.2374,38.4254 C179.2374,34.8644 180.9894,32.2734 185.0224,32.2734 C189.0894,32.2734 190.8344,34.8644 190.8344,38.4254 L190.8344,49.4574 C190.8344,52.9834 189.0894,55.6034 185.0224,55.6034 C180.9894,55.6034 179.2374,52.9834 179.2374,49.4574" id="Fill-38"></path>
                    <polygon id="Fill-39" points="45.5518 64.2567 54.6948 64.2567 54.6948 67.3837 49.3808 67.3837 49.3808 73.9057 53.1808 73.9057 53.1808 76.9967 49.3808 76.9967 49.3808 83.9247 54.6948 83.9247 54.6948 87.0437 45.5518 87.0437"></polygon>
                    <path d="M56.2398,81.1658 L56.2398,70.1418 C56.2398,66.5798 57.9118,63.9878 61.9508,63.9878 C66.1858,63.9878 67.3658,66.3418 67.3658,69.7078 L67.3658,72.3938 L63.8698,72.3938 L63.8698,69.4028 C63.8698,67.9918 63.3988,67.1818 62.0238,67.1818 C60.6408,67.1818 60.0688,68.1578 60.0688,69.5328 L60.0688,81.7678 C60.0688,83.1498 60.6408,84.1268 62.0238,84.1268 C63.3988,84.1268 63.8698,83.2508 63.8698,81.9048 L63.8698,77.7058 L67.3658,77.7058 L67.3658,81.6368 C67.3658,84.9018 66.0268,87.3188 61.9508,87.3188 C57.9118,87.3188 56.2398,84.6988 56.2398,81.1658" id="Fill-40"></path>
                    <path d="M77.045,81.7703 L77.045,69.5373 C77.045,68.1623 76.444,67.1843 75.068,67.1843 C73.722,67.1843 73.114,68.1623 73.114,69.5373 L73.114,81.7703 C73.114,83.1463 73.722,84.1233 75.068,84.1233 C76.444,84.1233 77.045,83.1463 77.045,81.7703 M69.285,81.1693 L69.285,70.1453 C69.285,66.5763 71.029,63.9853 75.068,63.9853 C79.129,63.9853 80.874,66.5763 80.874,70.1453 L80.874,81.1693 C80.874,84.6953 79.129,87.3233 75.068,87.3233 C71.029,87.3233 69.285,84.6953 69.285,81.1693" id="Fill-41"></path>
                    <polygon id="Fill-42" points="86.1216 72.7283 86.1216 87.0473 82.9006 87.0473 82.9006 64.2593 86.6576 64.2593 90.7976 77.3323 90.7976 64.2593 93.9906 64.2593 93.9906 87.0473 90.6316 87.0473"></polygon>
                    <path d="M103.7725,81.7703 L103.7725,69.5373 C103.7725,68.1623 103.1645,67.1843 101.7895,67.1843 C100.4425,67.1843 99.8355,68.1623 99.8355,69.5373 L99.8355,81.7703 C99.8355,83.1463 100.4425,84.1233 101.7895,84.1233 C103.1645,84.1233 103.7725,83.1463 103.7725,81.7703 L103.7725,81.7703 Z M104.9095,62.6463 L98.8935,63.4203 L98.8935,61.2633 L104.9095,59.9893 L104.9095,62.6463 Z M96.0055,81.1693 L96.0055,70.1453 C96.0055,66.5763 97.7505,63.9853 101.7895,63.9853 C105.8505,63.9853 107.6025,66.5763 107.6025,70.1453 L107.6025,81.1693 C107.6025,84.6953 105.8505,87.3233 101.7895,87.3233 C97.7505,87.3233 96.0055,84.6953 96.0055,81.1693 L96.0055,81.1693 Z" id="Fill-43"></path>
                    <polygon id="Fill-44" points="120.1739 72.2586 120.0719 72.2586 117.4879 87.0476 115.7079 87.0476 112.8409 72.2586 112.7829 72.2586 112.7829 87.0476 109.6199 87.0476 109.6199 64.2606 114.0859 64.2606 116.5759 77.0946 116.6119 77.0946 118.8269 64.2606 123.6699 64.2606 123.6699 87.0476 120.1739 87.0476"></polygon>
                    <polygon id="Fill-45" points="125.69 87.045 129.519 87.045 129.519 64.258 125.69 64.258"></polygon>
                    <path d="M131.5689,81.1658 L131.5689,70.1418 C131.5689,66.5798 133.2489,63.9878 137.2879,63.9878 C141.5229,63.9878 142.6949,66.3418 142.6949,69.7078 L142.6949,72.3938 L139.2059,72.3938 L139.2059,69.4028 C139.2059,67.9918 138.7279,67.1818 137.3529,67.1818 C135.9699,67.1818 135.3989,68.1578 135.3989,69.5328 L135.3989,81.7678 C135.3989,83.1498 135.9699,84.1268 137.3529,84.1268 C138.7279,84.1268 139.2059,83.2508 139.2059,81.9048 L139.2059,77.7058 L142.6949,77.7058 L142.6949,81.6368 C142.6949,84.9018 141.3559,87.3188 137.2879,87.3188 C133.2489,87.3188 131.5689,84.6988 131.5689,81.1658" id="Fill-46"></path>
                    <path d="M152.3804,81.7703 L152.3804,69.5373 C152.3804,68.1623 151.7724,67.1843 150.3974,67.1843 C149.0504,67.1843 148.4424,68.1623 148.4424,69.5373 L148.4424,81.7703 C148.4424,83.1463 149.0504,84.1233 150.3974,84.1233 C151.7724,84.1233 152.3804,83.1463 152.3804,81.7703 M144.6134,81.1693 L144.6134,70.1453 C144.6134,66.5763 146.3584,63.9853 150.3974,63.9853 C154.4654,63.9853 156.2104,66.5763 156.2104,70.1453 L156.2104,81.1693 C156.2104,84.6953 154.4654,87.3233 150.3974,87.3233 C146.3584,87.3233 144.6134,84.6953 144.6134,81.1693" id="Fill-47"></path>
                    <path d="M155.229,128.1619 L131.507,150.7249 C130.61,151.6159 130.154,152.2749 130.154,154.1139 L130.154,217.3589 C130.154,218.0979 130.754,218.7059 131.507,218.7059 L156.003,218.7059 C156.756,218.7059 157.357,218.0979 157.357,217.3589 L157.357,128.7339 C157.357,127.9889 156.778,126.6209 155.229,128.1619" id="Fill-48"></path>
                    <path d="M86.8917,157.5594 L63.1697,180.1224 C62.2797,181.0134 61.8167,181.6714 61.8167,183.5024 L61.8167,217.3594 C61.8167,218.0974 62.4247,218.7054 63.1697,218.7054 L87.6667,218.7054 C88.4187,218.7054 89.0197,218.0974 89.0197,217.3594 L89.0197,158.1234 C89.0197,157.3784 88.4337,156.0094 86.8917,157.5594" id="Fill-49"></path>
                    <path d="M166.01031,100.7977 C166.0168,100.6157 165.9518,100.4217 165.8068,100.2827 C165.6838,100.1607 165.5248,100.1027 165.3658,100.0877 L165.2428,100.0957 L165.0398,100.1107 L146.8778,104.2067 L146.5518,104.2427 C146.4218,104.2647 146.2908,104.3297 146.1978,104.4237 C145.9288,104.6987 145.9288,105.1337 146.1978,105.4017 L146.3998,105.6107 L150.5478,109.7517 L109.3948,150.9117 L90.3858,131.9027 C90.1688,131.6857 89.8288,131.6857 89.6118,131.9027 L84.4498,137.0637 C84.4428,137.0637 84.4428,137.0707 84.4428,137.0707 L53.9748,167.5317 C53.7648,167.7487 53.7648,168.0967 53.9748,168.3067 L59.1428,173.4757 C59.3528,173.6857 59.6938,173.6857 59.9108,173.4757 L90.0028,143.3837 L103.7918,157.1807 C103.8068,157.2017 103.8138,157.2247 103.8358,157.2457 L108.9968,162.3997 C109.2138,162.6167 109.5538,162.6167 109.7718,162.3997 L156.4838,115.6877 L160.8418,120.0457 C161.1018,120.3137 161.5438,120.3137 161.8108,120.0457 C161.9418,119.9147 161.9918,119.7637 162.0068,119.5967 L162.0068,119.5387 L165.9948,100.9927 L166.01031,100.7977 Z" id="Fill-50"></path>
                    <path d="M121.1915,161.5174 L109.7175,173.0924 C109.5005,173.2734 109.1825,173.2664 108.9795,173.0644 L98.5775,162.4664 C96.6735,160.5694 96.2685,162.1044 96.2685,162.8494 L96.2685,217.3504 C96.2685,218.0964 96.8615,218.7054 97.6075,218.7054 L122.1185,218.7054 C122.8565,218.7054 123.4645,218.0964 123.4645,217.3504 L123.4645,161.9454 C123.4645,161.2064 122.8705,159.8384 121.1915,161.5174" id="Fill-51"></path>
                </g>
            </g>
        </g>
    </g>
</svg>