<?xml version="1.0" encoding="UTF-8"?>
<svg width="270px" height="270px" viewBox="0 0 270 270" version="1.1" xmlns="http://www.w3.org/2000/svg" xmlns:xlink="http://www.w3.org/1999/xlink">
    <title>ODS9</title>
    <g id="Page-1" stroke="none" stroke-width="1" fill="none" fill-rule="evenodd">
        <g id="ODS_9_detalhe_img1" transform="translate(-576.000000, -304.000000)">
            <g id="ODS9" transform="translate(576.000000, 304.000000)">
                <polygon id="Fill-1" fill="#FD6925" points="1.27897692e-12 269.841 269.834 269.841 269.834 -5.68434189e-14 1.27897692e-12 -5.68434189e-14"></polygon>
                <g id="Group-40" transform="translate(22.000000, 17.841000)" fill="#FFFFFF">
                    <path d="M18.3557,26.8029 C18.1967,29.8439 16.9157,31.7769 14.0197,31.7769 C10.8997,31.7769 9.6977,29.8439 9.6977,26.3189 L9.6977,16.8499 C9.6977,13.4049 10.9717,11.4069 14.1067,11.4069 C17.1537,11.4069 18.3557,13.4839 18.3557,16.8499 L18.3557,26.8029 Z M27.4187,18.4639 C27.4187,10.0379 23.7267,3.9439 14.1067,3.9439 C4.3917,3.9439 0.6347,9.2349 0.6347,17.6539 L0.6347,25.6819 C0.6347,34.5849 4.1527,39.0739 10.7327,39.0739 C14.5847,39.0739 16.9157,37.3069 18.2757,34.6649 L18.3557,34.6649 L18.3557,46.3689 C18.3557,49.6569 17.0667,51.9879 13.7807,51.9879 C10.4947,51.9879 9.2927,50.0619 9.2927,46.6889 L9.2927,43.0829 L0.9537,43.0829 L0.9537,45.9719 C0.9537,53.9919 3.8347,59.6029 13.9467,59.6029 C23.5677,59.6029 27.4187,53.4279 27.4187,44.9219 L27.4187,18.4639 Z" id="Fill-2"></path>
                    <polygon id="Fill-4" points="43.584 27.619 47.413 27.619 47.413 4.831 43.584 4.831"></polygon>
                    <polygon id="Fill-6" points="52.698 13.3014 52.698 27.6204 49.469 27.6204 49.469 4.8324 53.234 4.8324 57.367 17.9054 57.367 4.8324 60.567 4.8324 60.567 27.6204 57.2 27.6204"></polygon>
                    <path d="M68.0232,24.4943 C69.6082,24.4943 70.2092,23.5543 70.2092,22.1793 L70.2092,10.2413 C70.2092,8.8953 69.6082,7.9543 68.0232,7.9543 L66.4092,7.9543 L66.4092,24.4943 L68.0232,24.4943 Z M74.0392,10.9443 L74.0392,21.5053 C74.0392,25.0013 72.5982,27.6223 68.4942,27.6223 L62.5802,27.6223 L62.5802,4.8273 L68.4942,4.8273 C72.5982,4.8273 74.0392,7.4183 74.0392,10.9443 L74.0392,10.9443 Z" id="Fill-7"></path>
                    <path d="M84.8343,3.2169 L78.8183,3.9919 L78.8183,1.8419 L84.8343,0.5609 L84.8343,3.2169 Z M87.1873,4.8309 L87.1873,22.0739 C87.1873,25.6069 85.6733,27.8949 81.7723,27.8949 C77.7403,27.8949 76.0613,25.6069 76.0613,22.0739 L76.0613,4.8309 L79.8903,4.8309 L79.8903,22.4439 C79.8903,23.7899 80.4333,24.6949 81.7723,24.6949 C83.1183,24.6949 83.6543,23.7899 83.6543,22.4439 L83.6543,4.8309 L87.1873,4.8309 Z" id="Fill-8"></path>
                    <path d="M88.9978,22.713 L88.9978,19.651 L92.5668,19.651 L92.5668,22.778 C92.5668,24.06 93.1308,24.798 94.4488,24.798 C95.6578,24.798 96.1928,23.987 96.1928,22.778 L96.1928,21.91 C96.1928,20.6 95.6578,19.789 94.4778,18.682 L92.2268,16.423 C90.0478,14.273 89.0338,12.963 89.0338,10.342 L89.0338,9.567 C89.0338,6.744 90.6768,4.558 94.4128,4.558 C98.2418,4.558 99.7548,6.441 99.7548,9.741 L99.7548,11.587 L96.2658,11.587 L96.2658,9.604 C96.2658,8.294 95.6578,7.65 94.4488,7.65 C93.3698,7.65 92.6318,8.258 92.6318,9.539 L92.6318,10.009 C92.6318,11.283 93.3408,12.022 94.4488,13.101 L96.9028,15.518 C98.9878,17.639 99.9938,18.913 99.9938,21.44 L99.9938,22.547 C99.9938,25.674 98.3068,27.889 94.4128,27.889 C90.5108,27.889 88.9978,25.703 88.9978,22.713" id="Fill-9"></path>
                    <polygon id="Fill-10" points="100.9021 4.8283 111.0871 4.8283 111.0871 7.9553 107.9311 7.9553 107.9311 27.6163 104.0661 27.6163 104.0661 7.9553 100.9021 7.9553"></polygon>
                    <path d="M116.532,7.9567 L116.532,15.0517 L117.813,15.0517 C119.116,15.0517 119.696,14.3777 119.696,13.1687 L119.696,9.8027 C119.696,8.5577 119.116,7.9567 117.813,7.9567 L116.532,7.9567 Z M116.532,17.1647 L116.532,27.6177 L112.703,27.6177 L112.703,4.8307 L118.277,4.8307 C122.142,4.8307 123.561,6.7487 123.561,9.9407 L123.561,12.8647 C123.561,15.3187 122.685,16.7667 120.499,17.2667 L124.162,27.6177 L120.13,27.6177 L116.532,17.1647 Z" id="Fill-11"></path>
                    <polygon id="Fill-12" points="125.476 27.619 129.306 27.619 129.306 4.831 125.476 4.831"></polygon>
                    <path d="M135.5623,20.3947 L138.6173,20.3947 L137.1043,11.2527 L137.0683,11.2527 L135.5623,20.3947 Z M130.7483,27.6197 L135.0553,4.8317 L139.4203,4.8317 L143.7643,27.6197 L139.8263,27.6197 L139.1243,23.4497 L135.0553,23.4497 L134.3823,27.6197 L130.7483,27.6197 Z" id="Fill-13"></path>
                    <polygon id="Fill-14" points="149.1067 24.258 147.1517 29.398 145.0097 29.398 145.4727 23.954 149.1067 23.954"></polygon>
                    <polygon id="Fill-15" points="43.584 59.332 47.413 59.332 47.413 36.544 43.584 36.544"></polygon>
                    <polygon id="Fill-16" points="52.698 45.0138 52.698 59.3388 49.469 59.3388 49.469 36.5438 53.234 36.5438 57.367 49.6178 57.367 36.5438 60.567 36.5438 60.567 59.3388 57.2 59.3388"></polygon>
                    <path d="M70.3426,54.0587 L70.3426,41.8257 C70.3426,40.4427 69.7416,39.4647 68.3666,39.4647 C67.0196,39.4647 66.4116,40.4427 66.4116,41.8257 L66.4116,54.0587 C66.4116,55.4337 67.0196,56.4117 68.3666,56.4117 C69.7416,56.4117 70.3426,55.4337 70.3426,54.0587 M62.5826,53.4507 L62.5826,42.4257 C62.5826,38.8647 64.3276,36.2727 68.3666,36.2727 C72.4276,36.2727 74.1726,38.8647 74.1726,42.4257 L74.1726,53.4507 C74.1726,56.9837 72.4276,59.6037 68.3666,59.6037 C64.3276,59.6037 62.5826,56.9837 62.5826,53.4507" id="Fill-17"></path>
                    <polygon id="Fill-18" points="87.7888 36.5441 83.4528 59.3321 79.2838 59.3321 74.9548 36.5441 78.8558 36.5441 81.4698 52.4411 81.5058 52.4411 84.1988 36.5441"></polygon>
                    <path d="M91.3875,52.1076 L94.4495,52.1076 L92.9365,42.9646 L92.9005,42.9646 L91.3875,52.1076 Z M86.5805,59.3386 L90.8805,36.5446 L95.2525,36.5446 L99.5895,59.3386 L95.6585,59.3386 L94.9495,55.1696 L90.8805,55.1696 L90.2075,59.3386 L86.5805,59.3386 Z" id="Fill-19"></path>
                    <path d="M104.5642,61.6535 C105.6352,61.6255 105.8092,61.3855 105.8092,61.1185 C105.8092,60.8865 105.6062,60.7495 105.2732,60.7495 L105.1002,60.7495 L105.1002,59.5045 C101.8422,59.0985 100.4962,56.6445 100.4962,53.4525 L100.4962,42.4275 C100.4962,38.8665 102.1752,36.2745 106.2142,36.2745 C110.4422,36.2745 111.6222,38.6275 111.6222,41.9865 L111.6222,44.6785 L108.1262,44.6785 L108.1262,41.6885 C108.1262,40.2775 107.6552,39.4665 106.2722,39.4665 C104.9042,39.4665 104.3332,40.4445 104.3332,41.8195 L104.3332,54.0605 C104.3332,55.4355 104.9042,56.4135 106.2722,56.4135 C107.6552,56.4135 108.1262,55.5375 108.1262,54.1905 L108.1262,49.9925 L111.6222,49.9925 L111.6222,53.9235 C111.6222,57.1155 110.3482,59.4675 106.5402,59.6055 L106.5402,59.9095 C107.4522,60.0405 107.9592,60.3805 107.9592,61.1185 C107.9592,62.1605 106.9822,62.7325 104.5642,62.7325 L104.5642,61.6535 Z" id="Fill-20"></path>
                    <path d="M117.409,52.1076 L120.464,52.1076 L118.951,42.9646 L118.914,42.9646 L117.409,52.1076 Z M115.592,35.6386 C115.657,34.0536 116.265,32.7796 117.945,32.7796 C118.914,32.7796 119.725,33.3516 120.232,33.3516 C120.5,33.3516 120.702,33.1856 120.702,32.8446 L122.585,32.8446 C122.512,34.4306 121.911,35.7046 120.232,35.7046 C119.255,35.7046 118.451,35.1316 117.945,35.1316 C117.677,35.1316 117.474,35.2986 117.474,35.6386 L115.592,35.6386 Z M112.602,59.3386 L116.902,36.5446 L121.267,36.5446 L125.61,59.3386 L121.673,59.3386 L120.971,55.1696 L116.902,55.1696 L116.229,59.3386 L112.602,59.3386 Z" id="Fill-21"></path>
                    <path d="M134.2835,54.0587 L134.2835,41.8257 C134.2835,40.4427 133.6755,39.4647 132.2995,39.4647 C130.9535,39.4647 130.3455,40.4427 130.3455,41.8257 L130.3455,54.0587 C130.3455,55.4337 130.9535,56.4117 132.2995,56.4117 C133.6755,56.4117 134.2835,55.4337 134.2835,54.0587 M126.5155,53.4507 L126.5155,42.4257 C126.5155,38.8647 128.2605,36.2727 132.2995,36.2727 C136.3605,36.2727 138.1125,38.8647 138.1125,42.4257 L138.1125,53.4507 C138.1125,56.9837 136.3605,59.6037 132.2995,59.6037 C128.2605,59.6037 126.5155,56.9837 126.5155,53.4507" id="Fill-22"></path>
                    <polygon id="Fill-23" points="143.4939 36.5441 152.6369 36.5441 152.6369 39.6721 147.3229 39.6721 147.3229 46.1931 151.1229 46.1931 151.1229 49.2851 147.3229 49.2851 147.3229 56.2051 152.6369 56.2051 152.6369 59.3321 143.4939 59.3321"></polygon>
                    <polygon id="Fill-24" points="43.584 91.045 47.413 91.045 47.413 68.257 43.584 68.257"></polygon>
                    <polygon id="Fill-25" points="52.3587 76.7296 52.3587 91.0476 49.1377 91.0476 49.1377 68.2596 52.8947 68.2596 57.0277 81.3336 57.0277 68.2596 60.2277 68.2596 60.2277 91.0476 56.8687 91.0476"></polygon>
                    <polygon id="Fill-26" points="61.909 68.256 70.878 68.256 70.878 71.384 65.738 71.384 65.738 77.905 69.575 77.905 69.575 80.996 65.738 80.996 65.738 91.044 61.909 91.044"></polygon>
                    <path d="M75.8919,71.3849 L75.8919,78.4799 L77.1729,78.4799 C78.4759,78.4799 79.0559,77.8059 79.0559,76.5969 L79.0559,73.2309 C79.0559,71.9859 78.4759,71.3849 77.1729,71.3849 L75.8919,71.3849 Z M75.8919,80.5929 L75.8919,91.0449 L72.0629,91.0449 L72.0629,68.2579 L77.6369,68.2579 C81.5019,68.2579 82.9209,70.1759 82.9209,73.3679 L82.9209,76.2929 C82.9209,78.7469 82.0449,80.1949 79.8589,80.6949 L83.5219,91.0449 L79.4899,91.0449 L75.8919,80.5929 Z" id="Fill-27"></path>
                    <path d="M88.701,83.8224 L91.756,83.8224 L90.243,74.6804 L90.207,74.6804 L88.701,83.8224 Z M83.887,91.0474 L88.194,68.2594 L92.559,68.2594 L96.903,91.0474 L92.965,91.0474 L92.263,86.8784 L88.194,86.8784 L87.521,91.0474 L83.887,91.0474 Z" id="Fill-28"></path>
                    <polygon id="Fill-29" points="97.9754 68.256 107.1184 68.256 107.1184 71.384 101.8054 71.384 101.8054 77.905 105.6054 77.905 105.6054 80.996 101.8054 80.996 101.8054 87.924 107.1184 87.924 107.1184 91.044 97.9754 91.044"></polygon>
                    <path d="M108.2966,86.1418 L108.2966,83.0798 L111.8586,83.0798 L111.8586,86.2068 C111.8586,87.4888 112.4296,88.2268 113.7396,88.2268 C114.9486,88.2268 115.4916,87.4158 115.4916,86.2068 L115.4916,85.3388 C115.4916,84.0288 114.9486,83.2178 113.7756,82.1108 L111.5176,79.8518 C109.3386,77.7028 108.3326,76.3918 108.3326,73.7708 L108.3326,72.9958 C108.3326,70.1728 109.9756,67.9878 113.7036,67.9878 C117.5326,67.9878 119.0536,69.8698 119.0536,73.1698 L119.0536,75.0158 L115.5566,75.0158 L115.5566,73.0328 C115.5566,71.7228 114.9486,71.0788 113.7396,71.0788 C112.6686,71.0788 111.9306,71.6868 111.9306,72.9678 L111.9306,73.4388 C111.9306,74.7118 112.6326,75.4508 113.7396,76.5298 L116.1936,78.9478 C118.2786,81.0678 119.2926,82.3418 119.2926,84.8688 L119.2926,85.9758 C119.2926,89.1038 117.6056,91.3188 113.7036,91.3188 C109.8096,91.3188 108.2966,89.1318 108.2966,86.1418" id="Fill-30"></path>
                    <polygon id="Fill-31" points="119.8621 68.256 130.0471 68.256 130.0471 71.384 126.8911 71.384 126.8911 91.044 123.0251 91.044 123.0251 71.384 119.8621 71.384"></polygon>
                    <path d="M135.1526,71.3849 L135.1526,78.4799 L136.4336,78.4799 C137.7436,78.4799 138.3156,77.8059 138.3156,76.5969 L138.3156,73.2309 C138.3156,71.9859 137.7436,71.3849 136.4336,71.3849 L135.1526,71.3849 Z M135.1526,80.5929 L135.1526,91.0449 L131.3226,91.0449 L131.3226,68.2579 L136.9036,68.2579 C140.7626,68.2579 142.1816,70.1759 142.1816,73.3679 L142.1816,76.2929 C142.1816,78.7469 141.3126,80.1949 139.1196,80.6949 L142.7896,91.0449 L138.7506,91.0449 L135.1526,80.5929 Z" id="Fill-32"></path>
                    <path d="M154.8889,68.256 L154.8889,85.499 C154.8889,89.032 153.3759,91.319 149.4739,91.319 C145.4349,91.319 143.7629,89.032 143.7629,85.499 L143.7629,68.256 L147.5929,68.256 L147.5929,85.876 C147.5929,87.215 148.1279,88.127 149.4739,88.127 C150.8209,88.127 151.3569,87.215 151.3569,85.876 L151.3569,68.256 L154.8889,68.256 Z" id="Fill-33"></path>
                    <polygon id="Fill-34" points="156.1336 68.256 166.3186 68.256 166.3186 71.384 163.1626 71.384 163.1626 91.044 159.2966 91.044 159.2966 71.384 156.1336 71.384"></polygon>
                    <path d="M178.7195,68.256 L178.7195,85.499 C178.7195,89.032 177.2065,91.319 173.3115,91.319 C169.2725,91.319 167.5935,89.032 167.5935,85.499 L167.5935,68.256 L171.4225,68.256 L171.4225,85.876 C171.4225,87.215 171.9585,88.127 173.3115,88.127 C174.6515,88.127 175.1945,87.215 175.1945,85.876 L175.1945,68.256 L178.7195,68.256 Z" id="Fill-35"></path>
                    <path d="M184.2337,71.3849 L184.2337,78.4799 L185.5147,78.4799 C186.8177,78.4799 187.3977,77.8059 187.3977,76.5969 L187.3977,73.2309 C187.3977,71.9859 186.8177,71.3849 185.5147,71.3849 L184.2337,71.3849 Z M184.2337,80.5929 L184.2337,91.0449 L180.4047,91.0449 L180.4047,68.2579 L185.9857,68.2579 C189.8437,68.2579 191.2627,70.1759 191.2627,73.3679 L191.2627,76.2929 C191.2627,78.7469 190.3867,80.1949 188.2007,80.6949 L191.8707,91.0449 L187.8317,91.0449 L184.2337,80.5929 Z" id="Fill-36"></path>
                    <path d="M197.0427,83.8224 L200.1047,83.8224 L198.5917,74.6804 L198.5557,74.6804 L197.0427,83.8224 Z M192.2367,91.0474 L196.5437,68.2594 L200.9087,68.2594 L205.2447,91.0474 L201.3137,91.0474 L200.6047,86.8784 L196.5437,86.8784 L195.8707,91.0474 L192.2367,91.0474 Z" id="Fill-37"></path>
                    <path d="M205.78,86.1418 L205.78,83.0798 L209.342,83.0798 L209.342,86.2068 C209.342,87.4888 209.913,88.2268 211.231,88.2268 C212.44,88.2268 212.975,87.4158 212.975,86.2068 L212.975,85.3388 C212.975,84.0288 212.44,83.2178 211.26,82.1108 L209.009,79.8518 C206.83,77.7028 205.816,76.3918 205.816,73.7708 L205.816,72.9958 C205.816,70.1728 207.46,67.9878 211.195,67.9878 C215.024,67.9878 216.537,69.8698 216.537,73.1698 L216.537,75.0158 L213.041,75.0158 L213.041,73.0328 C213.041,71.7228 212.44,71.0788 211.231,71.0788 C210.153,71.0788 209.414,71.6868 209.414,72.9678 L209.414,73.4388 C209.414,74.7118 210.123,75.4508 211.231,76.5298 L213.685,78.9478 C215.77,81.0678 216.776,82.3418 216.776,84.8688 L216.776,85.9758 C216.776,89.1038 215.089,91.3188 211.195,91.3188 C207.293,91.3188 205.78,89.1318 205.78,86.1418" id="Fill-38"></path>
                    <path d="M168.5686,205.2502 L143.5876,219.6702 L143.5876,190.8312 L168.5686,176.4032 L168.5686,205.2502 Z M86.0456,219.6702 L86.0456,193.0242 L109.1156,206.3442 L86.0456,219.6702 Z M82.2456,219.6702 L57.2646,205.2502 L57.2646,176.4032 L82.2456,190.8312 L82.2456,219.6702 Z M109.1156,139.8912 L86.0456,153.2262 L86.0456,126.5722 L109.1156,139.8912 Z M139.7866,153.2262 L116.7166,139.8912 L139.7866,126.5722 L139.7866,153.2262 Z M116.7166,173.1172 L141.6836,158.6972 L166.6646,173.1172 L141.6836,187.5372 L116.7166,173.1172 Z M111.0196,169.8312 L87.9356,156.5122 L111.0196,143.1852 L111.0196,169.8312 Z M137.8906,156.5122 L114.8126,169.8312 L114.8126,143.1852 L137.8906,156.5122 Z M111.0196,203.0572 L87.9356,189.7302 L111.0196,176.4032 L111.0196,203.0572 Z M171.4206,171.4752 L143.5876,155.4112 L143.5876,123.2852 C143.5876,122.6042 143.2256,121.9822 142.6386,121.6352 L113.8646,105.0292 C113.2716,104.6882 112.5546,104.6882 111.9676,105.0292 L83.1936,121.6352 C82.6076,121.9822 82.2456,122.6042 82.2456,123.2852 L82.2456,155.4112 L54.4196,171.4752 C53.8256,171.8142 53.4706,172.4372 53.4706,173.1172 L53.4706,206.3442 C53.4706,207.0242 53.8256,207.6532 54.4196,207.9872 L83.1936,224.6002 C83.4836,224.7672 83.8166,224.8532 84.1416,224.8532 C84.4746,224.8532 84.8006,224.7672 85.0896,224.6002 L112.9166,208.5372 L140.7356,224.6002 C141.0316,224.7672 141.3576,224.8532 141.6836,224.8532 C142.0166,224.8532 142.3416,224.7672 142.6386,224.6002 L171.4206,207.9872 C172.0066,207.6532 172.3616,207.0242 172.3616,206.3442 L172.3616,173.1172 C172.3616,172.4372 172.0066,171.8142 171.4206,171.4752 L171.4206,171.4752 Z" id="Fill-39"></path>
                </g>
            </g>
        </g>
    </g>
</svg>